<svg width="35" height="35" viewBox="0 0 35 35" fill="none" xmlns="http://www.w3.org/2000/svg">
<path d="M6.96086 23.7806C6.94117 23.714 6.95684 23.7152 6.90491 23.791C6.92371 23.7877 6.94206 23.784 6.96086 23.7806ZM5.62102 25.7214C5.69891 25.6915 5.69757 25.7041 5.62102 25.6767V25.7214ZM31.6403 26.8761C31.72 26.8498 31.7186 26.8624 31.6439 26.8317L31.6403 26.8761ZM5.21186 28.7669C5.14113 28.7906 5.13844 28.7806 5.21231 28.8028L5.21186 28.7669ZM26.062 29.1887C26.0029 29.2116 26.0047 29.2016 26.062 29.2242V29.1887ZM7.38614 29.0585C7.42688 29.0026 7.43359 29.0163 7.36734 29.0082L7.38614 29.0585ZM32.4599 29.4558C32.395 29.4584 32.4085 29.4421 32.3888 29.5065C32.4958 29.4987 32.4823 29.5113 32.4599 29.4558ZM4.82732 29.04C4.79151 29.0884 4.78793 29.0759 4.84389 29.0825L4.82732 29.04ZM7.7765 29.3629C7.84365 29.3348 7.8517 29.3437 7.73128 29.3345C7.7465 29.3441 7.76172 29.3533 7.7765 29.3629ZM4.02646 30.0851C3.99065 30.1191 3.95036 30.1295 4.08555 30.1713C4.09272 30.1735 4.11331 30.1473 4.12808 30.1343C4.09406 30.1177 4.06048 30.1014 4.02646 30.0851ZM34.1055 31.7377C34.0142 31.7126 34.0267 31.7074 34.0411 31.7544C34.0576 31.7499 34.0737 31.7459 34.1055 31.7377ZM30.7817 31.9456C30.7902 31.9035 30.7996 31.9105 30.7445 31.9242L30.7817 31.9456ZM32.673 2.53831C32.6489 2.48281 32.6609 2.48133 32.6296 2.53609L32.673 2.53831ZM32.5786 33.9101C32.5387 33.8938 32.5002 33.8753 32.459 33.8642C32.4071 33.8502 32.4116 34.0662 32.5786 33.9101ZM27.5867 31.2039C27.4717 31.1654 27.4565 31.1376 27.4488 31.2449C27.4484 31.249 27.4923 31.2642 27.5061 31.2586C27.5357 31.2464 27.5585 31.2238 27.5867 31.2039ZM28.0501 30.269C28.2 30.3467 28.1378 30.3459 28.2887 30.2753C28.0921 30.1761 28.1566 30.1917 28.0501 30.269ZM34.2228 30.3818C34.3361 30.3555 34.2967 30.3075 34.2031 30.3297C34.2098 30.347 34.2161 30.3644 34.2228 30.3818ZM6.18865 29.4802C6.14031 29.5276 6.0839 29.5631 6.17567 29.5731C6.26878 29.5834 6.22133 29.5342 6.18865 29.4802ZM33.0871 4.48097C33.0598 4.45878 33.0325 4.43657 33.0052 4.41437C32.9913 4.42843 32.9627 4.44582 32.9662 4.45581C33.015 4.59048 33.0343 4.53536 33.0871 4.48097ZM4.48352 29.4295C4.41145 29.3341 4.46293 29.3474 4.29595 29.3463C4.38817 29.4902 4.34744 29.4591 4.48352 29.4295ZM6.06465 28.3437C5.9702 28.441 5.96617 28.3937 6.03869 28.5298C6.1421 28.4221 6.13672 28.4695 6.06465 28.3437ZM7.02757 25.8524C6.86148 25.6796 6.92102 25.7041 6.78807 25.7695C6.92281 25.9397 6.86238 25.9123 7.02757 25.8524ZM7.011 1.57716C6.85432 1.515 6.92594 1.48763 6.74017 1.64745C6.86685 1.69517 6.79523 1.72292 7.011 1.57716ZM31.9447 33.9486C32.1287 33.8287 32.117 33.892 32.0181 33.7011C31.7862 33.8121 31.7934 33.7536 31.9447 33.9486ZM30.8327 33.1247C30.8408 33.2194 30.7808 33.1754 31.0865 33.3837C31.0888 33.3855 31.1362 33.3511 31.1335 33.3478C30.9334 33.0718 30.9804 33.1277 30.8327 33.1247ZM32.147 30.889C32.0244 30.8716 32.0611 30.8254 32.006 31.1369C32.1085 31.1513 32.0714 31.1946 32.147 30.889ZM5.63266 28.2342C5.58879 28.1994 5.54268 28.1624 5.49657 28.1258C5.47553 28.1517 5.42898 28.1898 5.43703 28.2013C5.56417 28.3818 5.57312 28.3123 5.63266 28.2342ZM3.94185 29.2756C3.92305 28.976 3.92126 28.9763 3.74847 28.818C3.6558 28.9327 3.56582 29.044 3.483 29.1465C3.65043 29.3574 3.65043 29.3574 3.94185 29.2756ZM30.2852 33.3666C29.8295 32.7962 30.2472 32.8272 30.2158 32.7407C30.0314 32.2364 29.7073 32.6548 29.6486 33.2505C29.8465 33.2867 30.0193 33.3182 30.2852 33.3666ZM32.0503 34.6637C32.3888 33.7943 31.9604 34.4932 30.9527 34.0744C30.8699 34.04 30.7436 34.0777 30.4723 34.0888C31.0301 34.3718 31.5042 34.4628 32.0503 34.6637ZM7.13052 0.98634C6.87804 0.775093 6.87805 0.775082 6.59557 0.891251C6.88028 1.06994 7.058 1.01889 7.13052 0.98634ZM34.0214 2.39735C33.6708 2.46321 33.7528 2.4277 33.7273 2.54868C33.8181 2.55275 33.7416 2.59307 34.0241 2.39699C33.9636 2.82281 33.9484 2.75696 34.0455 2.75992C34.0375 2.63895 34.0294 2.51796 34.0214 2.39735ZM33.64 30.1979C33.7787 29.8628 33.8356 29.6549 34.6091 30.1192C34.8236 30.2479 34.7596 30.2941 34.5608 31.2479C34.7282 31.4218 34.9928 31.6467 34.773 31.8158C34.1404 32.3019 34.0755 31.9442 33.8065 31.9286C33.5885 31.9164 33.2769 32.074 33.4712 32.3052C33.5965 32.4543 34.0227 32.7784 33.6453 32.9009C33.1243 33.0699 33.3745 32.2116 33.1166 32.7377C32.7603 32.7373 32.673 32.5165 32.5889 32.259C31.3274 32.8043 32.2594 32.3248 32.1157 33.1543C31.9424 33.0008 31.7898 33.02 31.6139 33.1946C31.7571 33.2941 31.8775 33.3781 32.0548 33.5013C32.113 33.044 31.9178 33.1206 33.0155 33.2261C33.1301 33.3859 33.2604 33.5679 33.3884 33.7466C33.2568 33.9434 33.1525 34.1132 32.883 34.1828C32.1954 34.36 32.8234 34.7277 31.9402 34.8232C31.1286 34.9109 31.4075 35.1092 30.8228 34.9227C30.3667 34.7773 29.8662 34.6319 29.7118 34.4617C29.3371 34.0492 29.3514 33.7159 29.3809 33.6889C29.6401 33.929 29.8989 34.1691 30.1755 34.4255C30.3116 34.2623 30.2637 34.1273 30.1263 34.0041C29.0564 33.0451 29.2475 33.2028 28.217 33.3663C28.4574 32.9027 28.4565 32.8713 28.5487 32.8465C29.2417 32.6604 29.6437 32.5971 29.5958 32.481C29.5036 32.2582 29.3151 32.2923 29.1473 32.2793C28.5783 32.2353 28.5832 32.1254 28.3209 32.32C28.1056 32.4795 27.884 32.6238 27.3078 32.3252C27.3786 32.2486 27.4493 32.1728 27.5196 32.0966C27.2926 31.9538 27.5379 31.7177 27.3445 31.5476C26.8248 31.0907 26.6211 31.3082 26.6502 31.2446C27.0603 30.6807 26.8996 30.8835 27.3092 30.4573C27.1713 30.4362 27.0697 30.3922 26.9994 30.4151C26.8329 30.4695 26.682 30.5365 26.511 30.4299C25.9331 30.0711 26.0813 30.1491 25.9174 29.6963C25.7312 29.1824 25.6681 29.5483 24.8797 28.2694C23.7807 26.4862 23.9714 26.663 22.9696 25.2834C22.957 25.266 18.8901 20.5675 18.8717 20.5498C18.2222 20.9504 15.1597 24.9523 13.5683 26.044C13.2648 26.2523 12.9349 25.98 12.9384 26.448C12.9411 26.741 13.2312 26.4861 12.382 27.0566C12.3628 27.6955 12.4724 27.6726 12.0498 27.2379C11.8072 27.2712 12.0758 27.4836 11.9532 27.5942C11.728 27.7969 11.5623 27.6079 11.5798 27.5139C11.6219 27.2878 11.728 27.488 11.7436 26.9678C11.4473 26.959 11.2629 27.0677 11.0793 27.2457C11.326 27.7662 11.5834 28.2005 11.0193 28.508C10.8465 28.6019 10.8045 28.8598 10.7015 29.0433C10.607 29.0688 10.5466 29.0396 10.6455 29.0392C10.74 29.0389 10.7682 28.9723 10.1339 29.7858C9.36748 29.0448 9.60921 29.4388 9.32226 28.8835C8.94265 29.0999 9.19378 29.3659 9.22064 29.6193C8.78597 29.8054 8.71479 29.7048 9.49774 30.0085C9.87377 30.8531 9.14499 30.7455 8.52364 30.6859C8.40501 30.7214 8.60243 31.0807 8.23266 30.9072C7.18022 31.3038 7.17261 31.1761 8.06927 31.3607C8.31951 31.7999 7.67756 31.8439 6.63362 32.1195C6.22223 31.481 6.32206 31.6793 6.30549 31.4133C6.90043 31.2575 6.66541 31.3097 6.67078 31.3537C6.69093 31.522 6.75673 31.4806 6.75494 31.4632C6.72271 31.114 6.18955 31.3585 6.5911 30.5135C6.29206 30.5661 6.46575 30.7292 6.43531 30.838C6.06555 30.8247 6.06555 30.8247 5.92722 31.0696C6.01855 31.0141 5.75576 31.2723 5.50776 31.246C5.20917 31.2142 5.12367 30.919 5.41375 30.8302C5.44599 30.8202 5.61654 30.801 5.58207 30.7718C5.11024 30.3759 6.01675 30.2342 6.03779 30.2224C6.1515 30.1576 6.22984 30.0503 6.33638 29.9493C5.49657 29.2546 5.82426 29.6245 5.41957 29.7407C5.10845 29.4288 5.17784 29.4318 4.87567 29.4895C4.78569 29.5069 4.8703 29.6733 5.00281 29.6989C5.72443 29.8354 5.22484 29.6042 5.57625 29.6589C5.56372 29.6967 5.56372 29.7577 5.53686 29.7677C4.88507 30.0034 5.05473 29.7385 4.9173 30.579C4.08645 30.9475 4.24223 30.9464 4.12808 30.6404C4.02467 30.6785 4.00945 30.6271 4.22746 30.8868C3.39168 30.5635 3.98483 30.1095 3.15487 30.1077C2.89344 29.6904 3.4839 29.2272 3.17323 28.6671C3.04027 28.4284 3.26947 28.2453 3.49241 28.1043C3.51255 28.1905 3.47584 28.3592 3.41272 28.4547C3.61775 28.6493 3.79547 28.3086 3.80487 28.2686C4.04303 27.2941 3.18039 28.0618 3.89396 27.2176C3.75742 27.3075 4.19209 27.0822 4.38414 27.3419C4.54395 27.5575 4.92715 27.6093 4.98176 27.8998C4.87791 27.8598 4.81255 27.7433 4.65273 27.7965C4.5932 27.9775 4.58111 28.1865 4.25253 28.2205C4.1254 28.2338 4.1057 28.3703 4.16882 28.4747C4.44234 28.9268 4.27715 28.276 4.76375 28.39C5.2047 28.4935 5.0619 28.232 4.96252 27.8813C5.32243 27.552 5.29244 27.7866 5.04175 26.7614C4.72033 26.6223 4.41503 26.431 4.39847 26.0355C6.03824 25.6678 4.59633 24.9612 6.2173 25.283C6.29744 25.0392 5.96572 25.0015 5.912 24.8554C5.83948 24.515 5.92185 24.2072 6.2567 24.0178C6.83239 23.6926 6.2079 23.6308 7.2881 22.3703C8.16596 21.3463 13.6207 15.2361 13.6672 15.0748C11.9335 13.2235 5.14158 9.40253 1.04774 5.71774C-1.8683 3.09288 2.06079 -0.530495 3.6558 0.409203C4.49784 0.904949 4.63528 -0.095047 5.01579 0.00743103C5.47329 0.130627 5.8735 -0.0787811 6.10807 0.0433044C6.39055 0.189808 6.67526 0.149124 6.94743 0.0721741C7.18559 0.235325 7.39509 0.378117 7.6037 0.52055C6.98772 0.439899 7.35749 0.969322 7.5849 0.503914C8.02718 0.725891 7.94482 1.09696 7.94258 1.42104C8.67405 1.79285 8.69285 1.83871 8.38218 2.46986C8.40277 2.48207 16.8917 8.58122 18.4527 9.56828C19.3449 10.1325 25.2876 0.994102 28.3048 0.887184C28.7574 0.871277 30.6196 0.336327 31.1322 1.00706C31.8135 1.89866 32.4085 0.853519 32.7249 1.2564C33.0267 1.64042 33.1166 1.27934 33.6543 1.65411C33.8432 1.78582 33.986 1.93269 34.2828 1.93639C34.4936 1.93935 34.5908 2.18981 34.5004 2.38478C34.431 2.53535 34.2255 2.60343 34.4672 2.66965C35.0796 2.83614 34.9597 2.84835 34.6839 3.38331C34.5236 3.6937 34.4968 3.60861 34.8903 3.77879C35.0474 4.38849 35.1096 4.21718 34.5568 4.54164C34.3594 4.80024 34.8545 4.84316 34.662 5.07327C34.6006 5.14652 34.7605 5.30118 34.6373 5.4166C34.5774 5.47284 34.5254 5.53498 34.4784 5.58493C33.8642 5.43472 34.8357 4.81061 33.9632 4.80247C34.0666 4.50132 33.764 4.36443 33.5948 4.1739C33.725 4.12765 33.8808 4.10399 33.9788 4.02925C34.0737 3.95674 34.3056 4.10731 34.2944 3.89014C33.8244 3.88459 33.8244 3.88459 33.4784 3.46469C33.5178 3.35962 33.7156 3.29637 33.6001 3.14986C33.7317 3.05552 33.7076 3.09363 33.6628 3.00817C33.52 3.36333 33.1932 3.16651 32.9394 3.61231C33.7859 4.15319 33.7367 3.99559 33.2639 4.81468C33.8459 5.02814 33.7223 4.59529 33.9802 4.78693C33.9036 5.38368 33.8714 5.4129 33.1753 5.5176C33.3293 5.31227 33.3127 5.37552 33.1493 5.2723C32.998 5.44914 33.2599 5.54091 33.5366 5.68705C33.4564 6.57606 32.3153 6.85611 32.0132 6.77102C31.2244 6.54793 29.2108 9.29377 25.912 12.7377C25.4595 13.2102 23.9495 14.7558 23.8398 15.1029C25.0736 16.4184 32.9985 24.8239 31.7195 26.1302C31.7679 26.1935 31.801 26.2971 31.8748 26.3234C32.4013 26.5102 32.2795 26.8476 32.3364 27.0796C32.6618 27.2372 33.4027 27.4602 31.8829 27.495C31.7594 27.9201 31.6743 28.0041 31.9577 28.0555C33.5934 28.3533 32.6923 28.4747 33.1869 28.7281C33.4851 28.8809 33.5415 29.1491 33.6964 29.3467C33.5522 29.5661 33.1999 29.5354 33.139 29.7743C33.0952 29.6933 33.0294 29.6537 32.9492 29.7355C32.9336 29.7514 32.994 29.8187 33.0195 29.862C33.3906 29.4473 33.4645 30.623 33.64 30.1979Z" fill="#FF4D00"/>
</svg>
