<svg width="47" height="43" viewBox="0 0 47 43" fill="none" xmlns="http://www.w3.org/2000/svg">
<path d="M20.7388 35.6421C20.6778 35.6089 20.6896 35.5986 20.7065 35.689C20.7175 35.6733 20.7278 35.6577 20.7388 35.6421ZM21.1637 37.9618C21.1976 37.8856 21.2056 37.8954 21.1321 37.9302L21.1637 37.9618ZM40.3786 20.3799C40.4163 20.305 40.4243 20.3148 40.3497 20.346L40.3786 20.3799ZM23.0279 40.4047C22.9946 40.4714 22.9857 40.4663 23.0536 40.4297L23.0279 40.4047ZM38.0694 25.9596C38.0438 26.0176 38.038 26.0093 38.0945 25.9847L38.0694 25.9596ZM24.7715 39.0734C24.7608 39.005 24.7752 39.01 24.7226 39.0511L24.7715 39.0734ZM42.7823 21.6245C42.7382 21.6722 42.7362 21.6512 42.7678 21.7106C42.838 21.6295 42.8374 21.6479 42.7823 21.6245ZM22.9491 40.8696C22.958 40.9292 22.9466 40.9229 22.9909 40.888L22.9491 40.8696ZM25.2628 39.0126C25.2904 38.9453 25.3024 38.9458 25.2107 39.0245C25.2283 39.0205 25.2456 39.0163 25.2628 39.0126ZM23.1218 42.1749C23.1205 42.2243 23.0994 42.2601 23.2245 42.1941C23.2312 42.1906 23.2271 42.1575 23.2284 42.1379C23.1926 42.1502 23.1574 42.1624 23.1218 42.1749ZM45.5595 22.0744C45.4771 22.1212 45.4823 22.1087 45.5257 22.1318C45.5342 22.1169 45.5428 22.1026 45.5595 22.0744ZM43.3562 24.5717C43.3324 24.5359 43.344 24.5342 43.3147 24.5828L43.3562 24.5717ZM23.8994 2.44024C23.8431 2.41809 23.8506 2.4085 23.8672 2.46937L23.8994 2.44024ZM46.0159 24.6903C45.9762 24.7069 45.9359 24.7211 45.8989 24.7423C45.8523 24.7691 46.0082 24.9187 46.0159 24.6903ZM40.5725 26.3064C40.4639 26.3605 40.4336 26.3517 40.504 26.4329C40.5066 26.4361 40.5483 26.4158 40.5542 26.4021C40.5665 26.3726 40.5667 26.3405 40.5725 26.3064ZM40.239 25.3177C40.4 25.2666 40.3555 25.3101 40.4122 25.1534C40.2031 25.2223 40.2597 25.1877 40.239 25.3177ZM44.6836 21.0327C44.7451 20.934 44.6833 20.9279 44.6328 21.0097C44.6499 21.0173 44.6666 21.0252 44.6836 21.0327ZM24.223 40.2183C24.2223 40.286 24.2075 40.351 24.2795 40.2932C24.3526 40.2347 24.2843 40.2334 24.223 40.2183ZM25.5659 3.52111C25.5309 3.52472 25.4959 3.52833 25.4609 3.53194C25.461 3.5517 25.4531 3.58425 25.4627 3.58878C25.5924 3.6495 25.567 3.59691 25.5659 3.52111ZM22.9814 41.3882C22.863 41.3717 22.9088 41.3447 22.7899 41.462C22.9569 41.4985 22.9061 41.5054 22.9814 41.3882ZM23.3316 39.5024C23.3337 39.638 23.2973 39.6073 23.4449 39.6523C23.4419 39.5031 23.4716 39.5404 23.3316 39.5024ZM22.2509 37.0599C22.0113 37.0551 22.0707 37.0303 22.023 37.1706C22.2386 37.1957 22.1765 37.2191 22.2509 37.0599ZM5.07401 19.9064C4.91927 19.9732 4.95055 19.9032 4.9322 20.1476C5.05553 20.0918 5.0245 20.162 5.07401 19.9064ZM45.5948 25.1657C45.6402 24.9508 45.6767 25.0038 45.4717 24.9388C45.3863 25.1812 45.35 25.1348 45.5948 25.1657ZM44.226 25.3694C44.2986 25.4307 44.2251 25.4419 44.5886 25.373C44.5915 25.3728 44.6007 25.3149 44.5964 25.3144C44.2598 25.2608 44.3325 25.267 44.226 25.3694V25.3694ZM43.5745 22.8592C43.4755 22.9336 43.4687 22.8749 43.65 23.1341C43.7327 23.0719 43.7371 23.1287 43.5745 22.8592ZM22.9487 39.7304C22.8931 39.7368 22.8344 39.7433 22.7759 39.75C22.7793 39.7832 22.7733 39.843 22.7871 39.8455C23.0047 39.8832 22.9618 39.8277 22.9487 39.7304ZM22.4896 41.6624C22.2644 41.4638 22.2634 41.4653 22.0292 41.4755C22.0448 41.6222 22.0599 41.7645 22.0738 41.8956C22.3413 41.9263 22.3413 41.9263 22.4896 41.6624ZM44.0099 25.9276C43.2843 25.8465 43.6016 25.5731 43.5182 25.534C43.0313 25.3079 43.0979 25.8329 43.4777 26.2956C43.6432 26.1813 43.7876 26.0814 44.0099 25.9276V25.9276ZM46.1752 25.5966C45.7998 24.7426 45.991 25.5397 44.9823 25.9561C44.8994 25.9903 44.8369 26.1063 44.6529 26.3059C45.2474 26.1116 45.647 25.8408 46.1752 25.5966ZM4.74075 19.4041C4.41285 19.4333 4.41284 19.4333 4.29525 19.7151C4.62292 19.6402 4.71249 19.4784 4.74075 19.4041ZM24.7532 1.38714C24.5519 1.68156 24.5847 1.59852 24.6522 1.70211C24.7194 1.64073 24.6937 1.72337 24.7548 1.38499C25.0132 1.72882 24.9559 1.69302 25.0267 1.62643C24.9354 1.54658 24.8442 1.46673 24.7532 1.38714ZM44.1415 21.3148C44.0026 20.9797 43.8958 20.7925 44.7711 20.5738C45.0137 20.5132 45.0012 20.5912 45.535 21.4061C45.7764 21.4107 46.1225 21.3827 46.0866 21.6576C45.9831 22.4487 45.6842 22.2416 45.483 22.4208C45.3202 22.5664 45.2113 22.8981 45.5122 22.9242C45.7063 22.941 46.2368 22.8688 46.0565 23.2223C45.8076 23.7103 45.3777 22.9264 45.5673 23.4808C45.3151 23.7325 45.0972 23.638 44.8556 23.5154C44.3492 24.7931 44.6692 23.795 45.1541 24.4831C44.923 24.497 44.8287 24.6186 44.8278 24.8665C44.9994 24.8355 45.144 24.8098 45.3564 24.7715C45.0743 24.407 44.9904 24.5992 45.8411 23.8976C46.0352 23.9296 46.256 23.9662 46.4729 24.002C46.519 24.2342 46.5653 24.4281 46.4239 24.6678C46.063 25.2793 46.7671 25.0952 46.2101 25.7873C45.6982 26.4232 46.0356 26.3662 45.4904 26.6477C45.065 26.8675 44.6083 27.1186 44.3788 27.1074C43.8221 27.0807 43.5966 26.8349 43.5984 26.7949C43.9514 26.7814 44.3042 26.7682 44.6811 26.7539C44.6619 26.5423 44.5326 26.4806 44.3483 26.4907C42.9137 26.5692 43.1603 26.5455 42.5472 27.3898C42.3894 26.892 42.3666 26.8704 42.4143 26.7877C42.7727 26.1661 43.0122 25.8371 42.8962 25.7888C42.6735 25.6965 42.5643 25.8539 42.4364 25.9634C42.003 26.3346 41.9288 26.2534 41.8809 26.5765C41.8414 26.8415 41.7867 27.1002 41.1682 27.2965C41.1641 27.1924 41.1604 27.0887 41.1563 26.9851C40.8948 27.0446 40.9014 26.7043 40.6443 26.7207C39.9537 26.7651 39.9635 27.063 39.9391 26.9974C39.8303 26.3088 39.8601 26.5658 39.8483 25.9748C39.7359 26.0573 39.6329 26.0981 39.5995 26.164C39.5202 26.3202 39.4608 26.4742 39.2646 26.5198C38.6022 26.6747 38.7621 26.6251 38.3261 26.4208C37.831 26.1891 38.0451 26.4924 36.5833 26.1455C34.5453 25.6617 34.8052 25.6519 33.1213 25.3848C33.1001 25.3814 26.902 24.9349 26.8765 24.9353C26.7005 25.6779 27.3647 30.6731 27.0114 32.5704C26.9441 32.9323 26.5183 32.973 26.8517 33.3014C27.0608 33.5067 27.0857 33.1214 26.8886 34.1252C27.3268 34.5906 27.3881 34.4968 26.7819 34.4883C26.6339 34.6834 26.974 34.6436 26.9654 34.8086C26.9496 35.1112 26.6988 35.0946 26.6447 35.0158C26.5146 34.8262 26.7311 34.8927 26.3744 34.5138C26.1586 34.7171 26.1051 34.9244 26.1011 35.18C26.6436 35.3737 27.1327 35.4988 26.9513 36.115C26.8956 36.3037 27.0481 36.5158 27.1051 36.7183C27.0563 36.8032 26.9929 36.8252 27.0626 36.755C27.1292 36.688 27.102 36.6209 27.2287 37.6447C26.1628 37.6627 26.6124 37.7703 26.0168 37.5806C25.9014 38.002 26.2671 38.0125 26.4653 38.1728C26.2895 38.6117 26.168 38.5909 26.9364 38.252C27.7995 38.5834 27.2081 39.0226 26.7266 39.4198C26.6678 39.5288 27.0614 39.6432 26.6773 39.782C26.2135 40.8066 26.1179 40.7217 26.8825 40.2182C27.3699 40.3518 26.9472 40.8369 26.4039 41.7699C25.6614 41.6093 25.8723 41.679 25.6725 41.5026C25.983 40.9718 25.8537 41.1748 25.8886 41.2022C26.0219 41.3069 26.0391 41.2311 26.0256 41.2201C25.7558 40.9959 25.5517 41.5458 25.2382 40.6644C25.0639 40.913 25.3021 40.9056 25.3575 41.004C25.0866 41.256 25.0866 41.256 25.1619 41.527C25.1873 41.4232 25.1841 41.7916 24.9901 41.9484C24.7565 42.1371 24.4873 41.9888 24.6296 41.7208C24.6453 41.691 24.7523 41.5568 24.7073 41.5605C24.0938 41.6142 24.6346 40.873 24.6411 40.8498C24.6757 40.7236 24.6552 40.5923 24.6591 40.4456C23.574 40.5481 24.0673 40.578 23.8633 40.9463C23.4228 40.9458 23.4739 40.8988 23.3011 41.1533C23.2498 41.2292 23.4273 41.2871 23.5391 41.2115C24.1459 40.7977 23.6291 40.9875 23.9163 40.7777C23.9341 40.8133 23.9773 40.8564 23.9653 40.8825C23.6711 41.51 23.6038 41.2027 24.1009 41.8943C23.774 42.7423 23.8834 42.6314 23.5863 42.4958C23.5401 42.5958 23.493 42.5702 23.8308 42.5997C23.0112 42.9621 23.1096 42.2217 22.5214 42.8072C22.0415 42.697 22.1315 41.9519 21.5157 41.7756C21.253 41.7008 21.2856 41.4093 21.3435 41.152C21.4187 41.1987 21.5121 41.3439 21.5349 41.456C21.8175 41.4487 21.7022 41.0821 21.6806 41.0472C21.16 40.1897 21.0928 41.3425 21.0004 40.241C20.9674 40.4011 21.1155 39.9344 21.4349 39.9823C21.7005 40.0218 22.008 39.7874 22.252 39.9542C22.1503 39.9994 22.0217 39.9632 21.9464 40.1138C22.0322 40.2839 22.1714 40.4402 21.9632 40.6966C21.8827 40.7959 21.9653 40.9064 22.0837 40.9355C22.5968 41.0618 22.0198 40.7185 22.4445 40.4549C22.8295 40.2164 22.5436 40.1324 22.2253 39.9547C22.247 39.4674 22.3916 39.6544 21.4895 39.1068C21.1638 39.2357 20.8127 39.3164 20.5214 39.0484C21.4208 37.6289 19.9016 38.1488 21.2754 37.2302C21.1596 37.0012 20.8984 37.209 20.7571 37.1437C20.4651 36.9543 20.3057 36.6784 20.4085 36.3077C20.5857 35.6707 20.1004 36.0685 19.973 34.4135C19.8696 33.0686 19.4061 24.8909 19.3249 24.744C16.7899 24.6609 9.2855 26.7616 3.78518 27.0509C-0.132833 27.2568 0.0833452 21.9164 1.87565 21.453C2.82161 21.2081 2.21169 20.4039 2.55321 20.2073C2.96383 19.9709 3.09875 19.5398 3.35094 19.4603C3.65428 19.3641 3.82683 19.134 3.96487 18.8872C4.24864 18.8341 4.49775 18.7869 4.74598 18.7402C4.25339 19.1187 4.88921 19.2316 4.72092 18.7417C5.19062 18.5859 5.39476 18.9065 5.62234 19.1373C6.40248 18.883 6.44821 18.9021 6.67482 19.5681C6.69801 19.5621 17.0134 17.8723 18.8151 17.4665C19.8449 17.2345 17.5852 6.57064 19.6431 4.36154C19.9519 4.03027 20.8904 2.33518 21.7271 2.44702C22.8394 2.5957 22.521 1.43599 23.0297 1.49708C23.5146 1.55527 23.3229 1.23632 23.9681 1.12116C24.1948 1.0807 24.3996 1.08358 24.6121 0.876327C24.7633 0.729329 25.0091 0.837742 25.083 1.03955C25.1404 1.19508 25.0433 1.38852 25.261 1.26441C25.8118 0.949099 25.7356 1.04257 25.9188 1.61584C26.025 1.94864 25.9458 1.90746 26.3444 1.74956C26.8867 2.06957 26.8095 1.90444 26.648 2.52479C26.6913 2.84724 27.0717 2.5275 27.0983 2.82633C27.1068 2.92149 27.3291 2.91785 27.3237 3.08651C27.321 3.16869 27.3283 3.24935 27.3303 3.3179C26.7898 3.64599 27.0354 2.51778 26.4127 3.12896C26.2729 2.8429 25.9621 2.96008 25.7077 2.94501C25.7671 2.8202 25.8606 2.69331 25.877 2.57114C25.8929 2.45276 26.1633 2.39526 26.0018 2.24961C25.6655 2.57806 25.6655 2.57806 25.1239 2.52583C25.0775 2.42368 25.1727 2.23904 24.9874 2.21711C25.0138 2.05734 25.0236 2.10138 24.9315 2.0726C25.0817 2.42472 24.7115 2.51662 24.8472 3.01133C25.8283 2.79521 25.682 2.71859 25.9269 3.63204C26.4894 3.37148 26.0959 3.15277 26.4138 3.10595C26.7816 3.58204 26.7795 3.6255 26.3613 4.19176C26.325 3.93768 26.358 3.99411 26.1695 4.03667C26.1875 4.2687 26.4376 4.14841 26.7365 4.05612C27.3085 4.74141 26.6997 5.7463 26.4258 5.8998C25.7103 6.2998 26.2281 9.66521 26.3308 14.4331C26.3448 15.0871 26.3701 17.2478 26.5379 17.5707C28.3405 17.6286 39.8879 17.9684 39.9072 19.7965C39.9861 19.807 40.0828 19.8569 40.1536 19.8232C40.658 19.5831 40.8105 19.9077 41.0147 20.0316C41.3562 19.9129 42.0379 19.5467 40.9878 20.646C41.201 21.0339 41.2003 21.1535 41.437 20.9895C42.8042 20.0434 42.2528 20.7664 42.7818 20.5958C43.1007 20.493 43.3302 20.6428 43.5794 20.673C43.6326 20.9301 43.3618 21.1575 43.4877 21.3695C43.3994 21.3432 43.3249 21.3618 43.3261 21.4762C43.3262 21.4986 43.4166 21.5035 43.4652 21.516C43.4344 20.9603 44.318 21.7395 44.1415 21.3148" fill="#FF4D00"/>
</svg>
