<svg width="83" height="40" viewBox="0 0 83 40" fill="none" xmlns="http://www.w3.org/2000/svg">
<path fill-rule="evenodd" clip-rule="evenodd" d="M7.27222 13.8924C7.26154 13.8848 7.24442 13.8791 7.24175 13.8692C7.23694 13.8524 7.25085 13.8427 7.26902 13.8467C7.27544 13.8482 7.28345 13.853 7.28666 13.8587C7.29575 13.8748 7.29041 13.8865 7.27222 13.8924ZM2.8406 14.1871C2.83953 14.1573 2.85557 14.1398 2.88337 14.141C2.89674 14.1414 2.91705 14.153 2.92133 14.1646C2.93149 14.1905 2.91652 14.212 2.8914 14.22C2.86413 14.2287 2.84702 14.214 2.8406 14.1871ZM24.7405 20.2084C24.7469 20.1965 24.7539 20.1851 24.7603 20.1736C24.7699 20.1853 24.7844 20.1956 24.787 20.2085C24.7924 20.2311 24.7902 20.2581 24.7566 20.2499C24.748 20.2479 24.7453 20.2226 24.7405 20.2084ZM24.4331 10.2449C24.4614 10.2496 24.4721 10.2706 24.4737 10.2944C24.4753 10.3186 24.4657 10.3465 24.439 10.3463C24.4117 10.346 24.4069 10.3166 24.4037 10.2933C24.4 10.2692 24.4005 10.2465 24.4331 10.2449ZM30.9161 8.24506C30.9145 8.21376 30.9338 8.2 30.9605 8.19957C30.9963 8.19908 31.0279 8.21376 31.0343 8.25189C31.0396 8.28211 31.0134 8.29399 30.9889 8.29679C30.9509 8.30109 30.9263 8.28168 30.9161 8.24506ZM29.294 8.60006C29.2662 8.59313 29.2475 8.58028 29.2577 8.54941C29.2668 8.52457 29.2855 8.51037 29.3117 8.51086C29.3363 8.51118 29.3625 8.52011 29.3603 8.54834C29.3571 8.5863 29.3267 8.59802 29.294 8.60006ZM18.4831 11.9699C18.4772 11.9567 18.4644 11.9411 18.4676 11.9308C18.4713 11.9185 18.4895 11.9026 18.5013 11.9025C18.536 11.9023 18.5371 11.9258 18.5205 11.9483C18.5125 11.959 18.4959 11.9629 18.4831 11.9699ZM26.9283 9.49694C26.924 9.54705 26.9063 9.56297 26.8807 9.55958C26.8716 9.55835 26.8604 9.5364 26.8593 9.52318C26.8572 9.50016 26.863 9.47268 26.8914 9.47145C26.9192 9.47021 26.9283 9.49355 26.9283 9.49694ZM25.8242 20.0366C25.7783 20.0354 25.7558 20.0053 25.7537 19.962C25.7521 19.9341 25.7772 19.9221 25.8023 19.9246C25.8429 19.9283 25.8889 19.9446 25.8969 19.9835C25.9028 20.0143 25.8568 20.0261 25.8242 20.0366ZM29.8538 8.60485C29.8805 8.60668 29.9009 8.61996 29.8987 8.64712C29.8961 8.68712 29.8645 8.69944 29.8314 8.6967C29.8046 8.69449 29.7576 8.70175 29.7758 8.64884C29.7875 8.61593 29.8212 8.60732 29.8538 8.60485ZM20.4784 11.3856C20.4714 11.3399 20.4768 11.3065 20.5211 11.3047C20.5489 11.3036 20.5714 11.3306 20.5644 11.355C20.5559 11.3846 20.5308 11.4096 20.5131 11.4367C20.5003 11.4175 20.4869 11.3984 20.4784 11.3856ZM34.8802 6.79024C34.8756 6.74352 34.9112 6.73948 34.9422 6.7333C34.9738 6.72717 35.0126 6.71894 35.029 6.75368C35.0461 6.78981 35.0172 6.81159 34.9847 6.82191C34.9436 6.83487 34.9057 6.83224 34.8802 6.79024ZM19.4112 11.7703C19.299 11.7588 19.2209 11.7508 19.1423 11.7425C19.2262 11.7055 19.3107 11.5901 19.4112 11.7703ZM3.08707 14.1592C3.12395 14.1112 3.17314 14.1367 3.20736 14.1157C3.25922 14.0841 3.31001 14.0896 3.3223 14.1501C3.33728 14.2235 3.26778 14.2211 3.2234 14.2211C3.17796 14.2212 3.12235 14.2277 3.08707 14.1592ZM25.5093 10.0209C25.4029 10.0476 25.2987 10.1133 25.1843 10.0416C25.303 10.0961 25.3896 9.93292 25.5093 10.0209ZM11.3809 13.1924C11.2906 13.2019 11.2344 13.1792 11.1767 13.2003C11.1361 13.2153 11.0944 13.2054 11.0783 13.1546C11.0671 13.1189 11.0767 13.089 11.1083 13.0688C11.1489 13.0425 11.1874 13.0063 11.2366 13.0592C11.2745 13.1001 11.3189 13.1355 11.3809 13.1924ZM21.0045 11.2527C21.0622 11.1927 20.9831 11.079 21.0708 11.054C21.1697 11.0258 21.1563 11.1766 21.2557 11.1962C21.1686 11.255 21.1044 11.2868 21.0045 11.2527ZM47.7441 36.9022C47.7904 37.0443 47.7685 37.1572 47.7519 37.2688C47.747 37.3016 47.7163 37.322 47.6773 37.3143C47.6387 37.3066 47.6221 37.2811 47.6269 37.2438C47.6414 37.1303 47.679 37.0255 47.7441 36.9022ZM17.2946 12.23C17.2572 12.1472 17.3058 12.0869 17.2828 12.0201C17.2663 11.9725 17.3208 11.9285 17.3748 11.9218C17.4234 11.9154 17.4801 11.9157 17.5079 11.9668C17.5309 12.0103 17.4919 12.044 17.4716 12.0791C17.4325 12.1443 17.3839 12.1969 17.2946 12.23ZM25.0693 20.1771C25.1629 20.2474 25.2367 20.3394 25.3853 20.2507C25.4505 20.2119 25.581 20.2525 25.6473 20.3513C25.589 20.4692 25.4794 20.5117 25.3757 20.4686C25.2393 20.4123 25.0944 20.3652 24.9758 20.2701C24.957 20.2548 24.9357 20.2373 24.9266 20.2161C24.9137 20.1848 24.9132 20.1471 24.9458 20.1263C24.979 20.1051 25.0116 20.0625 25.0565 20.09C25.0896 20.1104 25.087 20.1448 25.0613 20.1748C25.0517 20.0965 25.1169 20.0744 25.1768 19.9904C25.1752 20.1141 25.2174 20.2107 25.0693 20.1771ZM13.2885 12.7999C13.234 12.8416 13.1859 12.8444 13.1522 12.7748C13.1346 12.7387 13.1485 12.7087 13.1853 12.7019C13.2666 12.6868 13.2752 12.7478 13.2827 12.8064C13.35 12.852 13.4211 12.8064 13.4901 12.8144C13.5115 12.7502 13.5339 12.6775 13.6211 12.6982C13.7328 12.7249 13.7681 12.8163 13.7831 12.9186C13.6451 12.9708 13.5992 12.7978 13.4826 12.8066C13.465 12.8899 13.4072 12.9157 13.3324 12.9013C13.2778 12.8908 13.2837 12.8427 13.2885 12.7999ZM22.5079 25.5504C22.5528 25.5356 22.6009 25.5522 22.6255 25.5772C22.7287 25.6816 22.7773 25.6032 22.8212 25.5244C22.8869 25.5274 22.8859 25.5714 22.8949 25.6117C22.9195 25.7122 22.988 25.7226 23.0206 25.635C23.0762 25.4859 23.1772 25.6103 23.1751 25.6194C23.1387 25.7675 23.2788 25.708 23.3221 25.7498C23.3542 25.8395 23.1879 25.9032 23.2799 25.9738C23.3873 26.0561 23.4034 25.908 23.4617 25.8635C23.5638 25.7854 23.6525 25.7265 23.8028 25.7953C24.0487 25.9078 24.3128 25.979 24.5678 26.0708C24.6149 26.0875 24.6726 26.1094 24.6961 26.1472C24.7656 26.2599 24.8368 26.2992 24.9587 26.2151C24.9854 26.1966 25.0527 26.2321 25.0993 26.2492C25.7344 26.4844 26.3722 26.713 27.0026 26.9604C27.2346 27.0515 27.4693 27.1336 27.7003 27.2257C27.9409 27.3216 28.1799 27.4213 28.4199 27.5181C28.661 27.6154 28.9032 27.7098 29.1433 27.8087C29.2213 27.8408 29.3272 27.8495 29.2828 27.9914C29.2689 28.0351 29.3561 28.0459 29.3726 28.0138C29.4256 27.9105 29.4903 27.9511 29.5598 27.9815C29.8576 28.113 30.1714 28.2188 30.4473 28.3876C30.5563 28.4546 30.6584 28.4456 30.759 28.4848C30.8627 28.5251 30.9466 28.5952 31.0546 28.637C31.4101 28.7748 31.7871 28.873 32.0945 29.124C32.1576 29.1758 32.2682 29.1396 32.3549 29.1846C32.5185 29.27 32.6965 29.3279 32.8574 29.4169C33.0852 29.5425 33.3316 29.6246 33.561 29.7441C33.6857 29.8091 33.8593 29.8163 33.8969 29.9996C33.9021 30.0246 33.9133 30.0262 33.9334 30.0108C34.0812 29.8977 34.1662 30.0469 34.2759 30.0945C34.4046 30.1502 34.5351 30.2027 34.6623 30.2621C34.7442 30.3004 34.8334 30.328 34.8991 30.3923C34.8951 30.4886 34.8168 30.413 34.787 30.4487C34.7461 30.4976 34.7116 30.5456 34.7811 30.5964C34.828 30.6308 34.8767 30.6394 34.9015 30.5723C34.9563 30.4246 35.0462 30.4377 35.1601 30.5022C35.3055 30.5845 35.4524 30.666 35.6053 30.732C35.6994 30.7726 35.7222 30.8502 35.771 30.9237C35.8302 31.0129 35.9298 30.8406 36.0176 30.9223C36.0414 30.9444 36.0768 30.9536 36.1068 30.9691C36.5588 31.2026 37.0091 31.4397 37.4637 31.6681C37.6233 31.7483 37.7275 31.923 37.9287 31.9334C37.9728 31.9357 37.9792 31.9947 37.9827 32.0376C37.986 32.0768 38.0091 32.1104 38.0444 32.0931C38.1721 32.03 38.2298 32.086 38.2572 32.2063C38.3942 32.1692 38.4817 32.3001 38.6044 32.3095C38.6794 32.3153 38.7047 32.3584 38.7044 32.4265L38.6964 32.4177C38.8991 32.3914 39.0379 32.5341 39.197 32.617C39.267 32.6534 39.3287 32.7107 39.4014 32.7488C39.4507 32.7747 39.5044 32.7951 39.4734 32.88C39.4242 33.0147 39.505 33.0184 39.6061 32.9957C39.7508 32.9632 39.8814 32.9926 40.0022 33.0838C40.2138 33.2438 40.4747 33.3141 40.6945 33.46C40.7771 33.5146 40.8776 33.543 40.9381 33.6297L40.9331 33.6254C41.2332 33.7359 41.4735 33.9551 41.7621 34.0874C41.8854 34.1439 41.8393 34.2828 41.8772 34.3813C41.8857 34.4028 41.8341 34.4518 41.8574 34.4952C41.8685 34.5154 41.888 34.5358 41.9084 34.5447C41.9335 34.5558 41.9592 34.5405 41.9704 34.5155C41.98 34.4934 41.983 34.4681 41.9877 34.4441C42.0005 34.38 42.0095 34.2812 42.0878 34.3058C42.1616 34.3289 42.3132 34.3323 42.2564 34.4957C42.2491 34.5168 42.2636 34.5452 42.2664 34.5702C42.2727 34.6285 42.2738 34.7143 42.3521 34.691C42.4347 34.6665 42.3639 34.5934 42.3568 34.5249C42.4667 34.5317 42.5728 34.5136 42.5813 34.6799C42.584 34.733 42.635 34.7924 42.7086 34.77C42.8487 34.7277 42.9488 34.8078 43.0576 34.8711C43.6679 35.2256 44.2654 35.6005 44.853 35.9919C45.0162 36.1006 45.025 36.1353 44.9457 36.3842C45.0049 36.4665 45.0834 36.279 45.1308 36.3938C45.167 36.4813 45.2294 36.5801 45.1183 36.669C45.0869 36.6942 45.0711 36.7382 45.0885 36.8038C45.1984 36.7806 45.3234 36.9616 45.4394 36.6826C45.443 36.8629 45.4535 36.9595 45.4486 37.0603C45.4387 37.2646 45.4475 37.2674 45.6649 37.2865C45.8308 37.3012 45.8308 37.3012 45.9378 37.2273C45.9341 37.3944 46.0192 37.5609 45.8864 37.7097C45.8678 37.7305 45.8778 37.7557 45.9009 37.7711C45.9585 37.8093 45.9894 37.7616 46.0508 37.6836C46.0363 37.9662 46.1135 38.2098 45.9277 38.4186C45.8704 38.4828 45.867 38.5644 45.935 38.6225C46.0343 38.7074 46.0343 38.7984 46.0047 38.9176C45.9735 39.0438 46.0526 39.1437 46.1787 39.1835C46.3211 39.2283 46.4052 39.1863 46.4428 39.0415C46.4868 38.8721 46.4983 38.6964 46.5117 38.5176C46.5824 38.5413 46.5821 38.5875 46.5852 38.6274C46.6085 38.9326 46.5712 39.2311 46.4733 39.5201C46.4244 39.6644 46.4018 39.7997 46.5253 39.9178C46.6696 40.056 46.8464 40.0169 46.8786 39.8208C46.9645 39.2969 47.1568 38.7932 47.1635 38.2539C47.1656 38.0866 47.2065 37.9199 47.2291 37.7529C47.238 37.6858 47.2664 37.6531 47.3417 37.6468C47.5556 37.6289 47.5553 37.6247 47.5849 37.4045C47.6537 37.3654 47.7 37.4762 47.7682 37.4338C47.8272 37.3972 47.8144 37.3294 47.8277 37.2747C47.8457 37.2015 47.8578 37.1262 47.8644 37.051C47.8849 36.8155 47.9041 36.5798 48.0291 36.3707C48.0758 36.2921 48.0511 36.2054 48.0634 36.1233C48.0741 36.0517 48.0617 35.9979 48.1682 36.0294C48.2092 36.0418 48.2052 35.9851 48.1924 35.9374C48.1222 35.6752 48.0871 35.4116 48.2514 35.1676C48.2787 35.127 48.2839 35.0941 48.2641 35.0526C48.1924 34.9015 48.215 34.7459 48.2195 34.5846C48.225 34.3846 48.1758 34.1831 48.1494 33.9823C48.136 33.8818 48.1157 33.7819 48.1076 33.6811C48.0863 33.4167 48.0148 33.1744 47.871 32.9459C47.7743 32.7922 47.7209 32.6105 47.6516 32.4398C47.6328 32.3937 47.6216 32.3427 47.642 32.2917C47.6884 32.1765 47.6519 32.1135 47.5268 32.1032C47.4689 32.0982 47.4344 32.0576 47.4244 32.006C47.3941 31.8464 47.2712 31.743 47.1967 31.6105C47.1635 31.5514 47.1243 31.5084 47.0592 31.5364C46.906 31.6028 46.818 31.5295 46.758 31.4019C46.7178 31.3162 46.6753 31.2616 46.5668 31.2867C46.5075 31.3005 46.4387 31.2583 46.4159 31.2108C46.3098 30.9893 46.0719 30.9614 45.8953 30.8498C45.7235 30.7411 45.5873 30.6266 45.5357 30.4252C45.5297 30.402 45.5093 30.3828 45.4957 30.3616C45.463 30.3105 45.4771 30.2042 45.3793 30.2286C45.2796 30.2534 45.3075 30.3206 45.3576 30.3814C45.3609 30.3857 45.3463 30.4152 45.3352 30.4192C45.3006 30.4318 45.2621 30.4184 45.2462 30.3911C45.2007 30.313 45.1785 30.2216 45.0683 30.1983C45.0042 30.1847 44.9721 30.1115 44.8716 30.1526C44.7743 30.1928 44.6862 30.0832 44.6792 29.9625C44.6762 29.9141 44.6729 29.8657 44.6692 29.8105C44.5357 29.9045 44.5357 29.9045 44.4299 29.7937C44.3785 29.7398 44.3375 29.6677 44.2511 29.7619C44.2137 29.8024 44.1559 29.7563 44.1149 29.7296C43.9404 29.6157 43.7639 29.5041 43.5955 29.3817C43.5078 29.3181 43.526 29.2209 43.5593 29.1304C43.5818 29.069 43.5606 29.0306 43.4981 29.0218C43.4396 29.0136 43.4291 29.0578 43.4304 29.1027C43.4315 29.1471 43.4267 29.2076 43.3737 29.182C43.2287 29.1116 43.0414 29.1149 42.9404 28.9729C42.8733 28.8784 42.8321 28.7755 42.6988 28.7534C42.6646 28.7477 42.6704 28.6836 42.6795 28.6395C42.6882 28.5965 42.6542 28.5711 42.6282 28.6103C42.5584 28.7161 42.4717 28.5969 42.3812 28.6382C42.292 28.6788 42.2521 28.5415 42.2286 28.4509C42.2137 28.3936 42.2374 28.2968 42.1204 28.3348H42.1252C42.0541 28.2837 41.9707 28.2764 41.888 28.2646C41.8238 28.2553 41.7743 28.2314 41.7974 28.1513C41.7393 28.166 41.6791 28.1861 41.6569 28.1033C41.6531 28.089 41.6577 28.0601 41.6658 28.0569C41.7563 28.0196 41.7072 28.1481 41.7698 28.1476C41.7776 28.1475 41.7858 28.1519 41.7936 28.1542C41.8938 28.0842 41.7948 27.9332 41.9104 27.8641C41.9297 27.8527 41.9039 27.7996 41.8708 27.7843C41.8309 27.7659 41.7802 27.7593 41.7667 27.8115C41.7086 28.0348 41.4787 27.922 41.3527 28.0248C41.3045 28.0641 41.2026 27.985 41.1491 27.9105C41.0653 27.7945 40.982 27.6877 40.803 27.7283C40.7352 27.7437 40.6543 27.6823 40.7159 27.5769C40.7335 27.5469 40.7403 27.5138 40.7082 27.4861C40.5011 27.5818 40.455 27.5744 40.283 27.4023C40.2531 27.3722 40.2287 27.3295 40.1868 27.3268C40.0152 27.3167 40.0238 27.1967 40.0488 27.0605C39.8685 27.206 39.8684 27.2061 39.6882 27.1069C39.5998 27.0583 39.5139 27.0047 39.4232 26.9611C39.3295 26.9159 39.2475 26.8627 39.2126 26.7577C39.1745 26.6425 39.0613 26.5974 38.9747 26.5552C38.7271 26.4346 38.7238 26.4403 38.5749 26.2321C38.467 26.0813 38.3536 25.9233 38.113 26.0046C38.1784 26.1249 38.2895 26.1792 38.4166 26.2154C38.4472 26.2242 38.481 26.2508 38.4621 26.2908C38.4449 26.327 38.412 26.3165 38.3774 26.3063C38.1096 26.227 37.8758 26.0702 37.6169 25.9687C37.5227 25.9318 37.3404 25.9064 37.4051 25.7044C37.416 25.6706 37.3381 25.641 37.3087 25.6753C37.2372 25.7589 37.1679 25.7188 37.1096 25.6766C36.9794 25.5828 36.795 25.5648 36.7358 25.3639C36.7161 25.2977 36.586 25.242 36.4764 25.2693C36.2917 25.3152 36.1429 25.2601 36.054 25.0904C36.0277 25.0403 36.0021 25.0375 35.9607 25.0346C35.7483 25.0193 35.5846 24.9214 35.471 24.7395C35.4622 24.7253 35.4513 24.7017 35.4409 24.7013C35.2655 24.6956 35.1392 24.6099 35.0366 24.4714C34.9588 24.3663 34.9109 24.6151 34.8366 24.4992C34.7938 24.4324 34.77 24.3684 34.6732 24.3746C34.5275 24.3838 34.4017 24.3007 34.2635 24.2734C34.2389 24.2686 34.2085 24.2657 34.1926 24.2498C33.9917 24.0505 33.7128 24.0181 33.4696 23.9129C33.3188 23.8477 33.2664 23.6767 33.1344 23.6249C33.0119 23.5769 32.8521 23.6414 32.7446 23.513C32.7174 23.4804 32.6789 23.4495 32.635 23.4701C32.4912 23.5376 32.3976 23.4466 32.2982 23.3694C32.1907 23.2864 32.0736 23.2189 31.9464 23.1755C31.8224 23.1331 31.7459 23.0589 31.7336 22.9309C31.6555 22.913 31.6459 22.9779 31.6128 23.009C31.5385 23.0797 31.4706 23.0508 31.4198 22.9851C31.3743 22.9269 31.3631 22.8237 31.2829 22.8152C31.1696 22.8033 31.2727 22.6094 31.1241 22.6471C31.0311 22.6707 30.9343 22.6062 30.8541 22.6239C30.6494 22.669 30.5681 22.5445 30.4852 22.4042L30.4911 22.4096C30.4008 22.4162 30.3099 22.4227 30.219 22.4293C30.1778 22.3823 30.2318 22.3582 30.243 22.3236C30.2628 22.2644 30.2216 22.2347 30.1805 22.2585C30.0115 22.3565 29.8592 22.3728 29.7207 22.2065C29.6982 22.1793 29.6592 22.1903 29.6255 22.1946C29.5036 22.21 29.4133 22.1771 29.3785 22.0429C29.3716 22.0152 29.3357 21.9762 29.3117 21.975C29.1117 21.964 29.0994 21.7981 29.0839 21.6677C29.07 21.5524 29.0225 21.5128 28.9102 21.4948C29.0326 21.5958 28.9856 21.7097 28.9428 21.8103C28.9134 21.8794 28.8492 21.9035 28.7872 21.8219C28.7343 21.7515 28.6765 21.6705 28.6429 21.6019C28.5798 21.4717 28.4172 21.5189 28.3648 21.3954C28.3547 21.371 28.2863 21.4008 28.2814 21.4528C28.2782 21.4954 28.3205 21.569 28.2317 21.5496C28.1783 21.538 28.0916 21.5096 28.1686 21.4124C28.2109 21.3594 28.1478 21.3234 28.1211 21.3525C28.0189 21.4641 27.9409 21.3885 27.8617 21.3323C27.812 21.2969 27.7671 21.271 27.7024 21.2773C27.6131 21.286 27.4875 21.3409 27.5164 21.1547C27.5206 21.126 27.4683 21.1128 27.4346 21.1298C27.3913 21.1519 27.3592 21.1997 27.2966 21.1855C27.2047 21.1405 27.3709 21.0727 27.287 21.0239C27.2004 21.0208 27.217 21.1349 27.1443 21.1501C27.1314 21.1474 27.1074 21.1491 27.1026 21.1401C27.0341 21.015 26.9122 20.9935 26.7898 20.9593C26.6968 20.933 26.5631 20.9193 26.6615 20.7461C26.7048 20.6694 26.6235 20.6157 26.5268 20.6519C26.4979 20.6628 26.4706 20.7279 26.4535 20.7018C26.3375 20.5262 26.2637 20.673 26.1691 20.7251C26.0675 20.7812 25.99 20.7489 25.9306 20.6225C25.8451 20.44 25.7366 20.2774 25.5799 20.1323C25.7039 20.0883 25.8034 20.096 25.9028 20.1846C25.9761 20.2495 26.0087 20.2326 25.9991 20.1192C25.9873 19.9834 26.052 19.9261 26.1798 19.9142C26.238 19.9088 26.2969 19.909 26.3551 19.9065C26.4669 19.902 26.4936 19.9327 26.4193 20.0317C26.399 20.059 26.4519 20.0771 26.4834 20.0838L26.4786 20.0854C26.6711 19.8216 26.9539 19.9269 27.2052 19.9105C27.271 19.9062 27.287 19.9918 27.2929 20.0451C27.3004 20.1094 27.2891 20.1784 27.2731 20.2422C27.2533 20.321 27.2469 20.3903 27.3223 20.4472C27.4239 20.4055 27.4212 20.2835 27.4939 20.2147C27.5394 20.1715 27.4495 20.1192 27.4356 20.0645C27.41 19.9595 27.4533 19.8966 27.5554 19.8989C27.5827 19.8997 27.6158 19.896 27.6238 19.9476C27.6474 20.0998 27.6511 20.0991 27.796 20.0618L27.7938 20.0678C27.9099 19.9047 27.9099 19.9074 28.1339 19.9039C28.2483 19.902 28.3622 19.8858 28.4766 19.8806C28.5343 19.8778 28.5942 19.8758 28.6493 19.8897C28.7391 19.9124 28.8102 19.9582 28.9155 19.888C29.0085 19.8259 29.1443 19.8667 29.2566 19.888C29.3293 19.9019 29.3967 19.9207 29.4732 19.9218C29.5175 19.9224 29.5427 20.0116 29.6319 19.9737C29.6998 19.9451 29.7009 20.0485 29.7362 20.0891C29.7651 20.1224 29.802 20.1513 29.8388 20.1048C29.8699 20.0654 29.8934 20.0168 29.8217 19.9888C29.8479 19.9235 29.749 19.9347 29.7592 19.8655C29.8009 19.8823 29.8602 19.8407 29.8832 19.9008C29.8982 19.9395 29.8463 19.9641 29.8169 19.9888C30.1142 19.8301 30.4216 19.8272 30.7402 19.9175C30.8466 19.9477 30.9675 20.0097 31.061 19.8767C31.0717 19.862 31.1081 19.8618 31.1327 19.8618C31.4086 19.8607 31.6866 19.8419 31.9603 19.8668C32.2014 19.8888 32.4372 19.8812 32.6762 19.8613C32.8515 19.8469 33.0285 19.8614 33.2044 19.857C33.3258 19.854 33.3867 19.9682 33.4936 19.9953C33.584 20.0182 33.5819 20.0283 33.6032 19.9056C33.6123 19.8514 33.6939 19.8258 33.725 19.8818C33.7879 19.9945 33.8426 19.9857 33.913 19.9029C33.9717 19.8338 34.0494 19.8491 34.1231 19.8488C34.5839 19.8472 35.045 19.8373 35.5053 19.8505C35.7338 19.857 35.9562 19.9026 36.1902 19.8526C36.3669 19.815 36.5584 19.8434 36.7431 19.8483C36.8461 19.851 36.8459 19.8565 36.8814 20.005C36.9689 20.0299 36.9056 19.7773 37.0498 19.9091C37.1237 19.8354 37.2179 19.8465 37.3095 19.8466C37.9886 19.8485 38.6677 19.8501 39.3468 19.8522C40.8422 19.8568 42.3374 19.8613 43.8327 19.8673C44.0081 19.8679 44.1827 19.8809 44.358 19.8962C44.5093 19.9093 44.6683 19.8591 44.8257 19.8705C44.9317 19.8784 45.0451 19.8411 45.1409 19.9226C45.1565 19.9358 45.1908 19.9405 45.211 19.9334C45.5126 19.8275 45.8161 19.8511 46.1192 19.9201C46.2152 19.942 46.2896 19.8742 46.3867 19.8803C46.8448 19.9085 47.3043 19.8409 47.764 19.9056C47.8898 19.9232 48.0272 19.8749 48.1618 19.8746C49.3548 19.8728 50.5479 19.8566 51.7406 19.8717C52.1453 19.8767 52.5483 19.848 52.9525 19.8579C53.3553 19.8675 53.7585 19.8574 54.1616 19.8551C54.5732 19.8526 54.9848 19.8497 55.3962 19.8458C55.7995 19.8421 56.2029 19.8258 56.6058 19.8363C56.8709 19.843 57.1357 19.8267 57.4029 19.8514C57.5489 19.865 57.714 19.8275 57.8721 19.8263C58.6104 19.8205 59.3489 19.8114 60.0871 19.8052C60.8085 19.7991 61.5299 19.7934 62.2511 19.7924C62.3268 19.7923 62.4663 19.721 62.4373 19.9141C62.4307 19.9579 62.5148 19.9645 62.5301 19.9235C62.5947 19.75 62.7385 19.777 62.8672 19.7836C63.2515 19.8034 63.6353 19.758 64.0215 19.7937C64.1594 19.8063 64.3131 19.8216 64.4515 19.7826C64.4659 19.8128 64.4807 19.8286 64.4785 19.8417C64.4683 19.9029 64.4044 19.9846 64.4994 20.0139C64.595 20.0436 64.5974 19.9565 64.6001 19.8861C64.6039 19.7852 64.671 19.7603 64.7558 19.766C65.2994 19.8023 65.8422 19.7492 66.3853 19.7563C66.5004 19.7577 66.6204 19.7357 66.7318 19.7884C66.7806 19.8116 66.8297 19.8125 66.8759 19.7846C66.937 19.7475 67.0105 19.7657 67.0697 19.7435C67.2145 19.6895 67.3356 19.8434 67.4897 19.7656C67.6245 19.6975 67.7872 19.7449 67.9374 19.7394C68.0878 19.7336 68.2383 19.731 68.3888 19.7293C68.5397 19.7275 68.6916 19.7313 68.8412 19.7261C69.1852 19.7144 69.5289 19.7051 69.8731 19.7148C69.9421 19.7168 70.0009 19.713 70.0472 19.782C70.0988 19.859 70.1773 19.8801 70.2226 19.7821C70.279 19.6605 70.385 19.6847 70.4596 19.7063C70.5601 19.7357 70.6684 19.7327 70.7641 19.7863C70.844 19.8311 70.9293 19.8684 70.981 19.7346C71.0045 19.6741 71.081 19.6829 71.1394 19.6821C71.6345 19.6748 72.1298 19.6671 72.6251 19.6628C72.7249 19.662 72.7967 19.7153 72.8793 19.7779C72.9666 19.8439 72.9924 19.6346 73.1214 19.6532C73.2687 19.6747 73.421 19.6646 73.571 19.661C73.6352 19.6593 73.6881 19.6674 73.7225 19.7253C73.7806 19.8228 73.7641 19.7236 73.7745 19.7048C73.788 19.6802 73.8236 19.661 73.8293 19.6782C73.9047 19.9011 73.9788 19.7594 74.0641 19.6852C74.1252 19.6321 74.2096 19.6512 74.2836 19.6551C74.7568 19.6791 75.231 19.656 75.7048 19.7089C75.8534 19.7256 76.0187 19.6924 76.1766 19.7036C76.2566 19.7091 76.3458 19.6798 76.4088 19.7642C76.4449 19.8125 76.4771 19.7801 76.5097 19.7497C76.5261 19.7343 76.5713 19.7201 76.5736 19.7238C76.6782 19.8948 76.7808 19.7915 76.9088 19.7489C76.9979 19.7193 77.1663 19.6829 77.2046 19.8756C77.2124 19.9155 77.2931 19.9274 77.3082 19.8886C77.3735 19.7216 77.5262 19.7749 77.6211 19.7877C78.068 19.8476 78.5201 19.8329 78.9659 19.8997C79.1872 19.9327 79.1909 19.925 79.2317 20.1513C79.2597 20.3067 79.3193 20.4611 79.235 20.6208C79.198 20.6907 79.2461 20.751 79.2979 20.7978C79.3606 20.8545 79.3737 20.9191 79.3605 21.0026C79.3205 21.2551 79.4349 21.3735 79.6909 21.3542C79.7144 21.3525 79.7379 21.3505 79.7643 21.3485C79.8114 21.4821 79.8208 21.6082 79.7869 21.7473C79.7413 21.9342 79.8231 22.0816 79.9748 22.1398C80.0961 22.1862 80.1829 22.1446 80.1896 22.0177C80.2059 21.7115 80.3249 21.4301 80.386 21.1352C80.4158 20.991 80.3912 20.8489 80.38 20.7066C80.37 20.5801 80.355 20.4544 80.3811 20.328C80.4201 20.1391 80.6062 20.0276 80.7511 20.1379C80.8705 20.2286 80.9611 20.2558 81.0862 20.1805C81.1032 20.1703 81.135 20.188 81.1599 20.1876C81.2776 20.1856 81.3023 20.3988 81.4795 20.3039C81.5744 20.2532 81.7046 20.3686 81.8312 20.3757C81.9356 20.3816 82.0067 20.4687 82.0271 20.5802C82.0408 20.6549 82.0477 20.731 82.0635 20.8051C82.1186 21.0644 82.2514 21.1164 82.4701 20.9664L82.4613 20.9756C82.407 20.8566 82.3893 20.7264 82.4148 20.6041C82.4584 20.395 82.4343 20.1839 82.4588 19.9744C82.4795 19.7974 82.4384 19.6211 82.3764 19.453C82.2917 19.2239 82.2913 18.9954 82.3753 18.7664C82.42 18.6446 82.3571 18.5352 82.3379 18.4207C82.3312 18.3805 82.3102 18.3341 82.3531 18.304C82.4077 18.2659 82.4459 18.3103 82.4838 18.3415C82.4963 18.3518 82.502 18.3704 82.5141 18.3815C82.6162 18.4753 82.6369 18.4708 82.6635 18.3399C82.6861 18.2288 82.7013 18.1163 82.724 17.9781C82.8541 18.0754 82.7979 18.2217 82.8743 18.3046C82.918 18.1614 82.9127 18.0506 82.8197 17.8507C82.7685 17.7405 82.7329 17.6488 82.8539 17.5656C82.9418 17.5053 82.9091 17.4141 82.9042 17.3336C82.8924 17.1398 82.8463 16.9506 82.8224 16.7578C82.7971 16.5535 82.8274 16.3624 82.9254 16.1971C83.0217 16.0349 82.9564 15.8665 82.9979 15.7057C83.0133 15.6457 82.9443 15.6344 82.8999 15.6115C82.7858 15.5527 82.7029 15.4726 82.662 15.3384C82.6243 15.2147 82.5273 15.116 82.4803 14.9894C82.4475 14.9013 82.4113 14.9989 82.3776 15.0181C82.345 15.0366 82.3137 15.0362 82.2911 15.0022C82.2755 14.9787 82.2819 14.9549 82.3001 14.9352C82.3172 14.9167 82.3383 14.9019 82.354 14.8824C82.5046 14.696 82.4971 14.6284 82.3125 14.4935C82.197 14.4091 82.1356 14.4152 82.005 14.525C81.8671 14.6408 81.7792 14.65 81.6462 14.5608C81.6258 14.547 81.5915 14.525 81.5934 14.5111C81.6228 14.304 81.5272 14.3432 81.409 14.4105C81.3959 14.4179 81.3445 14.3923 81.3443 14.3817C81.3428 14.227 81.237 14.2569 81.1357 14.2333C81.0411 14.2114 80.9691 14.1308 80.8498 14.1186C80.6444 14.0978 80.4418 14.0334 80.2496 13.9464C80.201 13.9245 80.1881 13.8993 80.1944 13.8524C80.2007 13.8055 80.2407 13.7606 80.2125 13.7149C80.157 13.6871 80.1558 13.7232 80.1413 13.7539C80.0532 13.939 80.0539 13.9357 79.8874 13.825C79.8081 13.7723 79.7404 13.7085 79.6179 13.7743C79.5166 13.8286 79.4124 13.736 79.3669 13.5979C79.3145 13.4389 79.278 13.4243 79.1507 13.5309C79.083 13.5875 79.0395 13.6593 78.9529 13.5477C78.8895 13.4661 78.8438 13.5178 78.8174 13.5963C78.8111 13.615 78.7814 13.6258 78.7635 13.6394C78.6863 13.5758 78.7296 13.4722 78.6748 13.4076C78.6485 13.3766 78.6162 13.3438 78.5704 13.3431C78.5102 13.342 78.5063 13.3887 78.5086 13.431C78.5118 13.494 78.5015 13.5111 78.448 13.4619C78.3678 13.388 78.3129 13.415 78.285 13.5124C78.2724 13.5562 78.251 13.5723 78.2053 13.59C77.9574 13.6859 77.9511 13.6991 77.7333 13.5227C77.6756 13.4759 77.6462 13.4708 77.589 13.4858C77.5371 13.4992 77.459 13.4704 77.4607 13.5642C77.4623 13.6579 77.5666 13.5758 77.5924 13.6371C77.5624 13.6957 77.5115 13.6761 77.4644 13.6717C77.1626 13.6431 76.8551 13.6814 76.5589 13.5801C76.4336 13.5372 76.2755 13.628 76.169 13.4835C76.15 13.4577 76.1133 13.5014 76.0854 13.5184C76.0005 13.5704 75.9096 13.5442 75.8188 13.5337C75.7324 13.5235 75.7782 13.3796 75.667 13.3921C75.6452 13.3946 75.6382 13.3401 75.6632 13.3074C75.69 13.2724 75.7115 13.2309 75.6515 13.2083C75.6111 13.1932 75.5961 13.2328 75.5761 13.2586C75.5133 13.3394 75.4797 13.4208 75.5707 13.4988C75.5424 13.5527 75.4951 13.5624 75.4583 13.5559C75.1986 13.5107 74.9318 13.5552 74.6739 13.4895C74.4587 13.4349 74.2466 13.5264 74.0281 13.5037C73.8877 13.4891 73.8046 13.4565 73.7893 13.313C73.7745 13.1744 73.6599 13.1784 73.5693 13.1615C73.4795 13.1449 73.469 13.2248 73.4501 13.2947C73.4786 13.2965 73.5035 13.3029 73.526 13.2983C73.5904 13.2847 73.6729 13.2445 73.6709 13.3588C73.6694 13.4477 73.5853 13.465 73.5222 13.4406C73.4146 13.3988 73.2847 13.5016 73.1906 13.3795C73.1653 13.3466 73.137 13.3883 73.1122 13.4096C73.0599 13.4543 73.0031 13.4891 72.9296 13.4519C72.8326 13.4027 72.884 13.3218 72.8844 13.2511C72.8845 13.2264 72.8789 13.2017 72.8728 13.1524C72.7961 13.1779 72.771 13.2597 72.7043 13.2852C72.6468 13.3071 72.6111 13.3904 72.5539 13.4087C72.4758 13.4334 72.494 13.308 72.4232 13.2897C72.3821 13.279 72.3379 13.2502 72.3082 13.2866C72.2527 13.3545 72.1682 13.3222 72.1029 13.3628C71.9917 13.4318 71.8728 13.4448 71.7536 13.3599C71.7229 13.338 71.6645 13.3057 71.6253 13.3716C71.5841 13.4412 71.3514 13.5096 71.2793 13.4823C71.2346 13.4653 71.2391 13.4298 71.2422 13.3993C71.2495 13.3268 71.2633 13.2551 71.2629 13.17C71.2069 13.2472 71.1708 13.355 71.0482 13.2952C71.0648 13.3364 71.0491 13.3719 71.0283 13.4062C71.0114 13.4338 70.9891 13.4621 70.9552 13.4424C70.9205 13.4227 70.9451 13.3866 70.9475 13.3579C70.9488 13.3429 70.9575 13.3286 70.963 13.3139C70.8851 13.4174 70.7697 13.4099 70.6592 13.4176L70.6663 13.4114C70.524 13.4939 70.3836 13.53 70.2113 13.4857C70.0595 13.4466 69.8938 13.4599 69.7359 13.4991C69.696 13.5088 69.649 13.5252 69.6137 13.5133C69.4555 13.4599 69.3094 13.4747 69.1489 13.5255C69.0499 13.5568 68.918 13.4988 68.834 13.4301C68.7352 13.3493 68.6957 13.3846 68.635 13.4633C68.562 13.5577 68.5557 13.5559 68.4356 13.4809C68.4122 13.4664 68.3965 13.4645 68.3712 13.4648C68.2329 13.4664 68.0891 13.4896 68.003 13.3296C67.982 13.2906 67.905 13.2796 67.8952 13.3591C67.8821 13.4656 67.7855 13.4789 67.7235 13.5274C67.6432 13.5902 67.5769 13.5258 67.4979 13.4953C67.3825 13.4506 67.2783 13.5772 67.1509 13.5662C67.097 13.5616 67.036 13.6187 66.9812 13.5934C66.7856 13.5029 66.5895 13.5841 66.3944 13.5848C66.2555 13.5852 66.1127 13.5056 65.9748 13.6016C65.9486 13.6199 65.9087 13.5868 65.8949 13.5554C65.8348 13.4188 65.7812 13.4039 65.6623 13.5185C65.5277 13.6483 65.3391 13.6494 65.1615 13.6115C65.0437 13.5864 64.9337 13.5841 64.8147 13.6139C64.6938 13.644 64.5666 13.6431 64.4567 13.5565C64.3717 13.4898 64.2632 13.4871 64.1776 13.5258C63.7783 13.7065 63.5857 13.58 63.3631 13.2815C63.3264 13.2324 63.3161 13.162 63.2412 13.2188C63.1834 13.2626 63.1926 13.3179 63.2405 13.371C63.2793 13.4139 63.3034 13.471 63.3519 13.4887C63.2187 13.6059 63.0871 13.6465 62.9145 13.5167C62.8548 13.4718 62.7087 13.5434 62.6039 13.5614C62.5763 13.5215 62.6043 13.4966 62.6205 13.4678C62.6495 13.4171 62.6505 13.3644 62.5881 13.3461C62.5326 13.33 62.4904 13.3585 62.4925 13.4255C62.4934 13.45 62.5097 13.4812 62.4997 13.4976C62.4697 13.5469 62.027 13.6721 61.9826 13.6301C61.8397 13.4949 61.7016 13.4834 61.525 13.5679C61.4468 13.6053 61.4992 13.4469 61.4222 13.43C61.4066 13.4353 61.38 13.4378 61.378 13.4463C61.3264 13.6653 61.2778 13.7092 61.0815 13.6499C60.9825 13.6199 60.888 13.6156 60.789 13.6054C60.6982 13.596 60.5932 13.5991 60.5447 13.4702C60.5096 13.377 60.4323 13.3881 60.3908 13.482C60.3745 13.5185 60.3844 13.5667 60.3495 13.5974C60.3256 13.6185 60.2766 13.6561 60.2685 13.628C60.2193 13.4605 60.1341 13.6189 60.0709 13.6002C59.9931 13.5774 59.9044 13.5974 59.8347 13.5372C59.827 13.5307 59.787 13.5497 59.7724 13.5661C59.6541 13.6987 59.5292 13.6893 59.3894 13.6003C59.3716 13.5891 59.2272 13.4619 59.2803 13.655C59.2567 13.6586 59.2329 13.6658 59.2094 13.665C59.1426 13.6632 59.0708 13.64 59.0102 13.6576C58.856 13.7025 58.7323 13.6611 58.6143 13.5633C58.5021 13.4702 58.3919 13.4611 58.2885 13.584C58.2228 13.6621 58.1392 13.6757 58.0377 13.6551C57.8909 13.6253 57.7432 13.6212 57.5917 13.6548C57.4454 13.6871 57.3145 13.6172 57.1974 13.5332C57.1255 13.4816 57.061 13.4195 56.9748 13.3465C56.934 13.4702 57.0481 13.5567 56.9777 13.6772C56.7455 13.6772 56.497 13.6836 56.2488 13.6751C56.0733 13.6692 55.8987 13.6895 55.7268 13.6916C55.4792 13.6946 55.2311 13.7147 54.983 13.7059C54.8505 13.7011 54.7726 13.6548 54.7979 13.5104C54.8071 13.458 54.793 13.4174 54.7472 13.4174C54.6659 13.4174 54.5858 13.3315 54.508 13.402C54.4666 13.4397 54.5034 13.4962 54.5446 13.4923C54.6809 13.4795 54.6902 13.5593 54.6902 13.6795C54.5931 13.651 54.504 13.6633 54.4141 13.6701C54.3581 13.6744 54.2938 13.6994 54.2433 13.6565C54.1394 13.5685 54.0437 13.5317 53.9604 13.6792C53.8095 13.6323 53.6617 13.7627 53.5078 13.6829C53.4273 13.6412 53.3379 13.6224 53.2466 13.6042C53.1472 13.5843 53.0734 13.5991 52.9899 13.6455C52.687 13.8141 52.6515 13.7201 52.5174 13.5366C52.5079 13.5235 52.505 13.5054 52.4987 13.4897C52.48 13.4424 52.4428 13.4221 52.4002 13.4462C52.3557 13.4712 52.3529 13.5136 52.3949 13.5474C52.4376 13.5817 52.473 13.618 52.4353 13.673C52.4031 13.7201 52.3408 13.7338 52.2998 13.7153C52.0944 13.623 51.8858 13.7038 51.6839 13.7115C51.2158 13.7294 50.7493 13.7234 50.2819 13.7125C50.1575 13.7097 50.0332 13.7439 49.9064 13.7297C49.8484 13.7232 49.7884 13.7337 49.739 13.6916C49.6658 13.6289 49.5918 13.6147 49.514 13.6847C49.5024 13.6953 49.481 13.7064 49.4686 13.7025C49.2079 13.6213 48.9582 13.768 48.7006 13.7385C48.6091 13.728 48.516 13.7234 48.4266 13.7028C48.2592 13.6643 48.0987 13.7039 47.9334 13.7153C47.7122 13.7308 47.4857 13.7693 47.2622 13.7253C47.1249 13.6982 47.0684 13.6062 47.0569 13.3977C46.9819 13.4778 46.9981 13.5983 46.9093 13.655C46.8424 13.6359 46.8611 13.5792 46.8579 13.5326C46.8534 13.4716 46.8212 13.4346 46.7615 13.4495C46.7007 13.4647 46.7034 13.5139 46.7109 13.5706C46.7332 13.74 46.7295 13.7473 46.5751 13.7434C46.4506 13.7403 46.3209 13.7558 46.2037 13.6976C46.1285 13.6604 46.0571 13.6854 45.9827 13.6928C45.9213 13.6988 45.863 13.6869 45.8707 13.5987C45.8767 13.5304 45.8475 13.4676 45.7746 13.4875C45.691 13.5104 45.6939 13.5821 45.7325 13.6522C45.7395 13.665 45.7357 13.6837 45.7375 13.7088C45.5754 13.7485 45.4162 13.7645 45.2463 13.7264C45.1441 13.7036 45.0312 13.729 44.923 13.7337C44.7267 13.7423 44.535 13.7482 44.5125 13.4735C44.5088 13.4302 44.4565 13.4124 44.4109 13.4282C44.3764 13.4405 44.3567 13.4693 44.3684 13.5075C44.3877 13.5703 44.4341 13.6357 44.3599 13.6902C44.2911 13.7406 44.222 13.7038 44.1473 13.6925C44.0265 13.6743 43.9046 13.5676 43.7681 13.6851C43.7472 13.703 43.591 13.6332 43.5732 13.5169C43.5695 13.492 43.5663 13.4673 43.5305 13.4674C43.526 13.4692 43.5132 13.4707 43.5121 13.4754C43.4529 13.7158 43.275 13.7186 43.0771 13.7106C42.9138 13.7038 42.7501 13.7466 42.5851 13.7173C42.4963 13.7014 42.3951 13.7365 42.3397 13.6169C42.3041 13.5402 42.2701 13.6758 42.2262 13.6369C42.1964 13.6107 42.1989 13.5459 42.1533 13.5429C42.0851 13.5384 42.0649 13.6082 42.0266 13.6503C41.9237 13.7635 41.7517 13.7652 41.6549 13.6548C41.6214 13.6169 41.5838 13.5713 41.6028 13.5198C41.6902 13.2835 41.5129 13.4076 41.4264 13.3685C41.5155 13.5829 41.5109 13.6044 41.3879 13.6678C41.323 13.7011 41.2794 13.7272 41.2389 13.6246C41.2096 13.5499 41.1403 13.5279 41.0648 13.6187C40.9982 13.6987 40.8974 13.704 40.7882 13.673C40.6392 13.6306 40.4842 13.603 40.3274 13.6524C40.2805 13.6672 40.2058 13.6899 40.1828 13.6678C40.0149 13.5065 39.8585 13.6347 39.7051 13.6823C39.5081 13.7432 39.306 13.6871 39.1094 13.7274C39.0807 13.7332 39.0308 13.7212 39.0174 13.7002C38.9659 13.619 38.9383 13.4587 38.8427 13.6741C38.8312 13.7002 38.798 13.6801 38.781 13.6609C38.6852 13.5524 38.5904 13.5761 38.4988 13.6645C38.429 13.7322 38.3461 13.7448 38.268 13.7008C38.2108 13.6684 38.1713 13.6453 38.115 13.6979C38.0891 13.7221 38.0456 13.7145 38.0335 13.676C37.9916 13.5415 37.9468 13.6099 37.8842 13.6621C37.8521 13.6889 37.8087 13.6428 37.776 13.6169L37.7826 13.6232C37.5665 13.6611 37.3471 13.6644 37.1297 13.7062C36.9498 13.7408 36.7504 13.721 36.5697 13.6803C36.4852 13.6611 36.4187 13.6554 36.3389 13.6741C36.2637 13.6916 36.1818 13.7491 36.1126 13.6473C36.0995 13.6283 36.0325 13.6372 35.9937 13.6469C35.7761 13.7008 35.5646 13.6507 35.3529 13.6127C35.2793 13.5994 35.2147 13.5873 35.139 13.6221C35.0473 13.6644 34.9447 13.6761 34.8501 13.6095C34.8441 13.5366 34.9089 13.5301 34.946 13.5206C35.2187 13.4494 35.4545 13.2443 35.7595 13.2917C35.7959 13.2972 35.8428 13.2887 35.85 13.2644C35.8953 13.1136 36.015 13.1312 36.1304 13.0918C36.2159 13.0628 36.2448 12.9986 36.299 13.1127C36.3127 13.1412 36.3497 13.1631 36.385 13.1466C36.4171 13.1316 36.4367 13.0958 36.4201 13.0628C36.3709 12.9645 36.4212 12.9356 36.5051 12.9022C36.9264 12.7351 37.345 12.5613 37.7643 12.3891C37.8432 12.3567 37.9088 12.3192 37.9779 12.4251C38.0139 12.48 38.1004 12.4601 38.0636 12.365C38.0301 12.2788 38.0761 12.2613 38.1334 12.2391C38.5598 12.0733 38.977 11.8849 39.406 11.724C39.807 11.5738 40.1923 11.3788 40.5758 11.1859C40.7245 11.111 40.8959 11.1209 41.0368 10.9983C41.1569 10.8938 41.3445 10.8725 41.4902 10.7923C41.6455 10.7067 41.8117 10.6475 41.9676 10.5662C42.0594 10.5183 42.1401 10.5175 42.2432 10.5302C42.3336 10.5414 42.3242 10.3575 42.4485 10.3367C42.5724 10.3158 42.6732 10.1771 42.8216 10.2694C42.857 10.2913 42.8724 10.2458 42.8905 10.2174C42.9752 10.0837 43.0542 10.0478 43.2428 10.0558C43.2672 10.0567 43.297 10.0691 43.302 10.0376C43.334 9.84081 43.5166 9.85452 43.6415 9.79215C44.224 9.50156 44.8091 9.21603 45.3925 8.92711C45.557 8.84575 45.7334 8.78897 45.8954 8.71008C46.0545 8.63249 46.1974 8.51005 46.3699 8.45837C46.5774 8.396 46.7256 8.22839 46.9294 8.16343C46.9905 8.14397 47.0404 8.08395 47.1154 8.12778C47.1315 8.13719 47.1785 8.12918 47.1817 8.11929C47.2627 7.87484 47.523 7.91554 47.6781 7.77697C47.6854 7.81171 47.695 7.82848 47.6905 7.83978C47.6686 7.89473 47.632 7.95366 47.7027 7.99534C47.7547 8.02604 47.8038 7.99104 47.8332 7.95108C47.8684 7.90322 47.9336 7.84612 47.8469 7.78777C47.8124 7.76444 47.7961 7.74255 47.826 7.71153C47.8581 7.67819 47.8847 7.71104 47.9122 7.72852C47.973 7.76691 47.9804 7.83219 47.9642 7.88575C47.8958 8.10864 47.834 8.33534 47.7043 8.55049C47.8409 8.62647 47.9468 8.72632 47.8776 8.93356C47.8386 9.04982 47.94 9.15215 48.0527 9.16586C48.1711 9.18038 48.2135 9.10816 48.2422 9.00858C48.2873 8.85161 48.3065 8.68261 48.4435 8.5207C48.5141 8.85968 48.4346 9.14994 48.367 9.43902C48.3458 9.5292 48.3134 9.61561 48.3123 9.7102C48.3116 9.78215 48.3358 9.84264 48.3818 9.89512C48.479 10.006 48.629 9.99466 48.6541 9.85512C48.7107 9.53952 48.912 9.27636 48.9315 8.94174C48.9438 8.73219 49.0271 8.51672 49.088 8.30711C49.1229 8.18779 49.1347 8.07976 49.1006 7.96157C49.0595 7.81848 49.0882 7.67647 49.1231 7.53633C49.1339 7.49359 49.1588 7.44406 49.2059 7.46165C49.3397 7.51133 49.3524 7.42755 49.383 7.33125C49.4537 7.10836 49.5565 6.89849 49.6876 6.63468C49.7233 6.94059 49.4921 7.1403 49.538 7.39233C49.6137 7.37459 49.6223 7.32291 49.6306 7.2729C49.6557 7.121 49.7169 6.98227 49.7803 6.84412C49.8252 6.74658 49.8916 6.65554 49.8229 6.53606C49.7789 6.45965 49.8572 6.41399 49.9004 6.36802C50.0158 6.24483 50.134 6.12443 50.2291 5.9843C50.2962 5.88536 50.3559 5.78443 50.2995 5.65543C50.2716 5.59149 50.281 5.52051 50.3012 5.45599C50.3686 5.24208 50.3061 5.01768 50.3574 4.80222C50.3758 4.72457 50.3255 4.65558 50.2971 4.586C50.232 4.42592 50.2185 4.26019 50.2308 4.0892C50.2412 3.94181 50.2842 3.83372 50.4123 3.72892C50.5633 3.6054 50.6674 3.42183 50.7844 3.25911C50.8245 3.20367 50.8359 3.13425 50.7449 3.09306C50.6778 3.15866 50.7315 3.32955 50.6198 3.30707C50.4973 3.2825 50.5874 3.15672 50.5834 3.07278C50.5776 2.94884 50.6599 2.83995 50.6606 2.74671C50.6614 2.61787 50.7064 2.52188 50.7482 2.41671C50.7877 2.31787 50.8165 2.23199 50.7199 2.14214C50.6312 2.05965 50.6594 1.9385 50.6618 1.83225C50.6651 1.69615 50.6756 1.56334 50.5823 1.44643C50.5248 1.37416 50.5713 1.28092 50.5492 1.20032C50.5067 1.04615 50.443 0.900486 50.3743 0.756428C50.2876 0.574409 50.2894 0.57349 50.4797 0.55978C50.486 0.521168 50.4624 0.506008 50.4352 0.482456C50.3643 0.42083 50.2713 0.464439 50.206 0.428898C50.1355 0.39061 50.2288 0.254349 50.114 0.218159L50.1148 0.214825C50.0821 0.252575 50.0557 0.30022 50.0155 0.326031C49.9385 0.375557 49.8935 0.347057 49.8984 0.253922C49.9009 0.206226 49.9401 0.153362 49.8751 0.122982C49.8174 0.0959892 49.7815 0.126587 49.7595 0.181648C49.7457 0.216064 49.6954 0.241123 49.6964 0.198105C49.6999 0.0475426 49.4879 0.171112 49.4964 0.0282936C49.4965 0.025013 49.4546 0.0131798 49.4525 0.0167809C49.3601 0.1824 49.2088 -0.0110168 49.1034 0.0753975C49.0636 0.108036 49.0236 0.0927086 48.9938 0.0566292C48.9648 0.0213013 48.9109 -0.0130081 48.8873 0.00463104C48.7507 0.106476 48.5807 -0.0503235 48.449 0.0695877C48.4227 0.0936775 48.391 0.0779762 48.3636 0.0490456C48.3023 -0.0153732 48.248 0.0235596 48.2328 0.0851822C48.2088 0.184017 48.1254 0.145035 48.0717 0.170307C48.0388 0.185791 48.0335 0.174393 47.9487 0.0596428C47.9055 0.0863647 47.9069 0.130566 47.9103 0.171806C47.9181 0.26693 47.8618 0.325436 47.7835 0.329575C47.6669 0.335762 47.6584 0.33646 47.7017 0.464169C47.7336 0.558434 47.577 0.629841 47.4715 0.64323C47.3873 0.653931 47.3091 0.659313 47.2393 0.712116C47.2204 0.726475 47.1789 0.726475 47.1742 0.741478C47.0996 0.97657 46.9094 1.06933 46.6998 1.14095C46.6386 1.16193 46.6116 1.21645 46.593 1.27328C46.5641 1.36163 46.4927 1.39831 46.4209 1.44751C46.377 1.35669 46.4518 1.15665 46.237 1.28125C46.1468 1.33356 46.1121 1.1973 46.0118 1.15138C46.0289 1.32996 45.9422 1.4922 46.0934 1.6262C46.057 1.72052 45.9432 1.68819 45.887 1.75251C45.863 1.77993 45.8236 1.7773 45.7961 1.75149C45.7542 1.71212 45.7173 1.64814 45.6524 1.7067C45.5967 1.75697 45.6773 1.79246 45.6778 1.83645C45.6784 1.8792 45.4673 2.01384 45.4185 1.98265C45.2613 1.8821 45.2101 2.02632 45.1377 2.09644C45.0976 2.1351 45.0606 2.18473 45.0178 2.222C44.8931 2.33062 44.8495 2.32809 44.6794 2.2078C44.7055 2.42122 44.5498 2.47618 44.4152 2.54511C44.1849 2.66304 43.9511 2.77391 43.7198 2.88958C43.6247 2.93695 43.5497 2.91636 43.4464 2.88297C43.331 2.8456 43.4885 3.07176 43.3258 3.09316C43.0407 3.13075 42.8418 3.41322 42.5306 3.39009C42.5163 3.38902 42.4949 3.39424 42.4875 3.4044C42.2872 3.68197 41.9515 3.73354 41.6773 3.88298C41.4519 4.00601 41.2163 4.11635 40.9815 4.22405C40.9307 4.24739 40.8819 4.28751 40.8192 4.27283C40.7687 4.19152 40.8434 4.12485 40.8356 4.05231C40.8302 4.00289 40.7955 3.98052 40.7501 3.97589C40.7114 3.97186 40.6792 3.99703 40.674 4.02854C40.6619 4.10307 40.6525 4.1799 40.6576 4.25476C40.664 4.34692 40.621 4.42657 40.545 4.41947C40.4484 4.41049 40.3655 4.59078 40.2615 4.4307C40.1903 4.32101 40.128 4.45743 40.1276 4.47377C40.1216 4.66671 39.9764 4.68784 39.8411 4.73167C39.7464 4.76226 39.6545 4.80453 39.5665 4.85174C39.469 4.90406 39.3842 5.02386 39.3168 4.80748C39.2858 4.70731 39.1548 4.84109 39.0632 4.78399C39.0255 4.76038 39.0264 4.85793 39.0081 4.89928C38.9981 4.92197 38.9967 4.94853 38.9925 4.97338C38.9615 5.15195 38.9601 5.15722 38.781 5.11152C38.6783 5.08543 38.6099 5.09716 38.6116 5.21692C38.6131 5.33236 38.5277 5.29424 38.471 5.30924C38.4537 5.30843 38.4362 5.30768 38.4189 5.30693C38.3461 5.28391 38.2877 5.31063 38.2357 5.36016L38.2427 5.35629C38.1578 5.42237 38.1144 5.37608 38.0715 5.30026C38.0495 5.26122 38.0249 5.20196 37.9631 5.21815C37.8936 5.23637 37.9379 5.30166 37.9224 5.34285C37.914 5.36554 37.8974 5.38501 37.8845 5.40598C37.9599 5.52084 37.9599 5.52084 37.8523 5.58612C37.8655 5.52347 37.8782 5.46173 37.8911 5.40011C37.8438 5.41619 37.7972 5.44276 37.7488 5.44641C37.5724 5.45953 37.4604 5.52562 37.4887 5.72781C37.4961 5.78072 37.4637 5.80497 37.4177 5.81174C37.3787 5.81744 37.3563 5.79185 37.3439 5.75835C37.3351 5.7349 37.3336 5.70818 37.3229 5.68565C37.2842 5.60542 37.2437 5.54337 37.1653 5.65742C37.1207 5.72211 37.0083 5.7619 37.0625 5.86084C37.1177 5.96161 37.1828 5.78862 37.2526 5.84847C37.0708 6.00312 37.0658 6.00468 36.9029 5.84664C36.8699 5.81454 36.84 5.78722 36.7962 5.80513C36.7322 5.83153 36.7471 5.8732 36.7724 5.9266C36.8144 6.01532 36.7959 6.08588 36.6934 6.12771C36.3457 6.26967 36.0004 6.41798 35.6527 6.55967C35.5299 6.60984 35.391 6.60661 35.2746 6.68732C35.1986 6.73996 35.1326 6.69765 35.1234 6.60338C35.1205 6.57327 35.1517 6.5381 35.1452 6.5103C35.1306 6.44873 35.0909 6.40319 35.0186 6.41755C34.9574 6.42975 34.971 6.47712 34.983 6.5174C35.0237 6.65355 34.9161 6.66172 34.8403 6.66248C34.7422 6.66339 34.6585 6.67603 34.5952 6.75507C34.575 6.7804 34.5521 6.80879 34.5464 6.83891C34.537 6.88703 34.6606 6.92177 34.5694 6.98044C34.4626 7.04927 34.3374 7.10572 34.2154 7.07007C34.0876 7.03276 34.0213 7.06174 33.9455 7.16606C33.8705 7.26936 33.7257 7.26731 33.6166 7.32275C33.5963 7.33307 33.5765 7.30469 33.5583 7.28662C33.4455 7.17563 33.538 7.36039 33.4605 7.32351C33.4306 7.28463 33.3824 7.22241 33.3322 7.15697C33.2793 7.21671 33.2274 7.25994 33.237 7.33818C33.2424 7.38663 33.3605 7.43062 33.2637 7.47493C33.1664 7.51934 33.0718 7.6385 32.9451 7.543C32.8852 7.49789 32.8628 7.4817 32.8804 7.57866C32.8884 7.62307 32.8419 7.67093 32.8061 7.66771C32.5767 7.64657 32.4233 7.91538 32.1651 7.8231C32.0961 7.79858 31.971 7.89118 31.8903 7.95431C31.809 8.01819 31.7213 8.05815 31.6278 8.0932C31.4273 8.1687 31.4112 8.16311 31.2925 7.96867L31.2968 7.97066C31.1819 7.99566 31.0653 8.11466 30.9541 7.95227C30.9338 7.9228 30.868 7.95818 30.8648 8.00663C30.8552 8.13149 30.7632 8.15585 30.6745 8.1508C30.5879 8.14569 30.5783 8.19736 30.5574 8.25108C30.5408 8.29431 30.5483 8.33674 30.5804 8.36793C30.6226 8.40896 30.6531 8.37395 30.6857 8.34507C30.7247 8.31007 30.7723 8.31265 30.8552 8.31222C30.744 8.44789 30.6071 8.43229 30.4879 8.4965C30.4499 8.3968 30.5285 8.22688 30.3366 8.24339C30.3312 8.24382 30.3275 8.17962 30.3125 8.15123C30.2687 8.0696 30.1971 8.06078 30.1709 8.14026C30.1431 8.225 30.072 8.27378 30.0393 8.344C29.9907 8.44897 29.9661 8.49758 29.8875 8.36917C29.8715 8.34309 29.8068 8.35357 29.8121 8.38847C29.8405 8.56301 29.7538 8.4979 29.6827 8.45407C29.6009 8.40358 29.51 8.39137 29.4186 8.38277C29.1652 8.35852 29.1043 8.43832 29.1973 8.69788C29.0904 8.64421 28.962 8.67277 28.9155 8.52457C28.9027 8.4837 28.8214 8.46268 28.7696 8.43617C28.7236 8.41267 28.6899 8.43337 28.668 8.47564C28.6503 8.50898 28.6514 8.55393 28.6851 8.56318C28.8401 8.60625 28.8957 8.79252 29.0577 8.82123C29.0235 8.86027 29.1171 8.91076 29.046 8.94421C29.0337 8.94996 29.0048 8.94669 29.0016 8.93943C28.9727 8.87743 29.0428 8.86199 29.0604 8.82075C28.923 8.81537 28.8022 8.95502 28.6546 8.86522C28.6439 8.85844 28.6118 8.86274 28.6086 8.86984C28.5188 9.09101 28.3253 8.9092 28.2071 8.999C28.1713 8.92232 28.1964 8.88619 28.2344 8.84559C28.2782 8.7987 28.2745 8.74928 28.198 8.74681C28.1483 8.7453 28.1269 8.73724 28.1168 8.68261C28.0959 8.57071 28.027 8.61211 27.9665 8.64652C27.8928 8.68879 27.8698 8.75117 27.9436 8.80548C28.0852 8.91103 27.9697 9.01616 27.9526 9.12096C27.9489 9.1444 27.9222 9.17635 27.8992 9.16183C27.7431 9.06428 27.7586 9.23178 27.7174 9.29443C27.6292 9.25695 27.6548 9.18871 27.6441 9.13451C27.6345 9.08837 27.6099 9.0595 27.5607 9.05659C27.5084 9.05353 27.4704 9.0916 27.4741 9.12881C27.4864 9.26141 27.3832 9.26884 27.3014 9.30556C27.2186 9.27174 27.2918 9.16016 27.2084 9.11849C27.1341 9.08144 27.0726 9.13698 26.9935 9.12112C26.8593 9.09407 26.9545 9.24598 26.9128 9.30325C26.9202 9.29674 26.9267 9.2918 26.9331 9.28669C26.9726 9.25598 27.0138 9.22775 27.0641 9.26496C27.0806 9.27728 27.0769 9.2926 27.0625 9.30771C27.0154 9.35616 26.9769 9.3296 26.9374 9.2975C26.9331 9.29395 26.9219 9.29922 26.9138 9.30029C26.7492 9.22049 26.6353 9.29104 26.5834 9.44322C26.5353 9.58426 26.3626 9.51791 26.3054 9.64218C26.2926 9.67148 26.1985 9.63847 26.1472 9.60803L26.1557 9.60077C26.1012 9.6667 26.0263 9.6732 25.9509 9.66471C25.9141 9.66068 25.8718 9.66019 25.8718 9.69649C25.8718 9.82457 25.8087 9.77397 25.744 9.75542C25.72 9.74865 25.6863 9.78505 25.6553 9.79312C25.4671 9.84108 25.4666 9.84033 25.4195 9.63535C25.412 9.60066 25.3992 9.5727 25.3602 9.56437C25.3238 9.55668 25.2971 9.57087 25.2719 9.59695C25.2131 9.65868 25.2377 9.73999 25.219 9.82382C25.1501 9.84081 25.1003 9.77999 25.0383 9.77209C24.9816 9.76483 24.9266 9.74666 24.8523 9.72891C24.8614 9.95793 24.6379 9.93093 24.524 10.0315C24.4876 10.0636 24.4433 10.0248 24.4181 9.99202C24.3064 9.84619 24.1583 9.95917 24.03 9.94126C23.9626 9.93201 23.9434 10.02 24 10.0703C24.0786 10.1405 24.169 10.1979 24.2572 10.2629C24.2417 10.3913 24.1385 10.4163 24.0353 10.4412C23.9776 10.4818 23.9338 10.5611 23.8445 10.5099C23.8359 10.5046 23.83 10.4708 23.8359 10.4659C23.8904 10.4199 23.9557 10.4301 24.0193 10.4376C24.0268 10.4384 24.0343 10.4441 24.0417 10.4476C23.984 10.3575 23.9263 10.2674 23.8701 10.1789C23.8001 10.1726 23.8354 10.255 23.7996 10.2606C23.6552 10.2828 23.6515 10.3575 23.7033 10.4725C23.737 10.5475 23.7028 10.6086 23.6178 10.6157C23.537 10.6223 23.4542 10.6775 23.3761 10.6264C23.3216 10.5906 23.3045 10.6166 23.2863 10.658C23.2478 10.747 23.205 10.7353 23.1371 10.6805C23.0938 10.6455 23.112 10.5439 23.0013 10.5723C22.8875 10.6017 22.7709 10.6032 22.7447 10.7523C22.741 10.7739 22.7196 10.7923 22.7057 10.8128C22.5298 10.6492 22.4079 10.656 22.2582 10.8534C22.1849 10.9494 22.1058 11.0256 21.9941 11.068C21.8914 11.1067 21.7904 11.1508 21.6834 11.0812C21.6556 11.063 21.6246 11.0443 21.5942 11.0763C21.5599 11.1119 21.5156 11.2283 21.492 11.1629C21.4471 11.0375 21.2247 11.0176 21.3055 10.8328L21.314 10.8399C21.1312 10.7966 20.9649 10.8489 20.8061 10.932C20.7136 10.9806 20.7093 11.0565 20.8082 11.19C20.666 11.1194 20.5682 11.1955 20.4928 11.2493C20.3014 11.3865 20.1351 11.3269 19.9598 11.2365C19.9379 11.2249 19.9154 11.2138 19.8924 11.2047C19.8871 11.2026 19.8774 11.2095 19.8705 11.2122C19.8635 11.331 20.0186 11.3018 20.0394 11.4002C19.9967 11.4535 19.9518 11.3956 19.9079 11.4015C19.8304 11.4121 19.7652 11.2956 19.6764 11.3743C19.6417 11.4055 19.5935 11.5836 19.5973 11.6903C19.4888 11.6336 19.4118 11.5441 19.2792 11.537C19.1808 11.5317 19.1118 11.658 19.0006 11.5683C18.9194 11.5025 18.8087 11.4728 18.7098 11.4307C18.6724 11.4147 18.6114 11.4027 18.6274 11.4689C18.6488 11.5581 18.5109 11.5405 18.5392 11.6219C18.5793 11.6545 18.62 11.6458 18.6585 11.6268C18.7087 11.602 18.7632 11.5884 18.775 11.6586C18.7852 11.718 18.7087 11.7682 18.682 11.7476C18.5777 11.6692 18.4991 11.7935 18.4072 11.7668C18.3462 11.7494 18.3313 11.8285 18.258 11.8308C18.235 11.724 18.2104 11.6089 18.1265 11.518C18.2954 11.6107 18.3002 11.6087 18.4393 11.3632C18.3484 11.3621 18.274 11.4015 18.1971 11.411C18.0944 11.424 18.0019 11.4683 17.9912 11.3047C17.9885 11.2644 17.934 11.2453 17.888 11.2615C17.8528 11.2737 17.833 11.3018 17.8421 11.3397C17.8544 11.3906 17.8613 11.4298 17.8057 11.4681C17.7538 11.5032 17.7843 11.5465 17.8351 11.549C18.0634 11.5606 18.0196 11.7423 18.0645 11.8748C17.9955 11.896 17.972 11.858 17.941 11.8308C17.9164 11.8097 17.8822 11.7822 17.8549 11.7853C17.7752 11.7947 17.7175 11.9736 17.6084 11.792C17.5667 11.7216 17.417 11.7435 17.3443 11.6421C17.3074 11.5907 17.2369 11.6939 17.2491 11.7058C17.371 11.8278 17.2042 11.8884 17.1829 11.9696C17.1545 12.0772 17.031 12.1607 16.9449 12.2516C16.877 12.3235 16.8097 12.2939 16.745 12.2423L16.7514 12.2483C16.6423 12.2218 16.629 12.3425 16.5568 12.3769C16.4563 12.4246 16.3686 12.4877 16.2686 12.3733C16.2023 12.298 16.1505 12.3244 16.1419 12.4207C16.1339 12.512 16.1189 12.5084 16.0382 12.4656C15.9767 12.4332 15.9943 12.5672 15.9355 12.591C15.919 12.5789 15.9008 12.5727 15.896 12.5609C15.8746 12.512 15.943 12.4313 15.8601 12.4095C15.7853 12.39 15.7671 12.4647 15.7522 12.5204C15.7211 12.6367 15.6762 12.6694 15.5982 12.5533L15.6051 12.5572C15.5586 12.5842 15.5121 12.6113 15.465 12.6387C15.4303 12.58 15.4955 12.5487 15.4971 12.5014L15.5009 12.5087C15.4586 12.5149 15.4249 12.5263 15.4041 12.5727C15.3223 12.7536 15.1464 12.7663 14.9844 12.7965C14.9267 12.8073 14.8759 12.7791 14.8315 12.7311C14.6791 12.5644 14.5882 12.5678 14.461 12.7373C14.3252 12.9182 14.083 12.9841 13.9477 12.8736C13.9119 12.8442 13.8601 12.8209 13.8734 12.7552C13.8873 12.6848 13.928 12.6584 13.9969 12.6604C14.0301 12.6613 14.0648 12.6547 14.0953 12.6434C14.1525 12.6225 14.1456 12.5595 14.1108 12.5504C13.9996 12.5215 13.9028 12.4721 13.8103 12.405C13.7852 12.3866 13.7494 12.419 13.7269 12.446L13.7344 12.4377C13.6483 12.5967 13.4735 12.6694 13.3083 12.6083C13.2618 12.591 13.2837 12.5348 13.2698 12.4978L13.2768 12.5049C13.1656 12.5246 13.0635 12.4829 12.9565 12.4643C12.8736 12.4496 12.8352 12.4203 12.8437 12.3357C12.848 12.2886 12.8389 12.2483 12.7806 12.2537C12.7336 12.2581 12.7475 12.2969 12.7432 12.3298C12.7288 12.4368 12.6389 12.5028 12.5582 12.472C12.4352 12.4251 12.4181 12.5193 12.3502 12.5599C12.2556 12.6166 12.2433 12.6754 12.3048 12.736C12.3663 12.7972 12.3513 12.874 12.3727 12.9467C12.4647 12.9299 12.5486 12.9343 12.6069 12.8682C12.5914 12.7931 12.5475 12.8135 12.5096 12.8237C12.4582 12.8373 12.4246 12.8228 12.4315 12.7663C12.4363 12.728 12.4369 12.6725 12.4925 12.6706C12.5406 12.6689 12.5898 12.6893 12.6389 12.6899C12.7122 12.6908 12.8138 12.745 12.8122 12.592C12.8116 12.5339 12.8843 12.5264 12.933 12.5301C13.0084 12.5362 13.0367 12.6079 13.0185 12.6589C12.9635 12.8157 13.0479 12.8885 13.1907 12.9507C13.0966 13.0322 13.0153 13.0221 12.9282 12.9919C12.8843 12.9768 12.8335 12.9359 12.7913 12.9907C12.7015 13.1061 12.5764 13.0981 12.4529 13.0924C12.354 13.0879 12.2829 13.1714 12.1989 13.1793C12.1278 13.1858 12.1198 13.3193 12.0359 13.2488C11.9578 13.1836 11.8862 13.1102 11.907 12.9927C11.9129 12.9597 11.9279 12.926 11.9252 12.8939C11.9199 12.8402 11.8856 12.7996 11.8348 12.7828C11.7712 12.7617 11.7766 12.8228 11.7584 12.8559C11.7311 12.907 11.6932 12.912 11.6643 12.863C11.5579 12.6831 11.5387 12.7607 11.5317 12.9044C11.5301 12.9364 11.5023 12.9673 11.4617 12.9591C11.4119 12.949 11.4237 12.9061 11.436 12.8796C11.4659 12.8157 11.4996 12.7546 11.4242 12.7013C11.335 12.6388 11.2879 12.7198 11.2318 12.7632C11.1484 12.8276 11.0671 12.8947 10.9853 12.9608L10.9965 12.9598C10.934 12.92 10.8597 12.8859 10.8613 13.002C10.8629 13.133 10.8062 13.2454 10.7779 13.3662C10.7677 13.4107 10.7185 13.4341 10.6768 13.4199C10.6105 13.3974 10.6581 13.356 10.672 13.3224C10.7201 13.2102 10.6442 13.217 10.5736 13.2193C10.4822 13.2222 10.3844 13.2897 10.3026 13.1924C10.2357 13.2816 10.1363 13.2361 10.0518 13.253C10.0171 13.2599 9.98606 13.2548 9.96254 13.2092C10.047 13.1443 10.1384 13.0788 10.1555 12.9578C10.1684 12.8653 10.2512 12.8666 10.3095 12.8668C10.3983 12.8672 10.3309 12.9453 10.3491 12.9781C10.3838 13.0402 10.4368 13.092 10.4993 13.1698C10.4282 12.669 10.3186 12.5262 10.0262 12.5323C10.0272 12.6296 10.2149 12.5831 10.1636 12.6911C10.1315 12.7594 10.1342 12.8495 10.0812 12.8938C10.0139 12.9504 10.0299 13.1024 9.8663 13.0664C9.8075 13.0533 9.76418 13.1751 9.81979 13.2492C9.85828 13.3008 9.90426 13.353 9.97109 13.3779C10.0107 13.3928 10.047 13.4222 10.0283 13.4735C10.0112 13.5222 9.95292 13.532 9.92351 13.521C9.74708 13.4557 9.58294 13.5194 9.41239 13.5454C9.33968 13.5565 9.2782 13.532 9.21725 13.6079C9.18731 13.646 9.09267 13.6326 9.02745 13.6417C8.96917 13.6497 8.92908 13.6309 8.92213 13.5659C8.91571 13.5043 8.91785 13.4417 8.98735 13.4195C9.05685 13.397 9.06541 13.4593 9.0852 13.5048C9.09535 13.5278 9.11674 13.5415 9.14561 13.5334C9.23917 13.436 9.09535 13.3721 9.11032 13.2736C9.22901 13.2115 9.34503 13.2883 9.47495 13.292C9.34663 13.0714 9.14828 13.1395 8.97346 13.1344C8.93282 13.21 9.03707 13.2426 9.00285 13.3063C8.80985 13.2875 8.80985 13.2875 8.78152 13.4951C8.70934 13.524 8.68742 13.4428 8.63609 13.4266C8.5452 13.3977 8.47624 13.4449 8.51366 13.5334C8.57034 13.6689 8.44469 13.6531 8.40246 13.7431C8.37572 13.6147 8.33616 13.5341 8.21961 13.5409L8.22495 13.5349C8.2164 13.5582 8.21159 13.5845 8.19823 13.6042C8.12712 13.707 8.08167 13.5412 8.00415 13.5857C7.95123 13.6159 7.91326 13.7349 7.8197 13.6423C7.79939 13.6223 7.76357 13.623 7.75928 13.6465C7.71598 13.8809 7.48448 13.6517 7.40108 13.7923C7.39626 13.8004 7.34601 13.7587 7.33692 13.726C7.31393 13.6419 7.26474 13.576 7.19417 13.5093C7.13963 13.5886 7.11183 13.7019 6.9755 13.674C6.91028 13.6605 6.9044 13.7255 6.89478 13.7764C6.87553 13.876 6.77608 13.8595 6.71352 13.8821C6.68572 13.8922 6.5927 13.8631 6.63921 13.7541C6.67236 13.6785 6.57399 13.7209 6.53657 13.7161C6.48096 13.7087 6.49005 13.7721 6.466 13.7985C6.41948 13.85 6.39756 13.9454 6.3024 13.9298C6.21471 13.9154 6.26176 13.8095 6.20616 13.7683C6.1559 13.8002 6.14788 13.9161 6.10671 13.8933C6.00459 13.8371 5.97252 13.9658 5.91371 13.949C5.83726 13.9274 5.77097 13.8803 5.68488 13.8703C5.6357 13.8644 5.59666 13.6167 5.62447 13.5559C5.66617 13.4655 5.71108 13.3766 5.75064 13.2853C5.76668 13.2472 5.77684 13.2005 5.73193 13.1739C5.7036 13.1571 5.66029 13.1523 5.6373 13.1781C5.52449 13.3045 5.45178 13.2236 5.37907 13.1329C5.27321 13.0003 5.10373 12.9924 4.96632 12.9225C4.91821 12.8981 4.87009 12.9249 4.82893 12.9592C4.77813 13.0008 4.7236 13.0379 4.6573 13.087C4.74445 13.1807 4.87544 13.1503 4.96472 13.2126L4.95724 13.2176C5.12083 13.1378 5.12725 13.139 5.15398 13.2756C5.16307 13.3236 5.16307 13.3735 5.16682 13.4224L5.16361 13.4144C5.27856 13.4417 5.38067 13.4568 5.26733 13.6213C5.20959 13.705 5.26466 13.8315 5.29353 13.9359C5.30421 13.9745 5.33523 14.0165 5.28551 14.0453C5.2406 14.0714 5.20745 14.0449 5.185 14.0036C5.1465 13.9323 5.07433 13.8857 5.05454 13.7971C5.04224 13.7399 4.98932 13.6999 4.91821 13.721C4.88667 13.7306 4.84015 13.765 4.86475 13.7817C4.97916 13.8583 4.95563 13.9118 4.85725 13.9775C4.78936 14.0231 4.73696 14.0983 4.63805 14.052C4.5616 14.0158 4.50921 14.1084 4.4397 14.112C4.40282 14.014 4.50119 13.9893 4.50921 13.9254L4.51616 13.932C4.41244 13.9316 4.37395 14.0459 4.28306 14.0678C4.22959 14.0809 4.16116 14.1162 4.21034 13.9992C4.23601 13.9376 4.13763 13.926 4.1109 13.8711C4.08043 13.8104 4.00558 13.8039 3.99275 13.8968C3.97939 13.9936 3.92699 14.0617 3.87513 14.1387C3.74842 13.9952 3.70511 13.9785 3.44634 13.9675C3.42015 13.9018 3.48163 13.8815 3.51104 13.8462C3.55701 13.7907 3.54472 13.7478 3.47682 13.7456C3.4148 13.7436 3.41373 13.7161 3.41267 13.6701C3.41052 13.5861 3.36295 13.5704 3.29398 13.602C3.22234 13.6349 3.22714 13.6701 3.27099 13.7372C3.35867 13.8714 3.33942 13.9064 3.18544 13.9558C3.17047 13.9607 3.14481 13.9515 3.13732 13.9603C2.96571 14.1663 2.82135 14.038 2.68502 13.9107C2.63262 13.9706 2.60589 14.0248 2.66524 14.0736C2.76361 14.1549 2.69571 14.2314 2.65187 14.2909C2.62032 14.3336 2.54066 14.3961 2.51821 14.2631C2.50698 14.1955 2.44924 14.1421 2.39524 14.1995C2.29099 14.3099 2.16588 14.329 2.02954 14.3283C1.97982 14.3281 1.97823 14.4233 1.913 14.3853C1.9007 14.3267 1.97234 14.304 1.96806 14.2449C1.89696 14.2566 1.80713 14.2288 1.78361 14.3301C1.76115 14.4276 1.82798 14.4591 1.90765 14.484C1.99052 14.5097 1.97876 14.5887 1.98196 14.6543C1.98624 14.7373 1.9285 14.7284 1.86861 14.7463C1.78628 14.771 1.6954 14.821 1.64568 14.8884C1.58045 14.9763 1.47405 14.9929 1.41096 15.0908C1.342 15.001 1.28104 14.9167 1.15968 14.9653C1.14632 14.9706 1.11264 14.9246 1.08858 14.9025L1.09338 14.9085C0.888084 14.9899 0.964546 15.2059 0.885948 15.3478C0.976303 15.3878 0.978439 15.5214 1.08537 15.5416C1.13134 15.5503 1.17306 15.5253 1.18214 15.4811C1.19551 15.4125 1.27409 15.3413 1.20032 15.2728C1.15434 15.2298 1.1244 15.1882 1.12333 15.1262C1.36766 15.1971 1.41311 15.2609 1.31687 15.4785C1.27945 15.5639 1.29014 15.6688 1.19711 15.7415C1.12012 15.8018 1.08858 15.8881 0.95652 15.8239C0.875252 15.7842 0.77314 15.864 0.696152 15.9083C0.683319 15.9676 0.712196 15.9821 0.747482 15.9883C0.77903 15.9937 0.814842 15.9826 0.838898 16.0202C0.784363 16.1618 0.677971 16.0831 0.59082 16.0735C0.550194 16.1369 0.667816 16.1636 0.619164 16.2299C0.581741 16.2814 0.529343 16.2593 0.483902 16.2718L0.49192 16.2631C0.476418 16.3865 0.411194 16.4311 0.316025 16.3437C0.254539 16.2872 0.193054 16.2661 0.117668 16.2539C0.060997 16.2448 0.0182266 16.2437 0.00379181 16.311C-0.013855 16.3936 0.0331955 16.416 0.101624 16.4181C0.134239 16.4192 0.166855 16.4183 0.203217 16.4183C0.120346 16.5954 0.120346 16.5955 0.353981 16.6469C0.366814 16.8331 0.329384 17.0133 0.297844 17.1958C0.262024 17.403 0.25721 17.6127 0.292503 17.8242C0.316025 17.9609 0.362534 18.1089 0.245445 18.2342C0.230476 18.2501 0.217644 18.2924 0.226204 18.3023C0.352913 18.444 0.226204 18.6293 0.317093 18.7846C0.38018 18.8928 0.356659 18.9064 0.233154 19.0558C0.37056 19.1538 0.539497 19.1951 0.650703 19.3472C0.721275 19.4444 0.833015 19.5037 0.836761 19.6474C0.838898 19.7185 0.913216 19.723 0.966141 19.748C1.16182 19.8414 1.16129 19.8439 1.10675 20.0507C1.08109 20.1466 1.01907 20.2557 1.20245 20.253C1.23935 20.2524 1.25271 20.2936 1.26822 20.3231C1.30831 20.4008 1.37942 20.3939 1.40455 20.3351C1.50559 20.0987 1.69646 20.1638 1.89696 20.1596C1.84189 20.2715 1.79324 20.3685 1.94133 20.4141C2.00228 20.4331 1.99426 20.4932 1.99265 20.5425C1.99052 20.6268 1.98678 20.7112 1.98036 20.7952C1.96432 21.0017 2.0397 21.0637 2.2311 20.9992C2.42091 20.935 2.59895 21.0396 2.63209 21.2287C2.66952 21.4427 2.71014 21.6559 2.75613 21.8682C2.77911 21.9748 2.76147 22.0938 2.785 22.1839C2.83472 22.3749 2.75666 22.5503 2.78339 22.7368C2.8299 23.0617 2.7866 23.3932 2.80852 23.7222C2.83365 24.0914 2.83953 24.462 2.84541 24.8321C2.85236 25.3027 2.89407 25.7714 2.89032 26.2432C2.88658 26.7178 2.90956 27.1932 2.95394 27.6684C2.98923 28.0507 2.94859 28.4405 2.93737 28.8269C2.93309 28.9701 2.92347 29.1116 2.94379 29.2554C2.97426 29.4732 2.94111 29.6906 2.92026 29.908C2.89246 30.2056 3.0042 30.4879 3.02612 30.7808C3.03734 30.9247 3.0443 31.0669 3.0304 31.21C2.98869 31.6554 3.02023 32.1046 2.98067 32.5482C2.94431 32.9533 2.95448 33.3564 2.96089 33.7592C2.97319 34.5638 2.79996 35.3539 2.79836 36.1561C2.79836 36.2489 2.79462 36.3429 2.80745 36.4341C2.82563 36.565 2.93095 36.6703 3.02986 36.6749C3.14107 36.6801 3.24426 36.6033 3.29665 36.4782C3.31696 36.4303 3.3191 36.3813 3.32178 36.3301C3.33568 36.0282 3.35332 35.7263 3.36882 35.4244C3.36989 35.3997 3.37257 35.3715 3.36348 35.3504C3.24586 35.0898 3.32285 34.8225 3.3314 34.5572C3.33621 34.4059 3.31642 34.2538 3.32551 34.1031C3.35973 33.5486 3.39662 32.9948 3.39876 32.4386C3.39983 32.1193 3.4426 31.8002 3.46613 31.4809C3.4688 31.4477 3.47041 31.4136 3.46613 31.3806C3.40999 30.9256 3.48164 30.474 3.49874 30.0208C3.50302 29.9031 3.50568 29.7825 3.4859 29.6672C3.37737 29.0399 3.42817 28.4084 3.43672 27.7784C3.43832 27.6599 3.42924 27.5431 3.42656 27.4255C3.42175 27.225 3.38433 27.0232 3.45544 26.8265C3.46078 26.8109 3.4688 26.7911 3.46399 26.7776C3.33033 26.3975 3.49072 26.0137 3.44367 25.629C3.36508 24.9841 3.41908 24.3342 3.42496 23.6863C3.42656 23.519 3.40197 23.3515 3.387 23.1842C3.37417 23.0407 3.36829 22.8962 3.39074 22.7544C3.41854 22.578 3.4271 22.406 3.39609 22.227C3.37898 22.1262 3.33835 21.9853 3.51638 21.9467C3.57787 21.9335 3.5645 21.8566 3.54579 21.8148C3.50729 21.7288 3.50248 21.8387 3.46826 21.8354C3.41427 21.8304 3.4271 21.8038 3.42496 21.7696C3.41587 21.611 3.47896 21.464 3.49714 21.3094C3.50409 21.2503 3.54686 21.1897 3.54311 21.1199C3.53723 20.9894 3.59016 20.9048 3.73131 20.911C3.81311 20.9146 3.8484 20.8625 3.89117 20.8092C3.97885 20.6998 3.98045 20.7012 4.0938 20.8602C3.94089 20.9242 3.79173 20.9867 3.64256 21.0492C3.74521 21.227 3.74681 21.2267 3.88261 21.0928C3.9334 21.0428 3.98473 20.9895 4.06171 20.9806C4.11518 21.0923 3.96013 21.0882 3.97617 21.1707C4.03178 21.1823 4.08791 21.2024 4.14405 21.2037C4.2606 21.2068 4.33973 21.1142 4.28894 21.0077C4.21997 20.8631 4.33385 20.8659 4.3948 20.8682C4.49263 20.8719 4.59903 20.8929 4.68404 20.9395C4.82411 21.0164 4.99787 21.0103 5.11763 21.1295C5.14383 21.1554 5.17323 21.1517 5.20905 21.1448C5.41596 21.1049 5.56566 21.177 5.64585 21.3798C5.65067 21.3923 5.67313 21.3976 5.68756 21.4061L5.68382 21.4115C5.67312 21.3164 5.7469 21.2934 5.80946 21.2903C5.9121 21.2852 5.84153 21.405 5.9089 21.4485C5.95167 21.3659 5.9939 21.3329 6.11099 21.3536C6.42482 21.4088 6.69321 21.569 6.97925 21.6868C7.0541 21.7177 7.09152 21.7416 7.14178 21.6698C7.17065 21.6279 7.21555 21.6364 7.25619 21.6449C7.46684 21.6884 7.67802 21.7336 7.89081 21.7786C7.85712 21.8777 7.7502 21.9015 7.7486 21.9959C7.7641 22.0072 7.77586 22.0209 7.78976 22.0248C7.90631 22.0577 8.01537 21.8936 8.08595 21.9558C8.16828 22.0282 8.2565 22.0875 8.34579 22.1452C8.39069 22.1742 8.43828 22.2188 8.5019 22.1984C8.51955 22.1573 8.4987 22.1268 8.46929 22.1146C8.40834 22.0897 8.36664 22.0611 8.38696 21.985C8.40513 21.9155 8.45271 21.9283 8.50457 21.9319C8.58049 21.937 8.63396 21.9463 8.61417 22.0483C8.60294 22.1085 8.65641 22.152 8.68314 22.1988C8.70988 22.1899 8.73286 22.1894 8.73768 22.1795C8.84354 21.9782 8.84247 21.9808 9.07397 22.022C9.24826 22.053 9.41988 22.0729 9.46479 22.2969C9.48136 22.3772 9.5685 22.3636 9.60593 22.3196C9.7166 22.1899 9.82192 22.1398 9.96414 22.2759C10.0096 22.3198 10.0486 22.2238 10.0973 22.2433C10.1903 22.2807 10.301 22.2409 10.3881 22.313C10.3592 22.3543 10.3293 22.3932 10.3042 22.4352C10.2833 22.4702 10.3149 22.5237 10.3288 22.517C10.4822 22.4435 10.4699 22.6172 10.5437 22.6593C10.579 22.6797 10.6078 22.7192 10.6501 22.6795C10.6784 22.6534 10.6731 22.6167 10.6592 22.5854C10.6421 22.5471 10.6153 22.5131 10.6004 22.4742C10.5849 22.4343 10.5843 22.3882 10.6234 22.3609C10.6544 22.3395 10.6913 22.3537 10.7132 22.3812C10.7907 22.479 10.903 22.4203 10.996 22.4477C11.1542 22.4943 11.3205 22.484 11.482 22.5327C11.6365 22.5795 11.8225 22.5303 11.9279 22.7055C12.0396 22.6391 12.1487 22.7261 12.2577 22.7118C12.3182 22.7037 12.3738 22.7105 12.431 22.7223C12.5015 22.7366 12.5208 22.7903 12.5304 22.8518L12.5229 22.8448C12.5882 22.8618 12.6518 22.8818 12.7175 22.8951C12.9084 22.9339 12.917 22.9549 12.8095 23.1245C12.7919 23.1518 12.7854 23.1862 12.7694 23.2297C12.8528 23.2842 12.9629 23.2785 12.9742 23.1981C12.9891 23.0935 13.095 23.0911 13.1174 23.0192C13.0955 22.9851 13.0709 22.9848 13.0463 22.9951C13.0159 23.0079 12.9822 23.0337 12.9635 22.988C12.9571 22.9714 12.9747 22.941 12.9881 22.9209C13.0121 22.8834 13.0431 22.8658 13.0939 22.878C13.1992 22.9038 13.3142 22.9043 13.4104 22.9481C13.4944 22.9865 13.5633 23.0155 13.6617 23.0107C13.766 23.0058 13.8745 23.0493 13.9606 23.1242L13.9547 23.12C14.0606 23.0385 14.1627 23.1124 14.2648 23.1305C14.2819 23.1336 14.3102 23.1714 14.306 23.1859C14.2584 23.3639 14.3926 23.3135 14.4802 23.3596C14.6016 23.423 14.646 23.4263 14.6871 23.2972C14.692 23.2812 14.7422 23.2605 14.7502 23.2672C14.8769 23.3743 15.0678 23.2407 15.1881 23.3972C15.2822 23.5192 15.418 23.5823 15.58 23.5282C15.6148 23.5167 15.6452 23.5117 15.6666 23.5466C15.727 23.6448 15.7928 23.6226 15.8767 23.5717C16.0291 23.4795 16.1644 23.5881 16.2996 23.6344C16.352 23.6525 16.3381 23.7304 16.3333 23.7927C16.3178 24.0042 16.3472 24.0187 16.5536 23.9258L16.5493 23.9329C16.5766 23.8546 16.4761 23.7974 16.522 23.702C16.6493 23.6539 16.7573 23.7824 16.8861 23.7726C16.923 23.7696 16.9236 23.8153 16.931 23.8488C16.9439 23.9073 16.8578 23.9427 16.8963 24.0068C16.9947 23.9967 17.0059 23.9145 17.0385 23.8505C17.0572 23.8142 17.093 23.8054 17.1224 23.8266C17.1679 23.8594 17.124 23.882 17.1027 23.9003C17.0716 23.9267 17.0626 23.955 17.0925 23.9834C17.1224 24.0122 17.1518 23.9933 17.1796 23.9713C17.2235 23.9366 17.232 23.8533 17.3047 23.8617C17.4015 23.873 17.4822 23.9355 17.5849 23.9485C17.6656 23.9587 17.6106 24.0439 17.5935 24.0953C17.5587 24.1995 17.5828 24.2422 17.6977 24.2101C17.7699 24.1901 17.8447 24.1789 17.9185 24.1638L17.91 24.172C17.9779 24.1054 18.0581 24.0536 18.1527 24.0768C18.273 24.1061 18.4008 24.1364 18.5018 24.2025C18.559 24.24 18.6098 24.3611 18.5927 24.4257C18.551 24.5853 18.6622 24.675 18.7124 24.7974C18.6836 24.6077 18.7461 24.4317 18.7723 24.2376C18.8702 24.309 18.9798 24.3413 19.0985 24.3399C19.1332 24.3395 19.1621 24.349 19.1781 24.3854C19.2134 24.4652 19.115 24.5189 19.1268 24.5658C19.1412 24.6242 19.2268 24.6403 19.1899 24.7502C19.1423 24.8905 19.1573 25.052 19.1626 25.2138C19.2177 25.157 19.2444 25.0874 19.3257 25.0574C19.4032 25.0289 19.3925 24.9048 19.4807 24.8736C19.4561 24.7809 19.3054 24.8703 19.3284 24.7458C19.3449 24.6555 19.3856 24.5711 19.4647 24.525C19.4968 24.5064 19.5342 24.56 19.5561 24.5967L19.5524 24.593C19.6347 24.564 19.7138 24.5978 19.7919 24.6126C19.8347 24.6208 19.8667 24.6773 19.9154 24.6133C19.9437 24.5759 19.9993 24.5782 20.025 24.6169C20.0993 24.7296 20.1603 24.8688 20.3068 24.6896C20.4292 24.7924 20.6275 24.7117 20.7238 24.8451C20.7794 24.9228 20.827 24.936 20.9055 24.9264C20.9879 24.9165 21.013 24.9571 20.9836 25.0323C20.959 25.0948 20.975 25.125 21.0446 25.1295C21.1552 25.1366 21.2114 25.1667 21.083 25.2509C21.0151 25.2954 20.9472 25.3541 21.0114 25.4317C21.0814 25.5167 21.1349 25.474 21.2028 25.392C21.2595 25.3241 21.3429 25.2919 21.3402 25.1784C21.3375 25.0627 21.398 25.0088 21.5204 25.0562C21.5749 25.0772 21.6353 25.0803 21.6909 25.0991C21.7642 25.1241 21.7508 25.1886 21.7497 25.2477C21.7481 25.3254 21.7086 25.3139 21.6508 25.3073C21.5476 25.2954 21.5198 25.3604 21.607 25.4079C21.6995 25.4586 21.5733 25.5418 21.6546 25.5744C21.7524 25.4874 21.8246 25.3704 21.9812 25.3649C22.055 25.3623 22.0695 25.2011 22.2015 25.2724C22.278 25.3139 22.3812 25.2926 22.3742 25.4343C22.371 25.4983 22.4416 25.5201 22.5068 25.4859C22.5421 25.4673 22.5677 25.3675 22.6121 25.4467C22.6437 25.5044 22.6014 25.5725 22.5089 25.5505L22.5079 25.5504Z" fill="#FF4D00"/>
</svg>
