<svg width="83" height="40" viewBox="0 0 83 40" fill="none" xmlns="http://www.w3.org/2000/svg">
<path fill-rule="evenodd" clip-rule="evenodd" d="M75.7278 13.8925C75.7385 13.8849 75.7556 13.8792 75.7583 13.8693C75.7631 13.8526 75.7492 13.8428 75.731 13.8468C75.7246 13.8484 75.7166 13.8531 75.7134 13.8588C75.7043 13.8749 75.7097 13.8866 75.7278 13.8925ZM80.1595 14.1873C80.1605 14.1575 80.1445 14.1399 80.1167 14.1412C80.1033 14.1416 80.083 14.1532 80.0787 14.1648C80.0686 14.1907 80.0835 14.2121 80.1087 14.2201C80.1359 14.2288 80.1531 14.2141 80.1595 14.1873ZM58.2596 20.2085C58.2531 20.1966 58.2462 20.1852 58.2398 20.1738C58.2301 20.1854 58.2157 20.1957 58.213 20.2087C58.2077 20.2312 58.2098 20.2583 58.2435 20.25C58.2521 20.248 58.2547 20.2227 58.2596 20.2085ZM58.567 10.245C58.5386 10.2498 58.5279 10.2708 58.5263 10.2945C58.5247 10.3188 58.5344 10.3467 58.5611 10.3464C58.5884 10.3461 58.5932 10.3167 58.5964 10.2935C58.6001 10.2694 58.5996 10.2467 58.567 10.245ZM52.0839 8.24521C52.0855 8.21391 52.0663 8.20015 52.0395 8.19971C52.0037 8.19923 51.9722 8.21391 51.9658 8.25204C51.9604 8.28226 51.9866 8.29414 52.0112 8.29694C52.0492 8.30124 52.0738 8.28183 52.0839 8.24521ZM53.706 8.60021C53.7338 8.59328 53.7525 8.58043 53.7424 8.54956C53.7333 8.52472 53.7146 8.51052 53.6884 8.51101C53.6638 8.51133 53.6376 8.52026 53.6397 8.54849C53.6429 8.58645 53.6734 8.59817 53.706 8.60021ZM64.517 11.97C64.5229 11.9568 64.5357 11.9412 64.5325 11.931C64.5287 11.9187 64.5106 11.9028 64.4988 11.9026C64.4641 11.9024 64.463 11.9259 64.4795 11.9485C64.4876 11.9591 64.5041 11.9631 64.517 11.97ZM56.0718 9.49709C56.0761 9.5472 56.0937 9.56312 56.1194 9.55973C56.1285 9.55849 56.1397 9.53655 56.1408 9.52333C56.1429 9.50031 56.137 9.47284 56.1087 9.4716C56.0809 9.47036 56.0718 9.4937 56.0718 9.49709ZM57.1758 20.0368C57.2218 20.0355 57.2443 20.0054 57.2464 19.9622C57.248 19.9343 57.2229 19.9222 57.1978 19.9247C57.1571 19.9284 57.1111 19.9448 57.1031 19.9836C57.0972 20.0144 57.1432 20.0263 57.1758 20.0368ZM53.1463 8.605C53.1195 8.60683 53.0992 8.62011 53.1013 8.64726C53.104 8.68727 53.1356 8.69959 53.1687 8.69684C53.1954 8.69464 53.2425 8.7019 53.2243 8.64899C53.2125 8.61608 53.1789 8.60747 53.1463 8.605ZM62.5217 11.3857C62.5286 11.34 62.5233 11.3067 62.4789 11.3049C62.4511 11.3038 62.4287 11.3308 62.4356 11.3551C62.4442 11.3848 62.4693 11.4098 62.4869 11.4368C62.4998 11.4177 62.5131 11.3985 62.5217 11.3857ZM48.1199 6.79039C48.1245 6.74366 48.0889 6.73963 48.0579 6.73345C48.0263 6.72732 47.9875 6.71909 47.971 6.75383C47.954 6.78996 47.9829 6.81174 48.0154 6.82206C48.0565 6.83502 48.0944 6.83239 48.1199 6.79039ZM63.5888 11.7705C63.7011 11.7589 63.7792 11.7509 63.8578 11.7427C63.7738 11.7057 63.6894 11.5902 63.5888 11.7705ZM79.913 14.1594C79.8761 14.1114 79.8269 14.1369 79.7927 14.1158C79.7408 14.0842 79.6901 14.0897 79.6778 14.1502C79.6628 14.2237 79.7323 14.2213 79.7767 14.2213C79.8221 14.2214 79.8777 14.2279 79.913 14.1594ZM57.4907 10.021C57.5971 10.0478 57.7014 10.1135 57.8158 10.0417C57.6971 10.0962 57.6105 9.93307 57.4907 10.021ZM71.6191 13.1926C71.7095 13.202 71.7656 13.1793 71.8234 13.2005C71.864 13.2154 71.9057 13.2056 71.9217 13.1547C71.933 13.1191 71.9233 13.0891 71.8918 13.0689C71.8512 13.0427 71.8127 13.0064 71.7635 13.0594C71.7255 13.1003 71.6812 13.1356 71.6191 13.1926ZM61.9956 11.2528C61.9379 11.1928 62.017 11.0792 61.9293 11.0542C61.8304 11.0259 61.8438 11.1767 61.7443 11.1964C61.8315 11.2551 61.8956 11.287 61.9956 11.2528ZM35.256 36.9024C35.2097 37.0445 35.2316 37.1573 35.2482 37.2689C35.2531 37.3018 35.2838 37.3222 35.3227 37.3144C35.3614 37.3067 35.378 37.2813 35.3732 37.2439C35.3587 37.1305 35.321 37.0257 35.256 36.9024ZM65.7055 12.2301C65.7429 12.1474 65.6943 12.087 65.7172 12.0202C65.7338 11.9727 65.6793 11.9287 65.6253 11.9219C65.5766 11.9156 65.52 11.9159 65.4922 11.967C65.4692 12.0105 65.5082 12.0441 65.5285 12.0793C65.5675 12.1445 65.6162 12.1971 65.7055 12.2301ZM57.9307 20.1772C57.8372 20.2476 57.7634 20.3396 57.6148 20.2508C57.5495 20.2121 57.4191 20.2527 57.3528 20.3515C57.4111 20.4694 57.5207 20.5118 57.6244 20.4687C57.7607 20.4124 57.9056 20.3653 58.0243 20.2703C58.043 20.255 58.0644 20.2374 58.0735 20.2163C58.0863 20.1849 58.0869 20.1473 58.0542 20.1264C58.0211 20.1053 57.9885 20.0627 57.9436 20.0902C57.9104 20.1105 57.9131 20.145 57.9388 20.1749C57.9484 20.0966 57.8832 20.0746 57.8233 19.9906C57.8249 20.1143 57.7827 20.2108 57.9307 20.1772ZM69.7115 12.8001C69.7661 12.8417 69.8142 12.8445 69.8479 12.775C69.8655 12.7388 69.8516 12.7089 69.8147 12.7021C69.7335 12.687 69.7249 12.7479 69.7174 12.8066C69.6501 12.8521 69.5789 12.8066 69.51 12.8146C69.4886 12.7504 69.4661 12.6777 69.379 12.6984C69.2673 12.7251 69.232 12.8165 69.217 12.9188C69.3549 12.971 69.4009 12.7979 69.5175 12.8067C69.5351 12.8901 69.5928 12.9158 69.6677 12.9015C69.7222 12.891 69.7163 12.8428 69.7115 12.8001ZM60.4922 25.5506C60.4473 25.5357 60.3992 25.5524 60.3746 25.5774C60.2714 25.6817 60.2227 25.6033 60.1789 25.5246C60.1131 25.5275 60.1142 25.5715 60.1051 25.6118C60.0805 25.7123 60.0121 25.7228 59.9795 25.6351C59.9239 25.486 59.8228 25.6104 59.825 25.6195C59.8613 25.7677 59.7213 25.7081 59.6779 25.7499C59.6459 25.8396 59.8121 25.9034 59.7202 25.9739C59.6127 26.0563 59.5967 25.9081 59.5384 25.8637C59.4363 25.7856 59.3475 25.7267 59.1973 25.7955C58.9514 25.908 58.6873 25.9791 58.4322 26.071C58.3852 26.0876 58.3274 26.1096 58.3039 26.1474C58.2344 26.26 58.1633 26.2994 58.0414 26.2153C58.0147 26.1967 57.9473 26.2322 57.9008 26.2494C57.2657 26.4846 56.6278 26.7132 55.9975 26.9606C55.7655 27.0516 55.5307 27.1337 55.2998 27.2259C55.0592 27.3217 54.8202 27.4215 54.5802 27.5182C54.339 27.6156 54.0968 27.7099 53.8568 27.8088C53.7787 27.8409 53.6729 27.8496 53.7172 27.9916C53.7311 28.0352 53.644 28.046 53.6274 28.0139C53.5745 27.9107 53.5098 27.9513 53.4403 27.9817C53.1425 28.1132 52.8287 28.2189 52.5528 28.3878C52.4437 28.4548 52.3416 28.4458 52.2411 28.485C52.1374 28.5253 52.0535 28.5954 51.9455 28.6372C51.5899 28.775 51.213 28.8732 50.9056 29.1241C50.8425 29.176 50.7318 29.1397 50.6452 29.1848C50.4816 29.2701 50.3036 29.328 50.1426 29.4171C49.9149 29.5427 49.6684 29.6248 49.4391 29.7442C49.3144 29.8092 49.1408 29.8165 49.1032 29.9997C49.098 30.0247 49.0868 30.0264 49.0667 30.0109C48.9189 29.8978 48.8339 30.0471 48.7242 30.0946C48.5954 30.1503 48.465 30.2028 48.3378 30.2622C48.2558 30.3005 48.1667 30.3281 48.101 30.3925C48.105 30.4888 48.1832 30.4132 48.213 30.4488C48.254 30.4977 48.2885 30.5458 48.219 30.5965C48.1721 30.6309 48.1234 30.6396 48.0986 30.5724C48.0438 30.4247 47.9538 30.4378 47.84 30.5024C47.6945 30.5846 47.5477 30.6661 47.3948 30.7322C47.3007 30.7728 47.2779 30.8504 47.2291 30.9239C47.1698 31.0131 47.0702 30.8407 46.9825 30.9225C46.9587 30.9445 46.9233 30.9538 46.8933 30.9692C46.4412 31.2028 45.991 31.4398 45.5363 31.6683C45.3768 31.7485 45.2726 31.9232 45.0714 31.9336C45.0273 31.9359 45.0209 31.9948 45.0173 32.0377C45.0141 32.0769 44.991 32.1106 44.9557 32.0933C44.828 32.0302 44.7703 32.0862 44.7428 32.2064C44.6059 32.1694 44.5183 32.3003 44.3957 32.3097C44.3207 32.3154 44.2953 32.3586 44.2957 32.4267L44.3036 32.4179C44.1009 32.3915 43.9622 32.5343 43.803 32.6171C43.7331 32.6535 43.6714 32.7108 43.5987 32.7489C43.5494 32.7748 43.4957 32.7952 43.5267 32.8801C43.5758 33.0148 43.4951 33.0185 43.3939 32.9959C43.2493 32.9633 43.1187 32.9928 42.9979 33.084C42.7863 33.2439 42.5254 33.3143 42.3055 33.4601C42.223 33.5148 42.1225 33.5431 42.062 33.6299L42.067 33.6256C41.7669 33.7361 41.5266 33.9553 41.238 34.0875C41.1147 34.144 41.1607 34.2829 41.1228 34.3814C41.1144 34.403 41.1659 34.4519 41.1426 34.4953C41.1316 34.5155 41.1121 34.5359 41.0917 34.5448C41.0665 34.556 41.0409 34.5407 41.0297 34.5157C41.02 34.4936 41.0171 34.4683 41.0123 34.4442C40.9996 34.3802 40.9906 34.2814 40.9123 34.3059C40.8385 34.3291 40.6869 34.3325 40.7437 34.4959C40.751 34.5169 40.7365 34.5453 40.7337 34.5703C40.7274 34.6287 40.7263 34.7144 40.6479 34.6911C40.5653 34.6666 40.6362 34.5936 40.6433 34.5251C40.5334 34.5319 40.4272 34.5138 40.4188 34.68C40.416 34.7331 40.3651 34.7926 40.2914 34.7702C40.1513 34.7279 40.0513 34.808 39.9425 34.8713C39.3322 35.2257 38.7347 35.6006 38.147 35.9921C37.9839 36.1007 37.975 36.1355 38.0544 36.3844C37.9951 36.4667 37.9167 36.2792 37.8693 36.394C37.8331 36.4815 37.7706 36.5803 37.8817 36.6692C37.9132 36.6943 37.929 36.7383 37.9115 36.8039C37.8017 36.7807 37.6767 36.9618 37.5607 36.6828C37.5571 36.863 37.5466 36.9596 37.5515 37.0604C37.5613 37.2647 37.5526 37.2675 37.3351 37.2867C37.1692 37.3013 37.1692 37.3013 37.0623 37.2274C37.066 37.3946 36.9808 37.5611 37.1137 37.7099C37.1323 37.7307 37.1223 37.7559 37.0991 37.7713C37.0416 37.8094 37.0107 37.7617 36.9492 37.6838C36.9638 37.9664 36.8866 38.2099 37.0724 38.4188C37.1297 38.483 37.133 38.5646 37.0651 38.6226C36.9658 38.7075 36.9658 38.7986 36.9954 38.9177C37.0265 39.044 36.9475 39.1438 36.8214 39.1837C36.679 39.2284 36.5949 39.1864 36.5573 39.0417C36.5132 38.8722 36.5017 38.6965 36.4884 38.5177C36.4176 38.5415 36.418 38.5876 36.4149 38.6276C36.3915 38.9327 36.4289 39.2312 36.5268 39.5203C36.5757 39.6646 36.5982 39.7998 36.4747 39.918C36.3305 40.0561 36.1537 40.0171 36.1214 39.8209C36.0355 39.2971 35.8433 38.7933 35.8365 38.2541C35.8345 38.0868 35.7936 37.9201 35.771 37.7531C35.7621 37.6859 35.7337 37.6532 35.6583 37.6469C35.4444 37.629 35.4448 37.6248 35.4151 37.4046C35.3464 37.3655 35.3 37.4763 35.2319 37.4339C35.1728 37.3974 35.1857 37.3296 35.1724 37.2748C35.1544 37.2016 35.1423 37.1263 35.1357 37.0512C35.1151 36.8156 35.096 36.58 34.971 36.3708C34.9242 36.2923 34.9489 36.2055 34.9366 36.1234C34.9259 36.0518 34.9383 35.9981 34.8318 36.0296C34.7909 36.0419 34.7948 35.9853 34.8076 35.9376C34.8779 35.6753 34.913 35.4117 34.7486 35.1677C34.7214 35.1271 34.7161 35.0943 34.7359 35.0528C34.8076 34.9017 34.7851 34.7461 34.7806 34.5848C34.7751 34.3848 34.8243 34.1832 34.8507 33.9824C34.8641 33.882 34.8843 33.7821 34.8925 33.6813C34.9138 33.4169 34.9853 33.1746 35.1291 32.946C35.2258 32.7923 35.2792 32.6106 35.3485 32.44C35.3672 32.3938 35.3785 32.3429 35.358 32.2918C35.3117 32.1766 35.3482 32.1137 35.4733 32.1033C35.5312 32.0984 35.5656 32.0578 35.5756 32.0061C35.606 31.8465 35.7289 31.7431 35.8034 31.6107C35.8365 31.5516 35.8758 31.5085 35.9408 31.5366C36.094 31.603 36.1821 31.5296 36.2421 31.402C36.2823 31.3164 36.3248 31.2617 36.4333 31.2869C36.4925 31.3006 36.5614 31.2585 36.5841 31.2109C36.6903 30.9895 36.9282 30.9615 37.1048 30.85C37.2765 30.7413 37.4128 30.6267 37.4644 30.4254C37.4703 30.4022 37.4908 30.3829 37.5044 30.3618C37.5371 30.3107 37.523 30.2044 37.6207 30.2287C37.7204 30.2536 37.6925 30.3207 37.6425 30.3815C37.6391 30.3858 37.6537 30.4153 37.6649 30.4193C37.6994 30.432 37.7379 30.4185 37.7539 30.3912C37.7994 30.3131 37.8216 30.2218 37.9318 30.1985C37.9959 30.1849 38.028 30.1116 38.1285 30.1528C38.2258 30.1929 38.3138 30.0833 38.3209 29.9627C38.3238 29.9142 38.3272 29.8659 38.3309 29.8106C38.4644 29.9046 38.4644 29.9046 38.5702 29.7938C38.6215 29.7399 38.6625 29.6679 38.7489 29.762C38.7864 29.8026 38.8442 29.7564 38.8852 29.7298C39.0597 29.6158 39.2362 29.5042 39.4046 29.3819C39.4922 29.3183 39.4741 29.221 39.4408 29.1306C39.4182 29.0692 39.4395 29.0307 39.5019 29.022C39.5605 29.0138 39.5709 29.0579 39.5697 29.1028C39.5685 29.1472 39.5734 29.2078 39.6264 29.1821C39.7714 29.1118 39.9587 29.115 40.0597 28.973C40.1268 28.8785 40.1679 28.7756 40.3013 28.7536C40.3355 28.7478 40.3296 28.6838 40.3206 28.6396C40.3118 28.5966 40.3459 28.5713 40.3718 28.6105C40.4417 28.7162 40.5284 28.597 40.6189 28.6384C40.7081 28.679 40.748 28.5417 40.7714 28.451C40.7863 28.3938 40.7627 28.297 40.8796 28.335C40.8795 28.335 40.8749 28.335 40.8749 28.335C40.9459 28.2839 41.0294 28.2765 41.1121 28.2648C41.1763 28.2555 41.2258 28.2316 41.2027 28.1515C41.2608 28.1661 41.3209 28.1862 41.3432 28.1035C41.347 28.0891 41.3424 28.0602 41.3343 28.057C41.2438 28.0198 41.2929 28.1483 41.2303 28.1478C41.2224 28.1476 41.2143 28.1521 41.2065 28.1544C41.1063 28.0843 41.2052 27.9334 41.0897 27.8642C41.0703 27.8528 41.0962 27.7998 41.1293 27.7844C41.1692 27.7661 41.2198 27.7594 41.2334 27.8116C41.2915 28.035 41.5214 27.9221 41.6473 28.0249C41.6955 28.0643 41.7974 27.9851 41.851 27.9107C41.9347 27.7946 42.0181 27.6879 42.197 27.7285C42.2648 27.7439 42.3457 27.6824 42.2842 27.577C42.2665 27.5471 42.2598 27.5139 42.2918 27.4863C42.499 27.582 42.545 27.5746 42.7171 27.4024C42.747 27.3724 42.7714 27.3296 42.8133 27.327C42.9848 27.3168 42.9763 27.1969 42.9513 27.0606C43.1315 27.2062 43.1317 27.2063 43.3119 27.1071C43.4002 27.0584 43.4862 27.0049 43.5769 26.9612C43.6706 26.916 43.7526 26.8629 43.7874 26.7578C43.8256 26.6426 43.9387 26.5976 44.0254 26.5553C44.2729 26.4347 44.2763 26.4404 44.4252 26.2322C44.533 26.0815 44.6464 25.9234 44.8871 26.0048C44.8217 26.125 44.7106 26.1793 44.5835 26.2156C44.5528 26.2244 44.5191 26.2509 44.538 26.2909C44.5551 26.3272 44.5881 26.3167 44.6227 26.3065C44.8905 26.2272 45.1243 26.0704 45.3832 25.9688C45.4774 25.9319 45.6597 25.9066 45.5949 25.7046C45.584 25.6708 45.662 25.6411 45.6913 25.6754C45.7628 25.759 45.8322 25.7189 45.8905 25.6768C46.0206 25.5829 46.2051 25.5649 46.2643 25.3641C46.2839 25.2979 46.4141 25.2422 46.5237 25.2695C46.7084 25.3153 46.8571 25.2602 46.9461 25.0906C46.9723 25.0405 46.998 25.0377 47.0394 25.0347C47.2518 25.0194 47.4155 24.9216 47.5291 24.7396C47.5378 24.7254 47.5487 24.7018 47.5592 24.7015C47.7346 24.6958 47.8609 24.61 47.9635 24.4716C48.0413 24.3664 48.0892 24.6152 48.1635 24.4993C48.2063 24.4325 48.2301 24.3686 48.3269 24.3748C48.4725 24.3839 48.5983 24.3008 48.7366 24.2735C48.7612 24.2687 48.7916 24.2658 48.8075 24.2499C49.0084 24.0507 49.2872 24.0183 49.5305 23.913C49.6813 23.8479 49.7336 23.6769 49.8657 23.625C49.9881 23.577 50.148 23.6415 50.2555 23.5131C50.2827 23.4805 50.3212 23.4497 50.3651 23.4702C50.5089 23.5378 50.6024 23.4468 50.7019 23.3695C50.8093 23.2865 50.9264 23.2191 51.0537 23.1757C51.1777 23.1333 51.2542 23.0591 51.2665 22.9311C51.3445 22.9132 51.3541 22.978 51.3873 23.0092C51.4616 23.0799 51.5295 23.051 51.5803 22.9853C51.6257 22.927 51.637 22.8238 51.7172 22.8153C51.8305 22.8034 51.7273 22.6096 51.8759 22.6473C51.969 22.6709 52.0657 22.6063 52.1459 22.6241C52.3507 22.6692 52.432 22.5446 52.5148 22.4043L52.509 22.4098C52.5993 22.4164 52.6902 22.4228 52.7811 22.4295C52.8223 22.3824 52.7683 22.3583 52.757 22.3238C52.7373 22.2645 52.7784 22.2349 52.8196 22.2586C52.9885 22.3566 53.1409 22.373 53.2794 22.2066C53.3018 22.1795 53.3409 22.1904 53.3745 22.1947C53.4964 22.2102 53.5868 22.1773 53.6215 22.043C53.6285 22.0154 53.6643 21.9764 53.6884 21.9751C53.8883 21.9641 53.9006 21.7983 53.9161 21.6678C53.93 21.5525 53.9776 21.513 54.0899 21.495C53.9675 21.5959 54.0145 21.7098 54.0573 21.8104C54.0867 21.8796 54.1508 21.9037 54.2129 21.822C54.2658 21.7516 54.3235 21.6706 54.3572 21.6021C54.4203 21.4718 54.5828 21.519 54.6352 21.3956C54.6454 21.3712 54.7138 21.401 54.7186 21.453C54.7218 21.4956 54.6796 21.5692 54.7684 21.5498C54.8218 21.5382 54.9084 21.5098 54.8314 21.4125C54.7892 21.3596 54.8523 21.3235 54.879 21.3526C54.9811 21.4642 55.0592 21.3886 55.1383 21.3324C55.188 21.2971 55.233 21.2712 55.2976 21.2775C55.3869 21.2861 55.5126 21.3411 55.4837 21.1548C55.4794 21.1261 55.5318 21.113 55.5655 21.13C55.6088 21.152 55.6409 21.1999 55.7034 21.1857C55.7954 21.1406 55.6291 21.0729 55.7131 21.0241C55.7997 21.021 55.7831 21.135 55.8558 21.1503C55.8686 21.1476 55.8927 21.1492 55.8975 21.1403C55.9659 21.0151 56.0878 20.9937 56.2103 20.9594C56.3033 20.9332 56.437 20.9195 56.3386 20.7463C56.2953 20.6696 56.3765 20.6159 56.4733 20.6521C56.5022 20.6629 56.5295 20.728 56.5466 20.7019C56.6626 20.5263 56.7364 20.6731 56.831 20.7253C56.9326 20.7813 57.0101 20.749 57.0694 20.6226C57.155 20.4402 57.2635 20.2775 57.4202 20.1324C57.2961 20.0885 57.1967 20.0962 57.0972 20.1848C57.024 20.2496 56.9914 20.2328 57.001 20.1193C57.0128 19.9835 56.9481 19.9263 56.8203 19.9144C56.762 19.909 56.7032 19.9091 56.6449 19.9066C56.5332 19.9022 56.5065 19.9329 56.5808 20.0318C56.6011 20.0591 56.5482 20.0772 56.5166 20.084L56.5214 20.0855C56.329 19.8217 56.0461 19.927 55.7949 19.9107C55.7291 19.9063 55.7131 19.992 55.7072 20.0453C55.6997 20.1096 55.7109 20.1786 55.727 20.2423C55.7467 20.3212 55.7532 20.3905 55.6778 20.4473C55.5762 20.4057 55.5789 20.2837 55.5062 20.2149C55.4607 20.1716 55.5505 20.1193 55.5644 20.0647C55.5901 19.9596 55.5468 19.8967 55.4447 19.8991C55.4174 19.8999 55.3843 19.8962 55.3762 19.9477C55.3527 20.0999 55.349 20.0993 55.2041 20.0619C55.2046 20.0619 55.2062 20.068 55.2062 20.068C55.0902 19.9048 55.0902 19.9076 54.8662 19.904C54.7518 19.9022 54.6379 19.886 54.5235 19.8807C54.4657 19.8779 54.4059 19.8759 54.3508 19.8898C54.261 19.9125 54.1899 19.9584 54.0845 19.8881C53.9915 19.8261 53.8557 19.8669 53.7434 19.8881C53.6707 19.902 53.6034 19.9208 53.5269 19.9219C53.4825 19.9226 53.4574 20.0118 53.3681 19.9738C53.3002 19.9453 53.2992 20.0487 53.2639 20.0893C53.235 20.1226 53.1981 20.1514 53.1612 20.105C53.1302 20.0656 53.1067 20.017 53.1783 19.9889C53.1521 19.9236 53.251 19.9349 53.2409 19.8656C53.1992 19.8824 53.1398 19.8409 53.1168 19.9009C53.1019 19.9397 53.1537 19.9642 53.1831 19.9889C52.8859 19.8302 52.5785 19.8273 52.2598 19.9176C52.1534 19.9478 52.0326 20.0099 51.939 19.8769C51.9283 19.8622 51.892 19.8619 51.8674 19.8619C51.5915 19.8608 51.3135 19.842 51.0398 19.867C50.7986 19.8889 50.5629 19.8813 50.3239 19.8614C50.1485 19.8471 49.9716 19.8616 49.7957 19.8571C49.6743 19.8542 49.6134 19.9684 49.5064 19.9954C49.4161 20.0184 49.4182 20.0284 49.3968 19.9057C49.3877 19.8515 49.3062 19.8259 49.2751 19.882C49.2122 19.9946 49.1575 19.9859 49.0871 19.9031C49.0283 19.8339 48.9507 19.8492 48.877 19.8489C48.4162 19.8474 47.9551 19.8375 47.4947 19.8506C47.2662 19.8571 47.0439 19.9028 46.8099 19.8528C46.6332 19.8151 46.4417 19.8435 46.2569 19.8485C46.154 19.8511 46.1541 19.8566 46.1187 20.0051C46.0312 20.03 46.0945 19.7775 45.9503 19.9093C45.8764 19.8355 45.7822 19.8466 45.6905 19.8467C45.0115 19.8486 44.3323 19.8503 43.6533 19.8523C42.1579 19.857 40.6626 19.8614 39.1674 19.8674C38.992 19.8681 38.8174 19.8811 38.6421 19.8963C38.4908 19.9094 38.3318 19.8593 38.1744 19.8707C38.0683 19.8786 37.9549 19.8412 37.8592 19.9227C37.8435 19.936 37.8093 19.9406 37.789 19.9335C37.4875 19.8277 37.184 19.8513 36.8809 19.9202C36.7848 19.9421 36.7105 19.8744 36.6134 19.8804C36.1552 19.9086 35.6958 19.841 35.236 19.9057C35.1102 19.9233 34.9729 19.875 34.8383 19.8747C33.6453 19.873 32.4522 19.8568 31.2594 19.8718C30.8548 19.8769 30.4518 19.8481 30.0476 19.858C29.6448 19.8676 29.2415 19.8575 28.8384 19.8552C28.4269 19.8528 28.0153 19.8499 27.6039 19.846C27.2006 19.8423 26.7972 19.8259 26.3943 19.8364C26.1292 19.8432 25.8643 19.8268 25.5972 19.8515C25.4512 19.8651 25.2861 19.8277 25.128 19.8264C24.3896 19.8207 23.6512 19.8116 22.913 19.8054C22.1916 19.7992 21.4702 19.7935 20.7489 19.7926C20.6733 19.7924 20.5338 19.7211 20.5628 19.9142C20.5694 19.9581 20.4853 19.9647 20.47 19.9236C20.4053 19.7502 20.2616 19.7772 20.1328 19.7838C19.7486 19.8036 19.3648 19.7582 18.9785 19.7938C18.8407 19.8065 18.6869 19.8217 18.5485 19.7827C18.5341 19.813 18.5194 19.8287 18.5215 19.8419C18.5318 19.9031 18.5957 19.9847 18.5007 20.0141C18.4051 20.0437 18.4026 19.9567 18.4 19.8863C18.3962 19.7853 18.3291 19.7605 18.2443 19.7662C17.7007 19.8025 17.1578 19.7494 16.6147 19.7565C16.4996 19.7579 16.3797 19.7358 16.2682 19.7886C16.2194 19.8117 16.1703 19.8127 16.1241 19.7847C16.063 19.7477 15.9895 19.7659 15.9303 19.7437C15.7856 19.6897 15.6645 19.8435 15.5103 19.7658C15.3756 19.6977 15.2129 19.7451 15.0627 19.7395C14.9123 19.7338 14.7618 19.7312 14.6112 19.7295C14.4604 19.7276 14.3085 19.7315 14.1589 19.7262C13.8148 19.7145 13.4712 19.7052 13.127 19.7149C13.058 19.717 12.9992 19.7131 12.9529 19.7821C12.9013 19.8591 12.8227 19.8802 12.7775 19.7823C12.7211 19.6606 12.6151 19.6849 12.5405 19.7064C12.44 19.7358 12.3317 19.7329 12.2359 19.7864C12.1561 19.8312 12.0708 19.8685 12.0191 19.7347C11.9956 19.6742 11.919 19.683 11.8607 19.6823C11.3655 19.675 10.8703 19.6673 10.375 19.6629C10.2751 19.6622 10.2033 19.7154 10.1207 19.7781C10.0335 19.844 10.0077 19.6347 9.87864 19.6534C9.73141 19.6748 9.57909 19.6648 9.42912 19.6611C9.36491 19.6594 9.31198 19.6676 9.27755 19.7254C9.21943 19.823 9.23601 19.7238 9.22558 19.7049C9.21206 19.6804 9.1765 19.6611 9.17073 19.6784C9.0954 19.9013 9.02124 19.7596 8.93597 19.6853C8.87491 19.6322 8.79049 19.6514 8.7165 19.6553C8.24329 19.6793 7.76906 19.6562 7.29532 19.7091C7.14669 19.7258 6.98138 19.6926 6.82345 19.7037C6.74346 19.7092 6.65423 19.6799 6.5913 19.7644C6.55522 19.8127 6.52298 19.7802 6.49037 19.7498C6.47395 19.7344 6.42877 19.7202 6.42648 19.7239C6.32185 19.8949 6.21925 19.7917 6.09131 19.7491C6.00218 19.7195 5.83377 19.683 5.79549 19.8758C5.78763 19.9156 5.70701 19.9275 5.69183 19.8887C5.62655 19.7218 5.47391 19.775 5.37901 19.7878C4.9321 19.8477 4.47996 19.833 4.03412 19.8999C3.81289 19.9329 3.80915 19.9252 3.76835 20.1514C3.74034 20.3069 3.68078 20.4612 3.76509 20.621C3.80209 20.6909 3.75397 20.7512 3.70216 20.798C3.6395 20.8546 3.62641 20.9193 3.63961 21.0027C3.67955 21.2553 3.56514 21.3737 3.30915 21.3544C3.28568 21.3526 3.26221 21.3507 3.23574 21.3487C3.18864 21.4823 3.17929 21.6084 3.21313 21.7474C3.25873 21.9344 3.17693 22.0817 3.02526 22.1399C2.904 22.1864 2.81717 22.1447 2.81044 22.0179C2.79418 21.7116 2.67517 21.4303 2.61406 21.1353C2.58423 20.9912 2.60883 20.8491 2.62011 20.7067C2.6301 20.5802 2.64507 20.4545 2.61898 20.3282C2.57995 20.1393 2.3939 20.0278 2.24901 20.138C2.12957 20.2287 2.03901 20.2559 1.91385 20.1806C1.89685 20.1704 1.86503 20.1881 1.84017 20.1877C1.7225 20.1857 1.6978 20.399 1.52057 20.3041C1.42572 20.2533 1.29548 20.3688 1.16885 20.3759C1.06448 20.3817 0.993363 20.4689 0.972982 20.5804C0.959295 20.6551 0.952356 20.7311 0.936589 20.8052C0.881452 21.0645 0.748637 21.1165 0.530006 20.9665L0.538758 20.9757C0.593062 20.8568 0.610726 20.7265 0.58524 20.6043C0.541651 20.3951 0.565779 20.184 0.541255 19.9746C0.52057 19.7975 0.561636 19.6213 0.623681 19.4532C0.708325 19.224 0.708737 18.9956 0.624723 18.7666C0.580065 18.6448 0.642997 18.5353 0.662132 18.4208C0.668852 18.3807 0.689912 18.3342 0.646943 18.3042C0.592388 18.266 0.554145 18.3105 0.516261 18.3416C0.503739 18.352 0.498045 18.3705 0.485952 18.3816C0.383905 18.4754 0.363145 18.471 0.336563 18.3401C0.31399 18.229 0.298812 18.1164 0.276068 17.9782C0.145974 18.0756 0.202213 18.2219 0.125781 18.3048C0.0821061 18.1615 0.0873672 18.0507 0.180336 17.8509C0.231554 17.7406 0.267188 17.649 0.146172 17.5658C0.058272 17.5054 0.0910189 17.4142 0.0958894 17.3338C0.107625 17.1399 0.153785 16.9508 0.177679 16.758C0.202999 16.5536 0.172642 16.3625 0.0746481 16.1973C-0.0215818 16.035 0.0437138 15.8667 0.00222043 15.7058C-0.0132627 15.6458 0.0557432 15.6345 0.100156 15.6117C0.214243 15.5529 0.297186 15.4728 0.338118 15.3385C0.375805 15.2149 0.472773 15.1161 0.519805 14.9896C0.552568 14.9014 0.588731 14.9991 0.622451 15.0182C0.655107 15.0368 0.686394 15.0363 0.708955 15.0024C0.72453 14.9789 0.718125 14.955 0.700006 14.9354C0.682908 14.9169 0.661747 14.902 0.646039 14.8826C0.495469 14.6961 0.502921 14.6285 0.687607 14.4936C0.803095 14.4092 0.864466 14.4154 0.995079 14.5251C1.13294 14.6409 1.2209 14.6502 1.35387 14.561C1.37429 14.5472 1.40856 14.5251 1.40663 14.5113C1.37728 14.3041 1.47282 14.3433 1.59108 14.4106C1.60413 14.418 1.65562 14.3924 1.65572 14.3819C1.65727 14.2271 1.76308 14.257 1.86439 14.2334C1.95897 14.2115 2.03093 14.1309 2.15032 14.1188C2.35567 14.0979 2.55825 14.0336 2.7505 13.9465C2.79905 13.9246 2.81193 13.8994 2.80568 13.8526C2.79937 13.8056 2.75938 13.7607 2.78755 13.715C2.84305 13.6873 2.84423 13.7233 2.85877 13.754C2.94682 13.9391 2.94618 13.9358 3.11267 13.8252C3.19201 13.7724 3.2597 13.7087 3.38218 13.7744C3.4835 13.8288 3.5877 13.7361 3.6332 13.598C3.68554 13.439 3.72211 13.4244 3.84935 13.531C3.91704 13.5877 3.96061 13.6595 4.04722 13.5479C4.11052 13.4662 4.15623 13.5179 4.18264 13.5965C4.18895 13.6151 4.21863 13.626 4.23654 13.6396C4.31374 13.5759 4.27043 13.4724 4.32529 13.4077C4.35159 13.3767 4.38388 13.344 4.4297 13.3432C4.48985 13.3421 4.49375 13.3889 4.49151 13.4312C4.48825 13.4942 4.49856 13.5113 4.55203 13.4621C4.63228 13.3881 4.68718 13.4151 4.71509 13.5125C4.72771 13.5564 4.74904 13.5724 4.79481 13.5901C5.04267 13.686 5.04892 13.6992 5.26679 13.5229C5.32442 13.4761 5.35388 13.471 5.41109 13.486C5.46295 13.4994 5.54106 13.4706 5.5394 13.5644C5.53774 13.6581 5.43349 13.5759 5.40772 13.6372C5.43766 13.6959 5.48861 13.6763 5.53566 13.6718C5.83752 13.6433 6.14499 13.6815 6.44118 13.5803C6.5665 13.5374 6.72454 13.6281 6.83109 13.4837C6.85007 13.4579 6.88675 13.5016 6.91466 13.5185C6.99956 13.5706 7.0905 13.5443 7.18123 13.5338C7.26762 13.5236 7.22191 13.3798 7.33312 13.3923C7.35488 13.3947 7.36183 13.3403 7.33691 13.3076C7.31007 13.2725 7.28853 13.231 7.34857 13.2085C7.38893 13.1934 7.40396 13.233 7.42401 13.2588C7.48677 13.3395 7.52035 13.421 7.42935 13.4989C7.45769 13.5528 7.50495 13.5625 7.54173 13.5561C7.80146 13.5108 8.06825 13.5553 8.32616 13.4897C8.54135 13.4351 8.7535 13.5266 8.97195 13.5039C9.1124 13.4892 9.19548 13.4566 9.21077 13.3131C9.22558 13.1745 9.34016 13.1785 9.43078 13.1617C9.5206 13.145 9.53108 13.225 9.55 13.2949C9.52151 13.2966 9.49659 13.3031 9.47403 13.2984C9.40971 13.2849 9.32716 13.2446 9.32914 13.359C9.33069 13.4479 9.41479 13.4651 9.47783 13.4408C9.5855 13.3989 9.71537 13.5017 9.80952 13.3796C9.8348 13.3468 9.86309 13.3884 9.88784 13.4097C9.94013 13.4545 9.99701 13.4892 10.0704 13.452C10.1675 13.4028 10.116 13.3219 10.1157 13.2512C10.1155 13.2265 10.1212 13.2019 10.1273 13.1526C10.204 13.1781 10.229 13.2599 10.2958 13.2854C10.3533 13.3072 10.389 13.3906 10.4462 13.4088C10.5243 13.4335 10.5061 13.3082 10.5768 13.2898C10.618 13.2792 10.6622 13.2503 10.6919 13.2867C10.7474 13.3546 10.8319 13.3224 10.8972 13.363C11.0083 13.4319 11.1273 13.4449 11.2465 13.3601C11.2772 13.3381 11.3356 13.3059 11.3747 13.3718C11.416 13.4414 11.6487 13.5098 11.7207 13.4824C11.7654 13.4654 11.761 13.43 11.7579 13.3994C11.7505 13.327 11.7367 13.2552 11.7372 13.1702C11.7932 13.2473 11.8293 13.3551 11.9519 13.2954C11.9353 13.3366 11.951 13.3721 11.9718 13.4063C11.9887 13.4339 12.011 13.4622 12.0448 13.4426C12.0795 13.4229 12.055 13.3867 12.0525 13.358C12.0513 13.3431 12.0425 13.3287 12.037 13.314C12.115 13.4176 12.2304 13.4101 12.3409 13.4178L12.3338 13.4116C12.4761 13.494 12.6165 13.5301 12.7888 13.4858C12.9406 13.4468 13.1063 13.4601 13.2642 13.4993C13.3041 13.5089 13.3511 13.5253 13.3864 13.5135C13.5446 13.4601 13.6907 13.4749 13.8512 13.5256C13.9501 13.557 14.0821 13.4989 14.166 13.4303C14.2649 13.3494 14.3043 13.3847 14.3651 13.4635C14.4381 13.5579 14.4444 13.5561 14.5644 13.481C14.5879 13.4665 14.6036 13.4647 14.6289 13.465C14.7671 13.4665 14.9109 13.4897 14.997 13.3298C15.018 13.2907 15.0951 13.2798 15.1049 13.3592C15.118 13.4658 15.2146 13.4791 15.2766 13.5275C15.3569 13.5903 15.4231 13.5259 15.5022 13.4954C15.6176 13.4508 15.7218 13.5773 15.8491 13.5664C15.903 13.5618 15.9641 13.6189 16.0189 13.5935C16.2145 13.5031 16.4106 13.5843 16.6056 13.5849C16.7445 13.5854 16.8874 13.5057 17.0252 13.6017C17.0514 13.6201 17.0914 13.5869 17.1052 13.5556C17.1653 13.419 17.2189 13.404 17.3378 13.5187C17.4724 13.6485 17.661 13.6496 17.8385 13.6116C17.9564 13.5866 18.0664 13.5843 18.1853 13.6141C18.3062 13.6442 18.4335 13.6433 18.5433 13.5566C18.6283 13.49 18.7368 13.4872 18.8225 13.5259C19.2217 13.7067 19.4143 13.5801 19.637 13.2817C19.6737 13.2326 19.6839 13.1622 19.7588 13.219C19.8167 13.2628 19.8075 13.3181 19.7596 13.3711C19.7208 13.414 19.6967 13.4711 19.6482 13.4889C19.7814 13.6061 19.9129 13.6467 20.0856 13.5169C20.1452 13.472 20.2913 13.5435 20.3961 13.5616C20.4238 13.5216 20.3958 13.4968 20.3796 13.4679C20.3506 13.4173 20.3496 13.3645 20.412 13.3463C20.4675 13.3301 20.5097 13.3587 20.5076 13.4257C20.5066 13.4502 20.4903 13.4814 20.5003 13.4977C20.5304 13.5471 20.9731 13.6723 21.0175 13.6303C21.1604 13.4951 21.2984 13.4835 21.4751 13.5681C21.5533 13.6054 21.5009 13.4471 21.5779 13.4301C21.5935 13.4355 21.6201 13.438 21.6221 13.4465C21.6737 13.6655 21.7223 13.7093 21.9186 13.65C22.0175 13.6201 22.1121 13.6158 22.211 13.6056C22.3019 13.5962 22.4069 13.5993 22.4554 13.4704C22.4905 13.3772 22.5678 13.3883 22.6092 13.4821C22.6255 13.5187 22.6157 13.5669 22.6506 13.5976C22.6744 13.6187 22.7234 13.6562 22.7316 13.6281C22.7808 13.4607 22.866 13.619 22.9292 13.6004C23.007 13.5775 23.0957 13.5976 23.1654 13.5374C23.1731 13.5309 23.2131 13.5499 23.2276 13.5662C23.346 13.6988 23.4709 13.6894 23.6107 13.6005C23.6285 13.5892 23.7729 13.4621 23.7198 13.6552C23.7434 13.6587 23.7672 13.6659 23.7907 13.6652C23.8574 13.6633 23.9293 13.6402 23.9899 13.6577C24.1441 13.7027 24.2678 13.6613 24.3858 13.5635C24.4979 13.4704 24.6081 13.4613 24.7116 13.5841C24.7772 13.6623 24.8609 13.6758 24.9623 13.6553C25.1091 13.6255 25.2569 13.6213 25.4084 13.655C25.5547 13.6873 25.6855 13.6173 25.8026 13.5334C25.8746 13.4818 25.9391 13.4196 26.0253 13.3466C26.0661 13.4704 25.952 13.5568 26.0224 13.6774C26.2546 13.6774 26.5031 13.6837 26.7513 13.6752C26.9268 13.6694 27.1013 13.6897 27.2733 13.6917C27.5209 13.6948 27.769 13.7148 28.0171 13.7061C28.1495 13.7013 28.2275 13.655 28.2022 13.5105C28.1929 13.4582 28.2071 13.4176 28.2528 13.4176C28.3341 13.4176 28.4142 13.3317 28.4921 13.4022C28.5335 13.4399 28.4967 13.4963 28.4555 13.4924C28.3191 13.4796 28.3099 13.5594 28.3099 13.6797C28.407 13.6511 28.496 13.6635 28.586 13.6703C28.642 13.6746 28.7063 13.6996 28.7568 13.6567C28.8607 13.5687 28.9564 13.5318 29.0397 13.6794C29.1906 13.6325 29.3384 13.7629 29.4923 13.6831C29.5728 13.6414 29.6621 13.6226 29.7535 13.6043C29.8529 13.5844 29.9267 13.5993 30.0102 13.6457C30.3131 13.8143 30.3486 13.7203 30.4827 13.5367C30.4922 13.5236 30.4951 13.5056 30.5014 13.4899C30.5201 13.4426 30.5572 13.4222 30.5999 13.4463C30.6444 13.4713 30.6472 13.5137 30.6051 13.5476C30.5625 13.5818 30.527 13.6181 30.5648 13.6732C30.597 13.7203 30.6593 13.734 30.7003 13.7155C30.9057 13.6232 31.1143 13.7039 31.3162 13.7116C31.7842 13.7295 32.2508 13.7235 32.7182 13.7127C32.8426 13.7099 32.9669 13.744 33.0937 13.7298C33.1517 13.7233 33.2117 13.7338 33.2611 13.6917C33.3343 13.629 33.4083 13.6148 33.486 13.6849C33.4977 13.6954 33.519 13.7065 33.5315 13.7027C33.7922 13.6215 34.0419 13.7681 34.2995 13.7386C34.391 13.7281 34.4841 13.7235 34.5734 13.703C34.7408 13.6644 34.9013 13.704 35.0667 13.7155C35.2879 13.7309 35.5144 13.7695 35.7378 13.7255C35.8752 13.6983 35.9316 13.6063 35.9431 13.3979C36.0182 13.4779 36.002 13.5985 36.0908 13.6552C36.1577 13.636 36.139 13.5793 36.1422 13.5327C36.1466 13.4718 36.1789 13.4347 36.2386 13.4497C36.2993 13.4649 36.2967 13.5141 36.2892 13.5707C36.2669 13.7402 36.2706 13.7474 36.425 13.7436C36.5495 13.7405 36.6791 13.7559 36.7964 13.6977C36.8715 13.6605 36.9429 13.6855 37.0173 13.693C37.0787 13.699 37.137 13.6871 37.1293 13.5988C37.1234 13.5306 37.1526 13.4678 37.2254 13.4877C37.309 13.5105 37.3062 13.5823 37.2676 13.6524C37.2605 13.6652 37.2644 13.6838 37.2625 13.709C37.4246 13.7487 37.5839 13.7647 37.7538 13.7266C37.856 13.7038 37.9689 13.7292 38.0771 13.7338C38.2734 13.7425 38.465 13.7483 38.4876 13.4736C38.4913 13.4304 38.5436 13.4125 38.5892 13.4284C38.6237 13.4406 38.6433 13.4695 38.6317 13.5076C38.6123 13.5704 38.566 13.6359 38.6401 13.6903C38.709 13.7408 38.7781 13.7039 38.8528 13.6926C38.9736 13.6744 39.0954 13.5678 39.232 13.6852C39.2528 13.7031 39.4091 13.6334 39.4269 13.517C39.4305 13.4922 39.4338 13.4674 39.4695 13.4676C39.4741 13.4693 39.4868 13.4709 39.488 13.4755C39.5472 13.7159 39.725 13.7187 39.923 13.7107C40.0863 13.7039 40.25 13.7468 40.415 13.7175C40.5038 13.7016 40.6049 13.7366 40.6603 13.617C40.6959 13.5403 40.73 13.676 40.7739 13.6371C40.8037 13.6108 40.8012 13.546 40.8468 13.5431C40.9149 13.5386 40.9352 13.6084 40.9735 13.6505C41.0763 13.7636 41.2484 13.7653 41.3452 13.655C41.3787 13.617 41.4163 13.5715 41.3972 13.5199C41.3099 13.2836 41.4871 13.4077 41.5737 13.3687C41.4845 13.583 41.4891 13.6045 41.6122 13.668C41.6771 13.7013 41.7207 13.7274 41.7612 13.6247C41.7905 13.55 41.8597 13.5281 41.9352 13.6189C42.0018 13.6988 42.1026 13.7042 42.2119 13.6732C42.3609 13.6307 42.5159 13.6031 42.6727 13.6525C42.7195 13.6673 42.7943 13.69 42.8173 13.668C42.9852 13.5066 43.1415 13.6349 43.295 13.6825C43.492 13.7434 43.6941 13.6873 43.8907 13.7275C43.9194 13.7334 43.9693 13.7213 43.9826 13.7004C44.0342 13.6192 44.0618 13.4588 44.1574 13.6742C44.1689 13.7004 44.202 13.6803 44.2191 13.661C44.3149 13.5525 44.4096 13.5763 44.5013 13.6647C44.5711 13.7323 44.654 13.745 44.7321 13.701C44.7893 13.6685 44.8288 13.6454 44.885 13.698C44.911 13.7223 44.9544 13.7147 44.9666 13.6761C45.0084 13.5417 45.0532 13.61 45.1159 13.6623C45.1479 13.6891 45.1913 13.643 45.2241 13.617L45.2174 13.6233C45.4335 13.6613 45.653 13.6646 45.8704 13.7063C46.0502 13.7409 46.2497 13.7212 46.4304 13.6804C46.5149 13.6613 46.5814 13.6556 46.6611 13.6742C46.7363 13.6917 46.8183 13.7493 46.8875 13.6474C46.9005 13.6284 46.9676 13.6374 47.0064 13.6471C47.224 13.701 47.4355 13.6508 47.6472 13.6128C47.7207 13.5996 47.7854 13.5874 47.861 13.6222C47.9528 13.6646 48.0554 13.6763 48.1499 13.6096C48.1559 13.5368 48.0912 13.5303 48.054 13.5207C47.7814 13.4495 47.5455 13.2444 47.2406 13.2918C47.2042 13.2974 47.1573 13.2889 47.1501 13.2645C47.1048 13.1137 46.9851 13.1313 46.8697 13.0919C46.7842 13.0629 46.7552 12.9987 46.7011 13.1128C46.6874 13.1414 46.6504 13.1632 46.6151 13.1467C46.583 13.1318 46.5634 13.096 46.58 13.0629C46.6292 12.9646 46.5789 12.9357 46.495 12.9024C46.0737 12.7353 45.6551 12.5615 45.2357 12.3892C45.1569 12.3568 45.0913 12.3193 45.0221 12.4252C44.9862 12.4801 44.8996 12.4602 44.9365 12.3652C44.9699 12.2789 44.9239 12.2614 44.8667 12.2392C44.4402 12.0734 44.0231 11.885 43.5941 11.7242C43.1931 11.574 42.8078 11.3789 42.4243 11.186C42.2756 11.1112 42.1042 11.121 41.9633 10.9985C41.8432 10.894 41.6556 10.8727 41.5099 10.7924C41.3546 10.7068 41.1884 10.6477 41.0324 10.5664C40.9407 10.5185 40.86 10.5177 40.7569 10.5304C40.6665 10.5415 40.6758 10.3577 40.5515 10.3369C40.4277 10.316 40.3269 10.1773 40.1785 10.2695C40.1431 10.2915 40.1277 10.2459 40.1096 10.2175C40.0249 10.0839 39.9458 10.0479 39.7573 10.0559C39.7328 10.0569 39.7031 10.0692 39.698 10.0377C39.6661 9.84096 39.4835 9.85467 39.3586 9.7923C38.7761 9.50171 38.1909 9.21618 37.6075 8.92726C37.443 8.8459 37.2667 8.78912 37.1046 8.71023C36.9455 8.63264 36.8026 8.5102 36.6302 8.45852C36.4227 8.39614 36.2745 8.22854 36.0707 8.16358C36.0096 8.14412 35.9597 8.0841 35.8847 8.12793C35.8686 8.13734 35.8216 8.12933 35.8184 8.11943C35.7374 7.87498 35.4771 7.91569 35.322 7.77712C35.3146 7.81186 35.3051 7.82863 35.3095 7.83992C35.3315 7.89488 35.368 7.95381 35.2974 7.99549C35.2454 8.02619 35.1963 7.99118 35.1668 7.95123C35.1317 7.90337 35.0665 7.84627 35.1532 7.78793C35.1877 7.76459 35.204 7.7427 35.1741 7.71168C35.142 7.67834 35.1154 7.71119 35.0878 7.72867C35.027 7.76706 35.0197 7.83234 35.0359 7.8859C35.1042 8.10879 35.166 8.33549 35.2957 8.55064C35.1591 8.62662 35.0533 8.72647 35.1225 8.93371C35.1614 9.04997 35.06 9.1523 34.9474 9.16601C34.829 9.18053 34.7866 9.10831 34.7579 9.00872C34.7128 8.85176 34.6936 8.68275 34.5566 8.52085C34.486 8.85983 34.5654 9.15009 34.6331 9.43917C34.6543 9.52935 34.6867 9.61576 34.6878 9.71035C34.6885 9.7823 34.6643 9.84279 34.6183 9.89527C34.5211 10.0061 34.371 9.9948 34.346 9.85526C34.2894 9.53967 34.0881 9.27651 34.0686 8.94188C34.0563 8.73233 33.9729 8.51687 33.912 8.30726C33.8772 8.18794 33.8654 8.07991 33.8995 7.96172C33.9406 7.81863 33.9119 7.67662 33.8769 7.53648C33.8662 7.49374 33.8413 7.44421 33.7942 7.4618C33.6604 7.51148 33.6477 7.4277 33.6171 7.3314C33.5464 7.10851 33.4435 6.89864 33.3125 6.63483C33.2767 6.94074 33.508 7.14045 33.4621 7.39248C33.3863 7.37474 33.3777 7.32306 33.3694 7.27305C33.3444 7.12114 33.2832 6.98241 33.2198 6.84427C33.1748 6.74673 33.1084 6.65569 33.1771 6.53621C33.2212 6.4598 33.1429 6.41415 33.0997 6.36817C32.9843 6.24498 32.8661 6.12458 32.771 5.98445C32.7039 5.88551 32.6442 5.78458 32.7006 5.65557C32.7285 5.59164 32.7191 5.52066 32.6988 5.45613C32.6315 5.24223 32.6939 5.01783 32.6427 4.80237C32.6243 4.72472 32.6746 4.65573 32.703 4.58615C32.768 4.42607 32.7816 4.26034 32.7693 4.08934C32.7588 3.94196 32.7159 3.83387 32.5877 3.72907C32.4368 3.60555 32.3327 3.42197 32.2156 3.25926C32.1755 3.20382 32.1642 3.1344 32.2552 3.09321C32.3222 3.15881 32.2686 3.3297 32.3802 3.30722C32.5027 3.28265 32.4127 3.15687 32.4167 3.07293C32.4225 2.94899 32.3402 2.8401 32.3395 2.74686C32.3387 2.61802 32.2937 2.52203 32.2518 2.41685C32.2124 2.31802 32.1836 2.23214 32.2802 2.14229C32.3689 2.0598 32.3407 1.93866 32.3382 1.8324C32.335 1.6963 32.3244 1.56348 32.4177 1.44658C32.4753 1.37431 32.4287 1.28107 32.4509 1.20047C32.4934 1.0463 32.5571 0.900631 32.6258 0.756577C32.7125 0.574554 32.7107 0.573639 32.5204 0.559929C32.5141 0.52132 32.5377 0.506157 32.5649 0.482605C32.6358 0.420979 32.7288 0.464588 32.7941 0.429047C32.8646 0.390759 32.7713 0.254498 32.8861 0.218307L32.8853 0.214973C32.918 0.252724 32.9443 0.300369 32.9846 0.32618C33.0616 0.375706 33.1066 0.347206 33.1016 0.25407C33.0992 0.206375 33.0599 0.153511 33.125 0.123131C33.1827 0.096138 33.2186 0.126736 33.2405 0.181797C33.2543 0.216213 33.3047 0.241272 33.3036 0.198254C33.3002 0.0476913 33.5121 0.171261 33.5037 0.0284424C33.5035 0.0251617 33.5454 0.0133286 33.5476 0.0169296C33.64 0.182549 33.7913 -0.0108681 33.8967 0.0755424C33.9364 0.108185 33.9765 0.0928574 34.0062 0.056778C34.0353 0.0214462 34.0891 -0.0128593 34.1128 0.00477982C34.2494 0.106625 34.4194 -0.0501747 34.551 0.0697365C34.5774 0.0938263 34.6091 0.078125 34.6365 0.0491943C34.6978 -0.0152245 34.7521 0.0237083 34.7673 0.085331C34.7913 0.184166 34.8747 0.145184 34.9283 0.170456C34.9612 0.18594 34.9666 0.174541 35.0514 0.0597916C35.0946 0.0865173 35.0932 0.130714 35.0898 0.171955C35.082 0.267082 35.1383 0.325584 35.2166 0.329723C35.3332 0.335907 35.3416 0.336609 35.2984 0.464317C35.2665 0.558582 35.4231 0.62999 35.5285 0.643379C35.6128 0.654079 35.691 0.659462 35.7607 0.712265C35.7797 0.726624 35.8212 0.726624 35.8259 0.741627C35.9005 0.976719 36.0906 1.06948 36.3002 1.1411C36.3615 1.16208 36.3885 1.21659 36.4071 1.27343C36.4359 1.36178 36.5074 1.39846 36.5792 1.44766C36.6231 1.35683 36.5482 1.1568 36.7631 1.28139C36.8533 1.33371 36.888 1.19745 36.9883 1.15153C36.9711 1.33011 37.0579 1.49234 36.9067 1.62635C36.9431 1.72066 37.0569 1.68834 37.1131 1.75266C37.137 1.78008 37.1765 1.77745 37.2039 1.75164C37.2458 1.71227 37.2828 1.64828 37.3477 1.70684C37.4034 1.75712 37.3227 1.79261 37.3222 1.83659C37.3217 1.87934 37.5328 2.01399 37.5816 1.9828C37.7387 1.88225 37.7899 2.02646 37.8624 2.09658C37.9024 2.13525 37.9394 2.18488 37.9823 2.22215C38.107 2.33076 38.1506 2.32824 38.3206 2.20795C38.2945 2.42137 38.4503 2.47633 38.5849 2.54527C38.8152 2.66319 39.0489 2.77406 39.2803 2.88973C39.3753 2.9371 39.4503 2.91651 39.5536 2.88312C39.669 2.84575 39.5116 3.07191 39.6742 3.09332C39.9594 3.1309 40.1582 3.41336 40.4695 3.39024C40.4837 3.38917 40.5052 3.39439 40.5126 3.40455C40.7128 3.68212 41.0486 3.73369 41.3228 3.88313C41.5482 4.00616 41.7838 4.11649 42.0186 4.2242C42.0694 4.24754 42.1181 4.28765 42.1809 4.27298C42.2314 4.19167 42.1567 4.12499 42.1645 4.05246C42.1699 4.00304 42.2045 3.98067 42.25 3.97604C42.2886 3.97201 42.3209 3.99718 42.326 4.02869C42.3382 4.10322 42.3475 4.18005 42.3425 4.25491C42.336 4.34707 42.379 4.42671 42.4551 4.41962C42.5517 4.41064 42.6345 4.59093 42.7386 4.43085C42.8097 4.32116 42.8721 4.45758 42.8725 4.47392C42.8785 4.66686 43.0237 4.68799 43.159 4.73182C43.2537 4.76241 43.3456 4.80468 43.4336 4.85189C43.531 4.90421 43.6159 5.02401 43.6832 4.80763C43.7142 4.70745 43.8453 4.84125 43.9369 4.78414C43.9746 4.76053 43.9737 4.85807 43.992 4.89943C44.0019 4.92212 44.0033 4.94868 44.0076 4.97353C44.0386 5.1521 44.04 5.15737 44.2191 5.11166C44.3218 5.08558 44.3902 5.09731 44.3885 5.21706C44.387 5.33251 44.4724 5.29438 44.529 5.30939C44.5464 5.30858 44.5639 5.30783 44.5812 5.30708C44.654 5.28406 44.7124 5.31078 44.7643 5.36031L44.7574 5.35644C44.8423 5.42253 44.8857 5.37623 44.9285 5.30041C44.9506 5.26137 44.9751 5.20211 45.037 5.2183C45.1065 5.23652 45.0622 5.30181 45.0777 5.34299C45.0861 5.36569 45.1026 5.38515 45.1155 5.40613C45.0402 5.52098 45.0402 5.52098 45.1478 5.58627C45.1346 5.52362 45.1218 5.46188 45.109 5.40026C45.1562 5.41634 45.2029 5.44291 45.2512 5.44656C45.4277 5.45968 45.5397 5.52577 45.5113 5.72795C45.504 5.78086 45.5364 5.80512 45.5824 5.81189C45.6214 5.81759 45.6438 5.792 45.6562 5.7585C45.6649 5.73505 45.6665 5.70833 45.6772 5.68579C45.7159 5.60557 45.7564 5.54351 45.8348 5.65757C45.8793 5.72226 45.9918 5.76205 45.9376 5.86099C45.8824 5.96176 45.8173 5.78877 45.7475 5.84862C45.9293 6.00327 45.9342 6.00483 46.0972 5.84679C46.1302 5.81469 46.1601 5.78737 46.2038 5.80528C46.2678 5.83168 46.253 5.87335 46.2276 5.92675C46.1857 6.01547 46.2042 6.08603 46.3067 6.12786C46.6544 6.26982 46.9997 6.41813 47.3474 6.55981C47.4701 6.60999 47.609 6.60676 47.7255 6.68747C47.8015 6.74011 47.8674 6.6978 47.8766 6.60353C47.8796 6.57342 47.8484 6.53825 47.8549 6.51045C47.8695 6.44888 47.9092 6.40334 47.9815 6.41769C48.0427 6.4299 48.0291 6.47727 48.0171 6.51755C47.9764 6.6537 48.084 6.66187 48.1598 6.66263C48.2578 6.66354 48.3416 6.67618 48.4049 6.75522C48.4251 6.78055 48.4479 6.80894 48.4537 6.83905C48.463 6.88718 48.3395 6.92192 48.4306 6.98059C48.5374 7.04942 48.6627 7.10588 48.7847 7.07022C48.9125 7.03291 48.9787 7.06189 49.0545 7.16621C49.1296 7.2695 49.2743 7.26746 49.3835 7.3229C49.4038 7.33323 49.4236 7.30483 49.4417 7.28677C49.5545 7.17578 49.4621 7.36054 49.5396 7.32365C49.5695 7.28477 49.6176 7.22256 49.6679 7.15712C49.7208 7.21686 49.7727 7.26009 49.7631 7.33833C49.7577 7.38678 49.6395 7.43077 49.7363 7.47508C49.8336 7.51949 49.9283 7.63865 50.055 7.54315C50.1148 7.49804 50.1373 7.48185 50.1197 7.5788C50.1116 7.62322 50.1581 7.67108 50.194 7.66785C50.4233 7.64672 50.5768 7.91553 50.835 7.82325C50.904 7.79873 51.0291 7.89133 51.1098 7.95446C51.1911 8.01834 51.2788 8.05829 51.3723 8.09336C51.5728 8.16885 51.5888 8.16326 51.7075 7.96881L51.7033 7.97081C51.8182 7.99581 51.9348 8.11481 52.046 7.95242C52.0663 7.92295 52.132 7.95833 52.1353 8.00678C52.1449 8.13164 52.2368 8.156 52.3256 8.15094C52.4122 8.14584 52.4218 8.19751 52.4427 8.25123C52.4592 8.29446 52.4518 8.33689 52.4197 8.36808C52.3774 8.40911 52.347 8.3741 52.3144 8.34522C52.2753 8.31022 52.2277 8.3128 52.1449 8.31237C52.2561 8.44804 52.3929 8.43244 52.5122 8.49665C52.5501 8.39695 52.4715 8.22703 52.6635 8.24354C52.6688 8.24397 52.6726 8.17977 52.6875 8.15137C52.7314 8.06975 52.803 8.06093 52.8292 8.14041C52.857 8.22515 52.9281 8.27392 52.9607 8.34415C53.0094 8.44911 53.034 8.49772 53.1126 8.36931C53.1286 8.34324 53.1933 8.35372 53.188 8.38862C53.1596 8.56316 53.2462 8.49804 53.3173 8.45422C53.3991 8.40373 53.49 8.39152 53.5815 8.38292C53.8349 8.35867 53.8958 8.43847 53.8028 8.69802C53.9097 8.64436 54.038 8.67291 54.0845 8.52472C54.0974 8.48385 54.1786 8.46282 54.2305 8.43631C54.2765 8.41282 54.3102 8.43352 54.3321 8.47579C54.3497 8.50912 54.3487 8.55408 54.315 8.56333C54.1599 8.6064 54.1043 8.79267 53.9423 8.82138C53.9766 8.86042 53.883 8.91091 53.9541 8.94436C53.9664 8.95011 53.9953 8.94683 53.9985 8.93957C54.0273 8.87757 53.9573 8.86214 53.9397 8.8209C54.0771 8.81552 54.1979 8.95517 54.3454 8.86537C54.3561 8.85859 54.3882 8.86289 54.3914 8.86999C54.4813 9.09116 54.6748 8.90935 54.7929 8.99915C54.8288 8.92247 54.8036 8.88634 54.7657 8.84574C54.7218 8.79885 54.7256 8.74943 54.802 8.74696C54.8518 8.74545 54.8731 8.73739 54.8833 8.68275C54.9042 8.57085 54.9731 8.61226 55.0335 8.64667C55.1073 8.68894 55.1303 8.75131 55.0565 8.80563C54.9148 8.91118 55.0303 9.01631 55.0474 9.12111C55.0512 9.14455 55.0779 9.17649 55.1009 9.16198C55.257 9.06443 55.2415 9.23194 55.2827 9.29458C55.3709 9.2571 55.3452 9.18886 55.3559 9.13466C55.3655 9.08852 55.3901 9.05964 55.4393 9.05674C55.4917 9.05368 55.5297 9.09175 55.5259 9.12896C55.5136 9.26156 55.6168 9.26898 55.6986 9.30571C55.7815 9.27189 55.7082 9.16031 55.7916 9.11864C55.866 9.08158 55.9274 9.13713 56.0066 9.12127C56.1408 9.09422 56.0456 9.24613 56.0873 9.3034C56.0798 9.29689 56.0734 9.29194 56.067 9.28683C56.0274 9.25613 55.9863 9.2279 55.936 9.26511C55.9194 9.27742 55.9232 9.29275 55.9376 9.30786C55.9847 9.35631 56.0232 9.32975 56.0627 9.29764C56.067 9.2941 56.0782 9.29936 56.0862 9.30044C56.2509 9.22064 56.3648 9.29119 56.4166 9.44337C56.4648 9.58441 56.6375 9.51806 56.6947 9.64233C56.7075 9.67163 56.8016 9.63862 56.8529 9.60818L56.8444 9.60092C56.8989 9.66685 56.9737 9.67335 57.0491 9.66486C57.086 9.66082 57.1283 9.66034 57.1283 9.69663C57.1283 9.82472 57.1913 9.77412 57.256 9.75557C57.2801 9.7488 57.3138 9.7852 57.3448 9.79326C57.533 9.84123 57.5335 9.84048 57.5806 9.6355C57.588 9.60081 57.6009 9.57285 57.6399 9.56452C57.6763 9.55683 57.703 9.57102 57.7281 9.5971C57.7869 9.65883 57.7623 9.74014 57.781 9.82397C57.85 9.84096 57.8997 9.78014 57.9618 9.77224C58.0184 9.76498 58.0735 9.74681 58.1478 9.72906C58.1387 9.95808 58.3622 9.93108 58.4761 10.0317C58.5124 10.0638 58.5568 10.0249 58.5819 9.99217C58.6937 9.84634 58.8418 9.95931 58.9701 9.94141C59.0374 9.93216 59.0567 10.0201 59 10.0705C58.9214 10.1407 58.8311 10.1981 58.7429 10.2631C58.7584 10.3915 58.8616 10.4165 58.9647 10.4413C59.0225 10.4819 59.0663 10.5612 59.1556 10.51C59.1642 10.5047 59.17 10.471 59.1642 10.466C59.1096 10.42 59.0444 10.4302 58.9808 10.4378C58.9733 10.4385 58.9658 10.4442 58.9583 10.4478C59.0161 10.3577 59.0738 10.2675 59.1299 10.1791C59.2 10.1728 59.1647 10.2552 59.2005 10.2608C59.3449 10.283 59.3486 10.3577 59.2968 10.4726C59.2631 10.5476 59.2973 10.6088 59.3823 10.6159C59.463 10.6225 59.5459 10.6776 59.6239 10.6265C59.6785 10.5907 59.6956 10.6168 59.7138 10.6581C59.7523 10.7472 59.795 10.7355 59.8629 10.6807C59.9062 10.6457 59.8881 10.5441 59.9987 10.5725C60.1126 10.6018 60.2292 10.6033 60.2554 10.7525C60.2591 10.7741 60.2805 10.7924 60.2944 10.813C60.4703 10.6494 60.5922 10.6562 60.7419 10.8536C60.8151 10.9495 60.8943 11.0258 61.006 11.0681C61.1086 11.1068 61.2097 11.151 61.3166 11.0814C61.3444 11.0632 61.3754 11.0445 61.4059 11.0764C61.4401 11.1121 61.4845 11.2285 61.508 11.163C61.5529 11.0377 61.7753 11.0178 61.6946 10.8329L61.6861 10.84C61.8689 10.7968 62.0352 10.8491 62.194 10.9321C62.2865 10.9807 62.2907 11.0567 62.1918 11.1902C62.334 11.1195 62.4319 11.1956 62.5073 11.2494C62.6987 11.3867 62.8649 11.3271 63.0403 11.2366C63.0622 11.2251 63.0847 11.2139 63.1077 11.2048C63.113 11.2027 63.1226 11.2096 63.1296 11.2124C63.1365 11.3311 62.9815 11.3019 62.9606 11.4004C63.0034 11.4537 63.0483 11.3957 63.0922 11.4016C63.1697 11.4123 63.2349 11.2957 63.3237 11.3744C63.3584 11.4056 63.4065 11.5837 63.4028 11.6904C63.5113 11.6337 63.5883 11.5442 63.7209 11.5371C63.8193 11.5319 63.8882 11.6581 63.9994 11.5685C64.0807 11.5027 64.1914 11.4729 64.2903 11.4308C64.3277 11.4149 64.3887 11.4028 64.3726 11.4691C64.3512 11.5583 64.4892 11.5407 64.4608 11.622C64.4207 11.6546 64.3801 11.6459 64.3416 11.627C64.2914 11.6021 64.2368 11.5885 64.2251 11.6587C64.2149 11.7182 64.2914 11.7683 64.3181 11.7478C64.4223 11.6694 64.5009 11.7937 64.5929 11.7669C64.6538 11.7495 64.6688 11.8287 64.7421 11.831C64.7651 11.7242 64.7896 11.6091 64.8736 11.5181C64.7046 11.6109 64.6998 11.6089 64.5608 11.3634C64.6517 11.3622 64.726 11.4016 64.803 11.4112C64.9057 11.4241 64.9981 11.4684 65.0088 11.3049C65.0115 11.2646 65.066 11.2454 65.112 11.2616C65.1473 11.2738 65.1671 11.3019 65.158 11.3399C65.1457 11.3908 65.1388 11.43 65.1944 11.4683C65.2462 11.5033 65.2158 11.5467 65.165 11.5492C64.9367 11.5608 64.9805 11.7424 64.9356 11.875C65.0046 11.8961 65.0281 11.8581 65.0591 11.831C65.0837 11.8098 65.1179 11.7824 65.1452 11.7855C65.2248 11.7949 65.2826 11.9737 65.3916 11.7921C65.4333 11.7217 65.583 11.7437 65.6558 11.6422C65.6926 11.5908 65.7632 11.6941 65.7509 11.706C65.629 11.8279 65.7958 11.8886 65.8172 11.9698C65.8456 12.0773 65.9691 12.1608 66.0551 12.2517C66.123 12.3236 66.1904 12.294 66.2551 12.2424L66.2487 12.2485C66.3577 12.222 66.3711 12.3426 66.4433 12.377C66.5438 12.4247 66.6315 12.4879 66.7315 12.3735C66.7977 12.2982 66.8496 12.3246 66.8582 12.4209C66.8662 12.5121 66.8811 12.5086 66.9619 12.4658C67.0234 12.4334 67.0057 12.5673 67.0645 12.5911C67.0811 12.5791 67.0993 12.5729 67.1041 12.561C67.1255 12.5121 67.0571 12.4314 67.1399 12.4096C67.2148 12.3902 67.2329 12.4648 67.2479 12.5206C67.2789 12.6368 67.3238 12.6695 67.4019 12.5535L67.3949 12.5573C67.4415 12.5843 67.488 12.6115 67.535 12.6388C67.5698 12.5801 67.5045 12.5488 67.5029 12.5016L67.4992 12.5088C67.5414 12.515 67.5751 12.5265 67.596 12.5729C67.6778 12.7538 67.8537 12.7665 68.0157 12.7967C68.0734 12.8075 68.1242 12.7793 68.1686 12.7312C68.3209 12.5645 68.4118 12.568 68.5391 12.7374C68.6749 12.9183 68.9171 12.9842 69.0523 12.8737C69.0881 12.8444 69.14 12.8211 69.1266 12.7553C69.1127 12.6849 69.0721 12.6585 69.0031 12.6606C68.97 12.6615 68.9352 12.6549 68.9048 12.6436C68.8476 12.6226 68.8545 12.5596 68.8893 12.5505C69.0005 12.5217 69.0972 12.4723 69.1897 12.4052C69.2149 12.3868 69.2507 12.4192 69.2731 12.4462C69.2731 12.446 69.2656 12.4379 69.2656 12.4379C69.3517 12.5968 69.5266 12.6695 69.6918 12.6084C69.7383 12.5911 69.7163 12.5349 69.7302 12.4979L69.7233 12.505C69.8345 12.5247 69.9366 12.4831 70.0435 12.4644C70.1264 12.4497 70.1649 12.4204 70.1564 12.3358C70.1521 12.2887 70.1612 12.2485 70.2194 12.2539C70.2665 12.2582 70.2526 12.2971 70.2569 12.33C70.2713 12.4369 70.3611 12.503 70.4419 12.4721C70.5648 12.4252 70.5819 12.5195 70.6498 12.5601C70.7445 12.6168 70.7568 12.6755 70.6953 12.7362C70.6338 12.7973 70.6488 12.8742 70.6274 12.9469C70.5354 12.93 70.4515 12.9345 70.3932 12.8683C70.4087 12.7933 70.4525 12.8137 70.4905 12.8239C70.5418 12.8374 70.5755 12.8229 70.5686 12.7665C70.5638 12.7282 70.5632 12.6726 70.5076 12.6707C70.4595 12.6691 70.4103 12.6895 70.3611 12.69C70.2879 12.691 70.1863 12.7452 70.1879 12.5922C70.1884 12.534 70.1157 12.5266 70.0671 12.5303C69.9917 12.5363 69.9634 12.6081 69.9815 12.659C70.0366 12.8158 69.9521 12.8887 69.8094 12.9509C69.9035 13.0324 69.9847 13.0222 70.0719 12.9921C70.1157 12.977 70.1665 12.9361 70.2088 12.9908C70.2986 13.1063 70.4237 13.0983 70.5472 13.0926C70.6461 13.0881 70.7172 13.1716 70.8011 13.1794C70.8722 13.1859 70.8803 13.3195 70.9642 13.2489C71.0423 13.1838 71.1139 13.1103 71.093 12.9928C71.0872 12.9598 71.0722 12.9262 71.0749 12.8941C71.0802 12.8404 71.1144 12.7998 71.1652 12.783C71.2288 12.7618 71.2235 12.8229 71.2417 12.8561C71.2689 12.9072 71.3069 12.9121 71.3358 12.8632C71.4422 12.6833 71.4614 12.7609 71.4684 12.9046C71.47 12.9365 71.4978 12.9674 71.5384 12.9592C71.5881 12.9492 71.5764 12.9063 71.5641 12.8798C71.5341 12.8158 71.5004 12.7547 71.5758 12.7014C71.6651 12.639 71.7122 12.72 71.7683 12.7633C71.8517 12.8277 71.933 12.8949 72.0148 12.9609C72.0142 12.9607 72.0035 12.96 72.0035 12.96C72.0661 12.9202 72.1404 12.886 72.1388 13.0021C72.1372 13.1331 72.1939 13.2455 72.2222 13.3663C72.2324 13.4108 72.2816 13.4343 72.3233 13.4201C72.3895 13.3975 72.342 13.3562 72.3281 13.3225C72.2799 13.2104 72.3559 13.2171 72.4264 13.2194C72.5179 13.2223 72.6157 13.2898 72.6975 13.1926C72.7643 13.2818 72.8638 13.2363 72.9482 13.2531C72.983 13.26 73.014 13.2549 73.0375 13.2094C72.9531 13.1444 72.8616 13.079 72.8445 12.958C72.8317 12.8654 72.7488 12.8667 72.6905 12.8669C72.6018 12.8674 72.6692 12.9455 72.651 12.9782C72.6162 13.0404 72.5633 13.0921 72.5007 13.1699C72.5719 12.6692 72.6815 12.5263 72.9739 12.5325C72.9728 12.6297 72.7852 12.5833 72.8365 12.6913C72.8686 12.7595 72.8659 12.8496 72.9188 12.894C72.9862 12.9506 72.9702 13.1026 73.1338 13.0665C73.1926 13.0535 73.2359 13.1753 73.1803 13.2494C73.1418 13.3009 73.0958 13.3531 73.029 13.3781C72.9894 13.3929 72.9531 13.4224 72.9718 13.4736C72.9889 13.5224 73.0472 13.5321 73.0766 13.5212C73.253 13.4559 73.4171 13.5196 73.5877 13.5456C73.6604 13.5566 73.7219 13.5321 73.7828 13.6081C73.8128 13.6462 73.9074 13.6327 73.9726 13.6419C74.0309 13.6499 74.071 13.6311 74.0779 13.5661C74.0844 13.5045 74.0822 13.4418 74.0127 13.4196C73.9432 13.3971 73.9347 13.4594 73.9149 13.505C73.9047 13.5279 73.8833 13.5417 73.8545 13.5335C73.7609 13.4361 73.9047 13.3722 73.8897 13.2737C73.7711 13.2117 73.655 13.2884 73.5251 13.2921C73.6534 13.0716 73.8518 13.1396 74.0266 13.1345C74.0672 13.2102 73.963 13.2427 73.9972 13.3065C74.1902 13.2876 74.1902 13.2876 74.2186 13.4952C74.2907 13.5241 74.3126 13.4429 74.364 13.4267C74.4549 13.3979 74.5238 13.4451 74.4864 13.5335C74.4297 13.669 74.5554 13.6533 74.5976 13.7432C74.6243 13.6148 74.6639 13.5343 74.7805 13.5411L74.7751 13.535C74.7837 13.5584 74.7885 13.5846 74.8018 13.6043C74.8729 13.7072 74.9184 13.5414 74.9959 13.5858C75.0488 13.6161 75.0868 13.7351 75.1804 13.6425C75.2007 13.6224 75.2365 13.6232 75.2408 13.6467C75.2841 13.8811 75.5156 13.6519 75.599 13.7925C75.6038 13.8005 75.6541 13.7588 75.6631 13.7261C75.6861 13.642 75.7353 13.5761 75.8059 13.5094C75.8604 13.5887 75.8882 13.702 76.0246 13.6741C76.0898 13.6607 76.0957 13.7257 76.1053 13.7766C76.1245 13.8762 76.224 13.8597 76.2865 13.8823C76.3143 13.8923 76.4074 13.8632 76.3608 13.7542C76.3277 13.6786 76.4261 13.721 76.4635 13.7162C76.5191 13.7088 76.51 13.7723 76.5341 13.7987C76.5806 13.8502 76.6025 13.9456 76.6977 13.93C76.7854 13.9155 76.7383 13.8096 76.7939 13.7684C76.8442 13.8003 76.8522 13.9163 76.8934 13.8934C76.9955 13.8372 77.0275 13.966 77.0864 13.9491C77.1628 13.9275 77.2291 13.8805 77.3152 13.8704C77.3644 13.8645 77.4034 13.6169 77.3756 13.5561C77.3339 13.4656 77.289 13.3767 77.2494 13.2855C77.2334 13.2473 77.2232 13.2006 77.2681 13.1741C77.2965 13.1572 77.3398 13.1524 77.3628 13.1782C77.4756 13.3046 77.5483 13.2237 77.621 13.133C77.7269 13.0004 77.8963 12.9926 78.0337 12.9226C78.0819 12.8983 78.13 12.9251 78.1711 12.9594C78.2219 13.0009 78.2765 13.0381 78.3428 13.0872C78.2556 13.1808 78.1246 13.1504 78.0353 13.2128L78.0428 13.2177C77.8792 13.1379 77.8728 13.1392 77.8461 13.2757C77.837 13.3238 77.837 13.3736 77.8333 13.4225L77.8365 13.4145C77.7215 13.4418 77.6194 13.457 77.7327 13.6215C77.7905 13.7051 77.7354 13.8317 77.7065 13.936C77.6958 13.9746 77.6648 14.0166 77.7146 14.0454C77.7595 14.0715 77.7926 14.045 77.8151 14.0038C77.8536 13.9325 77.9257 13.8859 77.9455 13.7973C77.9578 13.74 78.0107 13.7001 78.0819 13.7212C78.1134 13.7308 78.1599 13.7652 78.1353 13.7818C78.0209 13.8584 78.0444 13.912 78.1428 13.9777C78.2107 14.0232 78.2631 14.0984 78.362 14.0521C78.4385 14.016 78.4909 14.1086 78.5604 14.1121C78.5973 14.0141 78.4989 13.9894 78.4909 13.9255L78.4839 13.9322C78.5876 13.9317 78.6261 14.0461 78.717 14.068C78.7705 14.0811 78.8389 14.1163 78.7897 13.9993C78.7641 13.9377 78.8624 13.9262 78.8892 13.8712C78.9196 13.8106 78.9945 13.8041 79.0073 13.897C79.0207 13.9938 79.0731 14.0618 79.1249 14.1388C79.2516 13.9953 79.295 13.9787 79.5537 13.9677C79.5799 13.9019 79.5184 13.8817 79.489 13.8464C79.4431 13.7908 79.4553 13.7479 79.5232 13.7457C79.5853 13.7437 79.5863 13.7162 79.5874 13.6703C79.5895 13.5863 79.6371 13.5706 79.7061 13.6022C79.7777 13.635 79.7729 13.6703 79.7291 13.7374C79.6414 13.8715 79.6607 13.9065 79.8146 13.956C79.8296 13.9609 79.8553 13.9516 79.8627 13.9604C80.0344 14.1665 80.1787 14.0382 80.315 13.9108C80.3674 13.9707 80.3942 14.0249 80.3348 14.0737C80.2365 14.155 80.3044 14.2316 80.3482 14.291C80.3797 14.3338 80.4594 14.3962 80.4819 14.2632C80.4931 14.1956 80.5508 14.1422 80.6048 14.1997C80.7091 14.31 80.8342 14.3291 80.9705 14.3285C81.0202 14.3282 81.0218 14.4235 81.0871 14.3854C81.0994 14.3268 81.0277 14.3041 81.032 14.245C81.1031 14.2568 81.1929 14.229 81.2165 14.3302C81.2389 14.4278 81.1721 14.4592 81.0924 14.4841C81.0095 14.5099 81.0213 14.5889 81.0181 14.6545C81.0138 14.7375 81.0716 14.7286 81.1314 14.7465C81.2138 14.7712 81.3047 14.8212 81.3544 14.8886C81.4196 14.9765 81.526 14.9931 81.5891 15.0909C81.6581 15.0011 81.719 14.9169 81.8404 14.9655C81.8537 14.9707 81.8874 14.9247 81.9115 14.9027L81.9067 14.9086C82.112 14.99 82.0355 15.2061 82.1141 15.3479C82.0238 15.3879 82.0216 15.5215 81.9147 15.5418C81.8687 15.5504 81.827 15.5254 81.8179 15.4813C81.8046 15.4126 81.726 15.3415 81.7997 15.2729C81.8457 15.23 81.8757 15.1883 81.8767 15.1263C81.6324 15.1973 81.587 15.261 81.6832 15.4786C81.7206 15.564 81.7099 15.6689 81.803 15.7416C81.8799 15.802 81.9115 15.8883 82.0435 15.8241C82.1248 15.7844 82.2269 15.8642 82.3039 15.9085C82.3167 15.9678 82.2879 15.9823 82.2526 15.9885C82.221 15.9938 82.1852 15.9827 82.1612 16.0204C82.2157 16.1619 82.3221 16.0832 82.4092 16.0736C82.4499 16.1371 82.3322 16.1638 82.3809 16.23C82.4183 16.2815 82.4707 16.2595 82.5162 16.2719L82.5081 16.2633C82.5237 16.3866 82.5889 16.4312 82.684 16.3439C82.7455 16.2874 82.807 16.2662 82.8824 16.254C82.9391 16.2449 82.9818 16.2439 82.9963 16.3111C83.0139 16.3937 82.9669 16.4161 82.8984 16.4183C82.8658 16.4193 82.8332 16.4184 82.7969 16.4184C82.8797 16.5956 82.8797 16.5956 82.6461 16.647C82.6332 16.8333 82.6707 17.0134 82.7022 17.196C82.738 17.4031 82.7429 17.6129 82.7076 17.8243C82.684 17.961 82.6375 18.1091 82.7546 18.2344C82.7696 18.2503 82.7824 18.2926 82.7739 18.3024C82.6471 18.4441 82.7739 18.6295 82.683 18.7847C82.6199 18.8929 82.6434 18.9065 82.7669 19.0559C82.6295 19.1539 82.4606 19.1953 82.3494 19.3473C82.2788 19.4446 82.167 19.5038 82.1633 19.6475C82.1612 19.7187 82.0868 19.7231 82.0339 19.7481C81.8382 19.8415 81.8388 19.844 81.8933 20.0508C81.919 20.1468 81.981 20.2559 81.7976 20.2532C81.7607 20.2525 81.7474 20.2938 81.7318 20.3232C81.6917 20.401 81.6206 20.394 81.5955 20.3353C81.4945 20.0988 81.3036 20.1639 81.1031 20.1598C81.1582 20.2717 81.2068 20.3686 81.0587 20.4143C80.9978 20.4332 81.0058 20.4933 81.0074 20.5427C81.0095 20.6269 81.0133 20.7114 81.0197 20.7953C81.0357 21.0018 80.9604 21.0639 80.769 20.9994C80.5792 20.9352 80.4011 21.0398 80.368 21.2289C80.3306 21.4428 80.2899 21.6561 80.2439 21.8683C80.221 21.975 80.2386 22.094 80.2151 22.1841C80.1654 22.375 80.2434 22.5505 80.2167 22.7369C80.1702 23.0618 80.2135 23.3934 80.1915 23.7224C80.1664 24.0915 80.1605 24.4621 80.1547 24.8323C80.1477 25.3028 80.106 25.7716 80.1097 26.2434C80.1135 26.718 80.0905 27.1933 80.0461 27.6686C80.0108 28.0508 80.0515 28.4407 80.0627 28.827C80.067 28.9702 80.0766 29.1118 80.0563 29.2556C80.0258 29.4734 80.059 29.6907 80.0798 29.9082C80.1076 30.2057 79.9959 30.488 79.974 30.781C79.9627 30.9248 79.9558 31.0671 79.9697 31.2102C80.0114 31.6556 79.9798 32.1047 80.0194 32.5483C80.0557 32.9534 80.0456 33.3566 80.0392 33.7594C80.0269 34.564 80.2001 35.354 80.2017 36.1563C80.2017 36.249 80.2054 36.343 80.1926 36.4342C80.1744 36.5651 80.0691 36.6704 79.9702 36.675C79.859 36.6803 79.7558 36.6034 79.7034 36.4784C79.6831 36.4304 79.681 36.3815 79.6783 36.3302C79.6644 36.0284 79.6468 35.7265 79.6312 35.4245C79.6302 35.3999 79.6275 35.3716 79.6366 35.3505C79.7542 35.09 79.6772 34.8226 79.6687 34.5574C79.6639 34.4061 79.6836 34.2539 79.6746 34.1032C79.6403 33.5487 79.6034 32.9949 79.6013 32.4387C79.6002 32.1194 79.5575 31.8004 79.5339 31.481C79.5313 31.4478 79.5297 31.4138 79.5339 31.3807C79.5901 30.9257 79.5184 30.4741 79.5013 30.021C79.497 29.9032 79.4944 29.7827 79.5142 29.6674C79.6227 29.04 79.5719 28.4086 79.5633 27.7786C79.5617 27.6601 79.5708 27.5432 79.5735 27.4256C79.5783 27.2251 79.6157 27.0234 79.5446 26.8266C79.5393 26.811 79.5313 26.7913 79.5361 26.7777C79.6697 26.3977 79.5093 26.0139 79.5564 25.6291C79.635 24.9843 79.581 24.3343 79.5751 23.6864C79.5735 23.5191 79.5981 23.3517 79.6131 23.1843C79.6259 23.0408 79.6318 22.8963 79.6093 22.7545C79.5815 22.5781 79.573 22.4062 79.604 22.2271C79.6211 22.1264 79.6617 21.9854 79.4837 21.9469C79.4222 21.9336 79.4356 21.8567 79.4543 21.8149C79.4928 21.7289 79.4976 21.8388 79.5318 21.8356C79.5858 21.8305 79.573 21.804 79.5751 21.7697C79.5842 21.6112 79.5211 21.4641 79.5029 21.3096C79.496 21.2505 79.4532 21.1898 79.457 21.1201C79.4628 20.9895 79.4099 20.9049 79.2688 20.9111C79.187 20.9148 79.1517 20.8626 79.1089 20.8094C79.0212 20.7 79.0196 20.7013 78.9063 20.8603C79.0592 20.9243 79.2083 20.9869 79.3575 21.0494C79.2549 21.2272 79.2533 21.2269 79.1175 21.0929C79.0667 21.0429 79.0153 20.9896 78.9384 20.9807C78.8849 21.0924 79.0399 21.0883 79.0239 21.1708C78.9683 21.1824 78.9122 21.2025 78.856 21.2039C78.7395 21.207 78.6603 21.1144 78.7111 21.0079C78.7801 20.8633 78.6662 20.8661 78.6053 20.8683C78.5074 20.872 78.401 20.893 78.316 20.9397C78.176 21.0165 78.0022 21.0105 77.8824 21.1296C77.8562 21.1556 77.8268 21.1519 77.791 21.1449C77.5841 21.1051 77.4344 21.1772 77.3542 21.38C77.3494 21.3925 77.3269 21.3977 77.3125 21.4062L77.3163 21.4116C77.3269 21.3166 77.2532 21.2935 77.1906 21.2905C77.088 21.2854 77.1585 21.4051 77.0912 21.4487C77.0484 21.3661 77.0062 21.3331 76.8891 21.3537C76.5752 21.409 76.3069 21.5692 76.0208 21.6869C75.946 21.7178 75.9085 21.7417 75.8583 21.67C75.8294 21.628 75.7845 21.6365 75.7439 21.645C75.5332 21.6885 75.322 21.7337 75.1093 21.7788C75.1429 21.8779 75.2499 21.9017 75.2515 21.9961C75.236 22.0074 75.2242 22.0211 75.2103 22.025C75.0938 22.0578 74.9847 21.8938 74.9141 21.956C74.8318 22.0283 74.7436 22.0876 74.6543 22.1454C74.6094 22.1743 74.5618 22.219 74.4982 22.1986C74.4805 22.1574 74.5014 22.127 74.5308 22.1148C74.5917 22.0898 74.6334 22.0613 74.6131 21.9851C74.5949 21.9157 74.5474 21.9285 74.4955 21.932C74.4196 21.9372 74.3661 21.9464 74.3859 22.0484C74.3971 22.1086 74.3437 22.1521 74.3169 22.1989C74.2902 22.1901 74.2672 22.1895 74.2624 22.1796C74.1565 21.9783 74.1576 21.981 73.9261 22.0222C73.7518 22.0532 73.5802 22.0731 73.5353 22.2971C73.5187 22.3773 73.4316 22.3637 73.3941 22.3197C73.2835 22.1901 73.1781 22.1399 73.0359 22.2761C72.9905 22.3199 72.9515 22.2239 72.9028 22.2435C72.8098 22.2809 72.6991 22.241 72.612 22.3131C72.6408 22.3545 72.6708 22.3934 72.6959 22.4354C72.7167 22.4704 72.6852 22.5238 72.6713 22.5171C72.5179 22.4437 72.5302 22.6173 72.4564 22.6594C72.4211 22.6798 72.3922 22.7193 72.35 22.6796C72.3216 22.6536 72.327 22.6168 72.3409 22.5855C72.358 22.5473 72.3847 22.5133 72.3997 22.4744C72.4152 22.4344 72.4157 22.3883 72.3767 22.3611C72.3457 22.3396 72.3088 22.3538 72.2869 22.3813C72.2094 22.4792 72.0971 22.4204 72.0041 22.4478C71.8458 22.4944 71.6795 22.4841 71.5181 22.5329C71.3636 22.5797 71.1775 22.5304 71.0722 22.7056C70.9605 22.6393 70.8514 22.7263 70.7423 22.7119C70.6819 22.7039 70.6263 22.7107 70.5691 22.7224C70.4985 22.7367 70.4793 22.7905 70.4697 22.8519L70.4771 22.845C70.4119 22.8619 70.3483 22.882 70.2825 22.8953C70.0917 22.934 70.0831 22.955 70.1906 23.1246C70.2082 23.1519 70.2146 23.1863 70.2307 23.2299C70.1473 23.2844 70.0371 23.2787 70.0259 23.1982C70.0109 23.0936 69.9051 23.0913 69.8826 23.0194C69.9045 22.9853 69.9291 22.985 69.9537 22.9953C69.9842 23.0081 70.0179 23.0339 70.0366 22.9882C70.043 22.9715 70.0254 22.9411 70.012 22.921C69.9879 22.8835 69.9569 22.866 69.9061 22.8782C69.8008 22.9039 69.6859 22.9044 69.5896 22.9482C69.5057 22.9866 69.4367 23.0157 69.3384 23.0109C69.2341 23.0059 69.1256 23.0495 69.0395 23.1243L69.0454 23.1201C68.9395 23.0387 68.8374 23.1126 68.7353 23.1306C68.7182 23.1338 68.6898 23.1716 68.6941 23.1861C68.7417 23.364 68.6075 23.3137 68.5198 23.3597C68.3985 23.4231 68.3541 23.4265 68.3129 23.2973C68.3081 23.2813 68.2579 23.2606 68.2498 23.2674C68.1231 23.3745 67.9323 23.2409 67.812 23.3973C67.7179 23.5193 67.5821 23.5824 67.4201 23.5284C67.3853 23.5168 67.3548 23.5119 67.3335 23.5467C67.273 23.6449 67.2073 23.6227 67.1233 23.5719C66.971 23.4796 66.8357 23.5883 66.7004 23.6346C66.648 23.6526 66.6619 23.7306 66.6668 23.7929C66.6823 24.0044 66.6529 24.0188 66.4465 23.926L66.4508 23.9331C66.4235 23.8548 66.524 23.7976 66.478 23.7022C66.3508 23.654 66.2428 23.7826 66.1139 23.7727C66.0771 23.7698 66.0765 23.8155 66.069 23.8489C66.0562 23.9074 66.1423 23.9428 66.1038 24.007C66.0054 23.9968 65.9942 23.9147 65.9616 23.8506C65.9429 23.8144 65.907 23.8056 65.8776 23.8267C65.8322 23.8596 65.876 23.8821 65.8974 23.9005C65.9284 23.9269 65.9375 23.9551 65.9076 23.9835C65.8776 24.0124 65.8482 23.9934 65.8204 23.9715C65.7766 23.9368 65.768 23.8534 65.6953 23.8619C65.5985 23.8732 65.5178 23.9357 65.4152 23.9486C65.3344 23.9588 65.3895 24.044 65.4066 24.0954C65.4414 24.1996 65.4173 24.2424 65.3024 24.2103C65.2302 24.1902 65.1553 24.1791 65.0816 24.1639L65.0901 24.1722C65.0222 24.1056 64.942 24.0537 64.8474 24.0769C64.7271 24.1062 64.5993 24.1365 64.4983 24.2027C64.4411 24.2402 64.3903 24.3612 64.4074 24.4259C64.4491 24.5854 64.3379 24.6751 64.2876 24.7975C64.3165 24.6078 64.2539 24.4319 64.2277 24.2377C64.1299 24.3092 64.0203 24.3414 63.9016 24.34C63.8669 24.3396 63.838 24.3492 63.8219 24.3856C63.7867 24.4654 63.885 24.5191 63.8733 24.566C63.8588 24.6243 63.7733 24.6404 63.8102 24.7503C63.8578 24.8906 63.8428 25.0522 63.8374 25.2139C63.7824 25.1571 63.7556 25.0875 63.6744 25.0576C63.5969 25.029 63.6076 24.9049 63.5193 24.8738C63.5439 24.781 63.6947 24.8705 63.6717 24.746C63.6551 24.6557 63.6145 24.5713 63.5354 24.5251C63.5033 24.5066 63.4659 24.5601 63.444 24.5968L63.4477 24.5932C63.3654 24.5642 63.2862 24.598 63.2082 24.6128C63.1654 24.6209 63.1333 24.6775 63.0847 24.6134C63.0563 24.576 63.0007 24.5784 62.9751 24.6171C62.9008 24.7298 62.8398 24.869 62.6933 24.6898C62.5709 24.7926 62.3725 24.7119 62.2763 24.8452C62.2207 24.923 62.1731 24.9361 62.0945 24.9265C62.0122 24.9167 61.9871 24.9573 62.0165 25.0324C62.0411 25.0949 62.025 25.1252 61.9555 25.1297C61.8448 25.1368 61.7887 25.1668 61.917 25.2511C61.9849 25.2956 62.0528 25.3542 61.9887 25.4319C61.9186 25.5169 61.8652 25.4741 61.7973 25.3922C61.7406 25.3243 61.6572 25.292 61.6599 25.1786C61.6625 25.0628 61.6021 25.009 61.4797 25.0563C61.4252 25.0773 61.3647 25.0804 61.3091 25.0992C61.2359 25.1243 61.2493 25.1888 61.2503 25.2479C61.2519 25.3255 61.2915 25.3141 61.3492 25.3075C61.4524 25.2956 61.4802 25.3605 61.3931 25.4081C61.3006 25.4587 61.4268 25.5419 61.3455 25.5746C61.2477 25.4876 61.1755 25.3706 61.0188 25.365C60.945 25.3624 60.9306 25.2013 60.7986 25.2726C60.7221 25.3141 60.6189 25.2928 60.6259 25.4345C60.6291 25.4984 60.5585 25.5203 60.4933 25.486C60.458 25.4675 60.4323 25.3676 60.388 25.4468C60.3564 25.5045 60.3986 25.5726 60.4911 25.5507L60.4922 25.5506Z" fill="#FF4D00"/>
</svg>
