<svg width="104" height="4" viewBox="0 0 104 4" fill="none" xmlns="http://www.w3.org/2000/svg">
<path d="M74.0073 1.82555C73.9379 1.82506 73.7993 1.8402 73.8385 1.79821C73.8432 1.7926 73.9623 1.79089 74.0259 1.79284C74.0834 1.79479 74.1371 1.80431 74.1929 1.81042C74.1307 1.81603 74.0682 1.82604 74.0073 1.82555ZM70.8611 2.27055C70.756 2.28153 70.6403 2.27542 70.6501 2.23759C70.6535 2.2249 70.7353 2.20952 70.7942 2.20268C70.8757 2.19365 70.9376 2.20488 70.9623 2.22709C70.9298 2.24223 70.9098 2.26566 70.8611 2.27055V2.27055ZM51.3567 1.05786C51.3997 1.0376 51.4893 1.01905 51.5752 1.01197C51.6546 1.00513 51.8092 1.0066 51.7372 1.04663C51.701 1.06664 51.5772 1.07592 51.5207 1.08569C51.398 1.08788 51.3232 1.07348 51.3567 1.05786ZM52.2015 2.314C52.097 2.33206 51.9803 2.32376 51.9336 2.29227C51.9147 2.27957 51.9533 2.25102 51.9986 2.24491C52.0994 2.23076 52.214 2.23246 52.2742 2.26932C52.2536 2.28275 52.2482 2.30618 52.2015 2.314ZM91.9195 1.72547C91.8867 1.72669 91.8401 1.72474 91.8174 1.71937C91.7525 1.70399 91.7532 1.68202 91.8333 1.67348C91.8823 1.66811 91.9601 1.6808 92.0251 1.6852C92.0447 1.70716 92.0102 1.72181 91.9195 1.72547ZM65.5226 1.99593C65.6058 2.03304 65.4722 2.05037 65.3602 2.04817C65.2595 2.04622 65.1174 2.03304 65.0762 2.01326C65.0122 1.98324 65.1039 1.96054 65.2828 1.95565C65.3457 1.96566 65.4745 1.97494 65.5226 1.99593ZM76.4212 2.06355C76.2995 2.06453 76.1077 2.08771 76.1047 2.02913C76.104 2.01668 76.2795 2.00106 76.381 1.9913C76.4912 1.9808 76.5998 1.9825 76.6532 2.01668C76.6434 2.05403 76.5278 2.06257 76.4212 2.06355V2.06355ZM87.9523 1.90708C87.997 1.91123 88.0544 1.94223 88.0369 1.94858C87.8647 2.01253 87.63 2.0035 87.3047 1.97494C87.5509 1.92197 87.718 1.88511 87.9523 1.90708V1.90708ZM85.002 2.26004C85.1031 2.25614 85.2083 2.25907 85.3567 2.25883C85.1515 2.31595 84.9516 2.34255 84.6029 2.3279C84.7166 2.27201 84.8616 2.26541 85.002 2.26004V2.26004ZM59.7355 1.42523C59.6189 1.41888 59.51 1.39765 59.5404 1.36689C59.5844 1.32295 59.7498 1.32368 59.8952 1.32832C60.0142 1.33198 60.1035 1.34638 60.0879 1.38324C60.0247 1.4262 59.8887 1.43304 59.7355 1.42523V1.42523ZM57.9256 1.26949C57.9459 1.26949 58.0034 1.30513 57.9824 1.31612C57.8657 1.37494 57.6689 1.3808 57.4122 1.37299C57.5343 1.30367 57.6862 1.26925 57.9256 1.26949V1.26949ZM73.1662 2.74263C73.0154 2.73701 72.8186 2.72188 72.8307 2.68234C72.851 2.61838 73.079 2.62083 73.266 2.63206C73.4134 2.6406 73.5359 2.66232 73.5365 2.7087C73.4618 2.75459 73.3076 2.74727 73.1662 2.74263ZM69.8084 2.11676C69.5656 2.10016 69.4726 2.05061 69.4512 1.99227C69.4485 1.98495 69.5642 1.96566 69.6146 1.96786C69.8412 1.97811 69.8753 2.02791 69.9159 2.07429C69.878 2.08967 69.828 2.11798 69.8084 2.11676V2.11676ZM76.103 2.33401C75.8774 2.30423 76.0455 2.24614 76.3901 2.24077C76.4973 2.23906 76.6069 2.24687 76.8125 2.25346C76.6103 2.35159 76.383 2.37111 76.103 2.33401ZM67.7681 2.06208C68.2564 2.03889 68.6068 2.03401 69.0678 2.14996C68.3396 2.14679 68.3396 2.14679 67.7681 2.06208ZM49.3922 2.40748C49.2512 2.4253 49.1013 2.3943 49.0699 2.35158C49.0472 2.31985 49.1389 2.29666 49.2566 2.29349C49.679 2.28177 50.1047 2.26127 50.5383 2.31204C50.0892 2.30447 49.7524 2.36183 49.3922 2.40748ZM48.3854 1.16551C47.7182 1.26095 47.1676 1.16136 46.6323 1.16282C47.171 1.18332 47.6877 1.05322 48.3854 1.16551ZM52.8444 1.31001C53.5248 1.19651 53.5245 1.1965 54.2999 1.27144C53.866 1.35712 53.3817 1.30562 52.8444 1.31001ZM75.1084 2.34011C74.5457 2.44141 74.0658 2.38991 73.5845 2.34304C74.0397 2.33962 74.5081 2.26322 75.1084 2.34011ZM83.4947 2.52172C82.7767 2.66916 82.1122 2.64328 81.2353 2.6428C81.9986 2.49243 82.6202 2.46143 83.4947 2.52172ZM49.8886 2.59324C49.8406 2.51977 50.0932 2.50439 50.311 2.49146C50.7419 2.4668 51.1727 2.44215 51.6049 2.41749C51.8535 2.40358 52.0452 2.42555 52.1301 2.49072C52.2167 2.55663 52.078 2.59666 51.8761 2.62937C51.4467 2.69894 50.9296 2.65793 50.4849 2.69674C50.1906 2.69552 49.9394 2.67038 49.8886 2.59324ZM62.5946 1.63125C62.5053 1.51774 63.0281 1.5009 63.4066 1.48918C63.7082 1.47991 64.0291 1.45843 64.0379 1.58121C64.0454 1.67812 64.3075 1.68617 64.5817 1.68129C65.0555 1.67006 65.528 1.65908 66.017 1.6476C65.9981 1.74622 65.7718 1.77917 65.506 1.78649C64.9876 1.8009 64.4295 1.82384 63.9629 1.75891C63.4948 1.69374 63.2902 1.7118 63.0257 1.82506C62.7535 1.94174 62.2733 1.91172 61.7968 1.85631C62.1816 1.80065 62.7501 1.8297 62.5946 1.63125ZM69.4492 1.50285C68.7028 1.53117 67.9649 1.56925 67.3291 1.40497C67.0799 1.34053 66.6967 1.36127 66.3552 1.36322C65.649 1.36713 64.8634 1.41009 64.253 1.34565C63.3223 1.24728 62.4434 1.22921 61.4978 1.26558C61.2401 1.27535 60.9696 1.27731 60.7095 1.26974C60.4606 1.26242 60.1502 1.26412 60.0524 1.18382C59.9604 1.10839 60.5496 1.13988 60.4146 1.04346C60.0233 1.01587 59.6645 1.05029 59.3017 1.07055C59.0041 1.08666 58.7163 1.09691 58.4197 1.06006C57.2523 0.91384 56.0169 0.904076 54.7659 0.926289C54.0141 0.939471 53.2685 0.939473 52.5221 0.88626C51.6827 0.825723 50.8362 0.791304 49.984 0.873077C49.5924 0.910669 49.1588 0.889189 48.75 0.87381C47.9968 0.845739 47.2457 0.853545 46.4923 0.850616C45.1791 0.851593 43.8686 0.852572 42.5582 0.853793C41.3295 0.855501 40.081 0.825719 38.8476 0.802285C37.4925 0.776899 36.1357 0.814982 34.7961 0.757619C33.9202 0.719784 33.0731 0.72442 32.2195 0.749806C31.6162 0.768358 30.9615 0.789593 30.4342 0.723686C29.6672 0.628243 28.9696 0.676335 28.2323 0.685122C27.2323 0.697083 26.2455 0.722713 25.2188 0.678531C24.3912 0.643381 23.5025 0.619215 22.6807 0.702697C22.168 0.754934 21.5958 0.743218 21.1419 0.67902C20.4477 0.581136 19.75 0.5721 19.0526 0.594801C18.0973 0.626778 17.1108 0.599196 16.1761 0.681946C15.7411 0.720269 15.1774 0.729056 14.731 0.693418C13.6728 0.609448 12.6319 0.645333 11.5916 0.641672C10.2768 0.637522 8.94736 0.590409 7.64805 0.639473C5.89355 0.7066 4.26283 0.533045 2.75149 0.333372C2.00207 0.234267 1.6906 0.2826 1.29323 0.377555C0.604351 0.542566 0.0324852 0.713679 0.0034013 0.99903C-0.0321081 1.34248 0.216456 1.67543 0.467051 2.00863C0.668609 2.27665 1.57088 2.44824 2.32436 2.61399C3.59289 2.89299 5.24661 2.97159 6.75559 3.03628C8.06977 3.09096 9.42217 3.17225 10.7996 3.14393C11.9704 3.11977 13.2021 3.23205 14.3539 3.10658C14.4692 3.09389 14.6475 3.11635 14.7966 3.12269C15.9988 3.1742 17.2038 3.19983 18.4054 3.17664C18.7233 3.17054 19.0104 3.18664 19.288 3.21813C20.055 3.30503 20.7723 3.26842 21.472 3.19275C21.7087 3.16712 21.9333 3.10659 22.193 3.13173C23.2701 3.23718 24.2637 3.07949 25.3145 3.11342C25.583 3.12221 25.8302 3.0973 26.0527 3.05947C27.3558 2.83734 28.9111 2.80634 30.3994 2.72457C30.8235 2.70138 31.1901 2.72555 31.5983 2.7707C32.2506 2.84247 32.9716 2.94108 33.6149 2.92595C34.2571 2.91106 34.8601 2.90569 35.4972 2.93132C36.0586 2.95377 36.6582 2.9672 37.1763 2.91643C37.9098 2.84491 38.6298 2.85931 39.3887 2.8803C40.3194 2.90496 41.2869 2.96085 42.1598 2.83539C42.8784 2.73213 43.5791 2.67282 44.3772 2.80268C44.5189 2.82538 44.7722 2.82904 44.9295 2.81391C45.8954 2.71993 46.8751 2.76728 47.8139 2.83368C48.5853 2.88787 49.3022 2.78169 50.0408 2.83881C50.705 2.89031 51.2897 2.84418 51.8153 2.75142C52.051 2.70992 52.2539 2.66989 52.5133 2.72164C53.1413 2.84662 53.867 2.78144 54.4781 2.76045C54.9665 2.7436 55.6834 2.69942 55.8664 2.51708C55.5441 2.53783 55.1971 2.54564 54.9039 2.58153C54.1393 2.67575 53.5576 2.54638 52.9245 2.4795C52.8332 2.46973 52.7622 2.43726 52.82 2.40675C52.8484 2.39186 52.938 2.36916 52.9654 2.37209C53.8559 2.46655 54.8146 2.31058 55.6936 2.43458C55.6168 2.40236 55.5066 2.37185 55.4721 2.33694C55.4315 2.29544 55.5546 2.26542 55.7085 2.26078C55.8015 2.25785 55.9388 2.26786 55.9969 2.28519C56.1106 2.31887 56.0463 2.35525 55.9256 2.38112C55.8437 2.3987 55.7477 2.41188 55.6614 2.42799C55.721 2.46119 55.7781 2.49292 55.8356 2.52514C56.2969 2.54418 56.6432 2.49707 56.9077 2.40627C57.1572 2.32059 57.5428 2.28861 57.9029 2.29544C59.4846 2.32547 61.0352 2.24223 62.6047 2.2371C63.1756 2.23515 63.6538 2.28373 64.0396 2.42311C64.7911 2.6943 65.7305 2.73848 66.8425 2.57835C67.0704 2.54564 67.2686 2.49878 67.5392 2.48926C67.7224 2.48267 68.0214 2.4729 68.0109 2.5288C67.9731 2.73042 68.3975 2.6384 68.6985 2.60667C69.2199 2.55175 69.6694 2.51733 69.6751 2.73042C69.6765 2.77436 69.8195 2.79609 69.967 2.80878C70.7079 2.87274 71.3982 2.95915 72.2545 2.91399C73.0786 2.86956 73.9464 2.83808 74.8088 2.90569C75.103 2.92839 75.6116 2.99967 75.4236 2.7934C75.3455 2.70748 75.7587 2.66013 76.1331 2.66135C76.2937 2.72725 76.291 2.7934 76.1635 2.85492C75.8771 2.99259 76.171 3.06753 76.5805 3.13856C77.2129 3.24768 79.1906 3.15687 79.6174 2.94743C80.1267 2.69869 80.959 2.71016 81.7263 2.72481C82.6043 2.74165 83.4328 2.7502 84.2522 2.65744C84.4203 2.63864 84.6185 2.63035 84.8035 2.62913C86.2394 2.62058 87.3571 2.4541 88.2164 2.16387C88.514 2.06281 88.8576 2.01912 89.2066 2.13678C89.3859 2.19707 89.4863 2.17047 89.6527 2.14313C89.8749 2.10651 90.1038 2.07087 90.3467 2.04598C90.5073 2.02938 90.6375 1.9415 90.8702 2.01985L90.8587 2.02108C91.6328 2.01839 92.2577 1.96518 92.605 1.75769C92.8756 1.59634 93.5259 1.55851 93.9314 1.66713C94.1431 1.72376 94.0089 1.76795 93.7278 1.78308L93.7495 1.78015C93.6517 1.82189 93.5516 1.86436 93.4566 1.90489C93.2019 2.0201 93.3873 2.10016 93.8239 2.12213C94.6639 2.16412 95.4945 2.2249 96.386 2.1646C97.3697 2.09796 98.3971 2.07282 99.2504 1.90635C99.5057 1.8563 99.8263 1.86827 100.12 1.85289C100.841 1.8153 101.585 1.74085 101.962 1.58731C102.407 1.40619 102.832 1.27731 103.711 1.28878C103.851 1.29049 103.996 1.25265 104 1.21066C104.007 1.14427 103.792 1.13133 103.609 1.14134C102.761 1.18797 101.88 1.13817 101.041 1.22678C100.629 1.27023 100.163 1.27999 99.7194 1.30172C99.547 1.31002 99.459 1.2795 99.5226 1.26681C100.006 1.16868 99.6609 1.16356 99.3657 1.17356C98.4739 1.20457 97.5452 1.2197 96.7089 1.28658C95.3213 1.39716 93.9361 1.4594 92.5046 1.46794C91.8935 1.47136 91.3196 1.52263 90.7285 1.55119C90.4366 1.56534 90.2692 1.61416 90.2712 1.69447C90.4965 1.72254 90.8002 1.66884 91.024 1.75012C90.7961 1.85216 90.3385 1.83409 89.9239 1.89732C89.8904 1.78869 90.1708 1.74646 90.303 1.68763C90.1218 1.67787 89.792 1.66078 89.8292 1.63222C90.0758 1.44207 89.5966 1.48283 89.2151 1.49772C88.4007 1.52946 87.6131 1.52238 86.7829 1.49797C85.7822 1.46916 84.7324 1.43939 83.6952 1.52116C81.753 1.67299 79.7591 1.5817 77.801 1.55045C76.4665 1.5297 75.1385 1.46355 73.7929 1.49041C73.1977 1.50212 72.5649 1.45476 72.012 1.52458C71.1155 1.63882 70.0383 1.63027 69.2243 1.79992C69.0975 1.82653 68.8506 1.838 68.69 1.82677C68.157 1.78893 67.6139 1.78772 67.019 1.80065C67.158 1.68666 67.4052 1.65224 67.735 1.66273C68.1966 1.67762 68.6251 1.63345 69.0728 1.62515C69.3403 1.62002 69.4408 1.56754 69.4394 1.50212L69.4492 1.50285" fill="#FF4D00"/>
</svg>
